<?xml version="1.0" encoding="UTF-8"?>
<!DOCTYPE svg PUBLIC "-//W3C//DTD SVG 1.1//EN" "http://www.w3.org/Graphics/SVG/1.1/DTD/svg11.dtd">
<!-- Creator: CorelDRAW -->
<svg xmlns="http://www.w3.org/2000/svg" xml:space="preserve" width="0.787402in" height="0.393701in" style="shape-rendering:geometricPrecision; text-rendering:geometricPrecision; image-rendering:optimizeQuality; fill-rule:evenodd; clip-rule:evenodd"
viewBox="0 0 0.787402 0.393701"
 xmlns:xlink="http://www.w3.org/1999/xlink">
 <defs>
  <style type="text/css">
   <![CDATA[
    .str1 {stroke:#D2D3D5;stroke-width:0.003}
    .str0 {stroke:#E6E7E8;stroke-width:0.003}
    .fil14 {fill:none}
    .fil10 {fill:#385795}
    .fil6 {fill:#A9ABAE}
    .fil9 {fill:#BDBFC1}
    .fil11 {fill:#D54939}
    .fil8 {fill:#FEFEFE}
    .fil12 {fill:#D2D3D5}
    .fil5 {fill:#FEFEFE}
    .fil7 {fill:#11B3F1}
    .fil13 {fill:#9EDEF7}
    .fil15 {fill:#9EDEF7;fill-rule:nonzero}
    .fil2 {fill:url(#id10)}
    .fil3 {fill:url(#id11)}
    .fil1 {fill:url(#id12)}
    .fil4 {fill:url(#id13)}
    .fil0 {fill:url(#id14)}
   ]]>
  </style>
  <mask id="id0">
  <linearGradient id="id1" gradientUnits="userSpaceOnUse" x1="6.22646" y1="-6.00519" x2="7.36078" y2="-6.53703">
   <stop offset="0" style="stop-opacity:0.807843; stop-color:white"/>
   <stop offset="0.478431" style="stop-opacity:0.454902; stop-color:white"/>
   <stop offset="1" style="stop-opacity:0.101961; stop-color:white"/>
  </linearGradient>
   <rect style="fill:url(#id1)" x="6.2772" y="-6.64556" width="1.03283" height="0.748906"/>
  </mask>
  <mask id="id2">
  <linearGradient id="id3" gradientUnits="userSpaceOnUse" x1="5.31831" y1="-4.43633" x2="7.1591" y2="-5.29939">
   <stop offset="0" style="stop-opacity:0.807843; stop-color:white"/>
   <stop offset="0.478431" style="stop-opacity:0.454902; stop-color:white"/>
   <stop offset="1" style="stop-opacity:0.101961; stop-color:white"/>
  </linearGradient>
   <rect style="fill:url(#id3)" x="5.37573" y="-5.42217" width="1.72595" height="1.10861"/>
  </mask>
  <mask id="id4">
  <linearGradient id="id5" gradientUnits="userSpaceOnUse" x1="5.94459" y1="-5.17806" x2="7.36948" y2="-5.84612">
   <stop offset="0" style="stop-opacity:0.807843; stop-color:white"/>
   <stop offset="0.478431" style="stop-opacity:0.454902; stop-color:white"/>
   <stop offset="1" style="stop-opacity:0.101961; stop-color:white"/>
  </linearGradient>
   <rect style="fill:url(#id5)" x="5.95752" y="-5.874" width="1.39903" height="0.723823"/>
  </mask>
  <mask id="id6">
  <linearGradient id="id7" gradientUnits="userSpaceOnUse" x1="5.83902" y1="-5.3128" x2="7.37034" y2="-6.03076">
   <stop offset="0" style="stop-opacity:0.807843; stop-color:white"/>
   <stop offset="0.478431" style="stop-opacity:0.454902; stop-color:white"/>
   <stop offset="1" style="stop-opacity:0.101961; stop-color:white"/>
  </linearGradient>
   <rect style="fill:url(#id7)" x="5.84217" y="-6.0378" width="1.52502" height="0.732035"/>
  </mask>
  <mask id="id8">
  <linearGradient id="id9" gradientUnits="userSpaceOnUse" x1="5.94896" y1="-4.66074" x2="8.56144" y2="-5.88561">
   <stop offset="0" style="stop-opacity:0.807843; stop-color:white"/>
   <stop offset="0.478431" style="stop-opacity:0.454902; stop-color:white"/>
   <stop offset="1" style="stop-opacity:0.101961; stop-color:white"/>
  </linearGradient>
   <rect style="fill:url(#id9)" x="6.04707" y="-6.09518" width="2.41626" height="1.644"/>
  </mask>
  <linearGradient id="id10" gradientUnits="userSpaceOnUse" x1="5.94459" y1="-5.17806" x2="7.36948" y2="-5.84612">
   <stop offset="0" style="stop-color:white"/>
   <stop offset="1" style="stop-color:white"/>
  </linearGradient>
  <linearGradient id="id11" gradientUnits="userSpaceOnUse" xlink:href="#id10" x1="5.85433" y1="-5.31998" x2="7.35503" y2="-6.02358">
  </linearGradient>
  <linearGradient id="id12" gradientUnits="userSpaceOnUse" xlink:href="#id10" x1="5.35513" y1="-4.45359" x2="7.12228" y2="-5.28213">
  </linearGradient>
  <linearGradient id="id13" gradientUnits="userSpaceOnUse" xlink:href="#id10" x1="6.02733" y1="-4.69748" x2="8.48307" y2="-5.84886">
  </linearGradient>
  <linearGradient id="id14" gradientUnits="userSpaceOnUse" xlink:href="#id10" x1="6.27183" y1="-6.02647" x2="7.31541" y2="-6.51575">
  </linearGradient>
 </defs>
<symbol id="Fm17-133-0" viewBox="6.33932 -6.64546 0.908598 0.748709">
 <path class="fil0" style="mask:url(#id0)" d="M7.24792 -5.95875c0,0 -0.405902,0.1405 -0.690969,-0.00153937 -0.307543,-0.153252 -0.258768,-0.599028 -0.0420157,-0.676154 0.149083,-0.0530551 0.0989291,0.140445 0.0345,0.253181 -0.0832205,0.145654 -0.116,0.542583 0.698484,0.424512l0 0z"/>
</symbol>
<symbol id="Fm18-134-0" viewBox="5.42629 -5.42207 1.58447 1.00546">
 <path class="fil1" style="mask:url(#id2)" d="M6.40281 -4.94573c-0.177972,0.120709 -0.389803,0.186819 -0.602402,0.210862 -0.105516,0.0119409 -0.388555,0.00240157 -0.373543,0.172177 0.00496063,0.0562795 0.0724606,0.0902087 0.118169,0.107736 0.368291,0.141307 0.673886,-0.135528 0.910484,-0.381665 0.0672244,-0.0699567 0.130374,-0.143484 0.196098,-0.21478 0.116567,-0.126457 0.227276,-0.259441 0.359138,-0.370665 -0.197626,0.161961 -0.392071,0.328197 -0.602972,0.472933 -0.00165354,0.0011378 -0.0033189,0.00229134 -0.00497244,0.00340157l0 0z"/>
</symbol>
<symbol id="Fm16-132-0" viewBox="5.95762 -5.84689 1.39883 0.589933">
 <path class="fil2" style="mask:url(#id4)" d="M5.95762 -5.35944c0,0 0.272012,0.209165 0.642484,0.0298622 0.403406,-0.195224 0.581961,-0.362626 0.75635,-0.517307 0,0 -0.449654,0.35889 -0.849654,0.52178 -0.27328,0.111291 -0.549181,-0.0343346 -0.549181,-0.0343346z"/>
</symbol>
<symbol id="Fm15-131-0" viewBox="5.89983 -5.90802 1.46726 0.542575">
 <path class="fil3" style="mask:url(#id6)" d="M6.15731 -5.66662c-0.0705669,-0.0375433 -0.22311,-0.0402795 -0.249528,0.053126 -0.0655118,0.231803 0.29139,0.259539 0.428224,0.244803 0.139209,-0.015 0.647748,-0.194791 1.03108,-0.539319 -0.0747638,-0.000181102 -0.733043,0.495181 -1.20978,0.24139l0 0z"/>
</symbol>
<symbol id="Fm19-135-0" viewBox="6.18696 -5.96191 2.18263 1.51063">
 <path class="fil4" style="mask:url(#id8)" d="M6.18696 -4.45128c0,0 0.549043,-0.588484 0.987791,-1.04109 0.438752,-0.452614 0.772846,-0.541906 1.19483,-0.419862 0,0 -0.635209,-0.182846 -1.16567,0.434248 -0.646319,0.751945 -1.01696,1.02671 -1.01696,1.02671z"/>
</symbol>
 <g id="Layer_x0020_1">
  <metadata id="CorelCorpID_0Corel-Layer"/>
  <g id="_300297936">
   <rect id="_300279864" class="fil5 str0" x="0.419505" y="0.0411805" width="0.353247" height="0.311337"/>
   <path id="_300279096" class="fil6" d="M0.456402 0.111453c-0.00145276,0 -0.00263386,0.0011811 -0.00263386,0.00263386l0 0.0259449c0,0.00144882 0.0011811,0.00262992 0.00263386,0.00262992l0.27026 0c0.00145276,0 0.00263386,-0.0011811 0.00263386,-0.00262992l0 -0.0259449c0,-0.00145276 -0.0011811,-0.00263386 -0.00263386,-0.00263386l-0.27026 0zm0.27026 0.0319213l-0.27026 0c-0.00184646,0 -0.00334252,-0.0015 -0.00334252,-0.00334252l0 -0.0259449c0,-0.00184646 0.00149606,-0.00334646 0.00334252,-0.00334646l0.27026 0c0.00184646,0 0.00334252,0.0015 0.00334252,0.00334646l3.93701e-006 0.0259449c0,0.00184252 -0.0015,0.00334252 -0.00334646,0.00334252z"/>
   <path id="_300278784" class="fil6" d="M0.456402 0.163524c-0.00145276,0 -0.00263386,0.0011811 -0.00263386,0.00263386l0 0.0259449c0,0.00145276 0.0011811,0.00263386 0.00263386,0.00263386l0.27026 0c0.00145276,0 0.00263386,-0.0011811 0.00263386,-0.00263386l0 -0.0259449c0,-0.00145276 -0.0011811,-0.00263386 -0.00263386,-0.00263386l-0.27026 0zm0.27026 0.0319213l-0.27026 0c-0.00184646,0 -0.00334252,-0.0015 -0.00334252,-0.00334252l0 -0.0259449c0,-0.00184252 0.00149606,-0.00334252 0.00334252,-0.00334252l0.27026 0c0.00184646,0 0.00334252,0.0015 0.00334252,0.00334252l3.93701e-006 0.0259449c0,0.00184252 -0.0015,0.00334252 -0.00334646,0.00334252z"/>
   <path id="_300278616" class="fil7" d="M0.714945 0.249354l-0.244319 0c-0.00881496,0 -0.0159606,-0.00714567 -0.0159606,-0.0159606 0,-0.00881496 0.00714567,-0.0159606 0.0159606,-0.0159606l0.244319 0c0.00881496,0 0.0159606,0.00714567 0.0159606,0.0159606 0,0.00881496 -0.00714567,0.0159606 -0.0159606,0.0159606z"/>
   <path id="_300278592" class="fil8" d="M0.555331 0.233642l0.0017126 0.00295276 0.00248819 0 -0.0023622 -0.0035315c0.00092126,-0.000519685 0.00137402,-0.00123622 0.00137402,-0.00217717 0,-0.00160236 -0.00110236,-0.0023937 -0.00330315,-0.0023937l-0.00265748 0 0 0.00810236 0.00219291 0 0 -0.00295276 0.000555118 0zm-0.000555118 -0.00349606l0.000429134 0c0.000751969,0 0.00112598,0.000287402 0.00112598,0.00084252 0,0.000669291 -0.000374016,0.00100787 -0.00114961,0.00100787l-0.000405512 0 0 -0.00185039z"/>
   <path id="_300278808" class="fil8" d="M0.564469 0.236606c0.000362205,-6.69291e-005 0.000712598,-0.000181102 0.00105512,-0.000362205l0 -0.00155512c-0.000374016,0.000169291 -0.000716535,0.000295276 -0.00104331,0.000362205 -0.000318898,7.87402e-005 -0.000669291,0.000114173 -0.00104724,0.000114173 -0.000417323,0 -0.000748031,-0.000102362 -0.000984252,-0.000295276 -0.000251969,-0.000204724 -0.000377953,-0.000476378 -0.000385827,-0.000830709l0.00387008 0 0 -0.000964567c0,-0.000929134 -0.00026378,-0.00163386 -0.000771654,-0.00213386 -0.000511811,-0.000488189 -0.00125197,-0.00073622 -0.00219291,-0.00073622 -0.000996063,0 -0.00175984,0.000283465 -0.00229134,0.000850394 -0.000535433,0.000566929 -0.000807087,0.00138583 -0.000807087,0.00244094 0,0.0010315 0.000283465,0.00181496 0.000862205,0.00237008 0.00057874,0.000559055 0.00139764,0.00084252 0.00244094,0.00084252 0.0005,0 0.000933071,-3.54331e-005 0.00129528,-0.000102362l0 0zm-0.000759843 -0.00465354c0.00015748,0.000181102 0.000248031,0.00042126 0.000259843,0.000724409l-0.0018622 0c2.3622e-005,-0.000338583 0.000125984,-0.000598425 0.000295276,-0.000759843 0.000169291,-0.00015748 0.000385827,-0.00023622 0.000645669,-0.00023622 0.000275591,0 0.0005,9.05512e-005 0.000661417,0.000271654l0 0z"/>
   <path id="_300279072" class="fil8" d="M0.57089 0.230319c-0.000133858,-2.3622e-005 -0.000338583,-4.72441e-005 -0.000622047,-7.87402e-005 -0.000271654,-2.3622e-005 -0.000476378,-3.54331e-005 -0.000590551,-3.54331e-005 -0.000862205,0 -0.0015315,0.000192913 -0.00199606,0.000566929 -0.000468504,0.000374016 -0.000692913,0.000909449 -0.000692913,0.00159055 0,0.000440945 9.05512e-005,0.000814961 0.000271654,0.00112205 0.000192913,0.000307087 0.000440945,0.000535433 0.000771654,0.000669291 -0.000338583,0.000216535 -0.000566929,0.000385827 -0.000669291,0.000535433 -0.000102362,0.00015748 -0.00015748,0.000326772 -0.00015748,0.000519685 0,0.000181102 6.69291e-005,0.000354331 0.000212598,0.000535433 0.000137795,0.000181102 0.000307087,0.000314961 0.0005,0.000397638 -0.000929134,0.000212598 -0.0013937,0.000700787 -0.0013937,0.00145276 0,0.000555118 0.00023622,0.000984252 0.000712598,0.00127953 0.000488189,0.000295276 0.00116929,0.000444882 0.00206693,0.000444882 0.0011811,0 0.00208661,-0.000216535 0.00274803,-0.000637795 0.000645669,-0.000429134 0.000976378,-0.00101969 0.000976378,-0.00177953 0,-0.00119291 -0.000704724,-0.00178346 -0.00211417,-0.00178346l-0.00104331 0c-0.000283465,0 -0.000511811,-3.14961e-005 -0.000681102,-9.05512e-005 -0.000169291,-5.51181e-005 -0.000259843,-0.000133858 -0.000259843,-0.00023622 0,-9.05512e-005 2.3622e-005,-0.000173228 7.87402e-005,-0.000275591 0.000137795,3.54331e-005 0.000318898,4.72441e-005 0.000555118,4.72441e-005 0.000940945,0 0.00164567,-0.000181102 0.00212205,-0.000555118 0.000476378,-0.000374016 0.000716535,-0.000897638 0.000716535,-0.00157874 0,-0.000283465 -5.51181e-005,-0.000535433 -0.000181102,-0.000748031l0.000862205 -0.000318898 0 -0.00104331 -0.00219291 0zm-0.00230315 0.00664961c0.000161417,-0.000102362 0.000366142,-0.00015748 0.000590551,-0.00015748l0.000850394 0c0.000354331,0 0.000637795,3.14961e-005 0.000830709,0.000102362 0.000192913,6.69291e-005 0.000283465,0.000181102 0.000283465,0.000350394 0,0.000204724 -0.00015748,0.000374016 -0.000476378,0.000511811 -0.000318898,0.000122047 -0.000740157,0.000192913 -0.00125984,0.000192913 -0.000318898,0 -0.00057874,-5.90551e-005 -0.000771654,-0.000161417 -0.000192913,-0.000110236 -0.000283465,-0.000259843 -0.000283465,-0.000429134 0,-0.000161417 7.87402e-005,-0.000295276 0.00023622,-0.000409449l0 0zm0.00111417 -0.00556299c0.000429134,0 0.000645669,0.000330709 0.000645669,0.000976378 0,0.000318898 -5.51181e-005,0.000559055 -0.000169291,0.000716535 -0.000114173,0.00015748 -0.000271654,0.000240157 -0.000476378,0.000240157 -0.000444882,0 -0.000669291,-0.000318898 -0.000669291,-0.000964567 0,-0.000649606 0.000224409,-0.000968504 0.000669291,-0.000968504l0 0z"/>
   <path id="_300278664" class="fil8" d="M0.576217 0.230319l-0.00216929 0 0 0.00627559 0.00216929 0 0 -0.00627559zm-0.00107874 -0.000614173c0.000771654,0 0.00115748,-0.000318898 0.00115748,-0.000952756 0,-0.000318898 -9.05512e-005,-0.000555118 -0.000271654,-0.000728346 -0.000192913,-0.00015748 -0.000476378,-0.00023622 -0.000885827,-0.00023622 -0.000397638,0 -0.000692913,7.87402e-005 -0.000874016,0.00023622 -0.000181102,0.000161417 -0.000271654,0.000397638 -0.000271654,0.000728346 0,0.000633858 0.000385827,0.000952756 0.00114567,0.000952756l0 0z"/>
   <path id="_300279216" class="fil8" d="M0.582425 0.233815c-0.000102362,-0.000240157 -0.00026378,-0.000444882 -0.000480315,-0.000614173 -0.000212598,-0.000181102 -0.000543307,-0.000350394 -0.000984252,-0.000535433 -0.000590551,-0.00023622 -0.000952756,-0.000385827 -0.00106693,-0.000464567 -0.000125984,-7.87402e-005 -0.000192913,-0.000169291 -0.000192913,-0.000271654 0,-0.000169291 0.000181102,-0.000259843 0.000531496,-0.000259843 0.000204724,0 0.000464567,4.33071e-005 0.000783465,0.000133858 0.000330709,9.05512e-005 0.000625984,0.000204724 0.00092126,0.000330709l0.000590551 -0.00139764c-0.000397638,-0.000169291 -0.000771654,-0.00030315 -0.0011378,-0.000397638 -0.000362205,-9.05512e-005 -0.000759843,-0.000133858 -0.00116929,-0.000133858 -0.000826772,0 -0.00146457,0.00015748 -0.00190551,0.000488189 -0.000452756,0.000326772 -0.000681102,0.000783465 -0.000681102,0.0013622 0,0.000464567 0.000114173,0.000838583 0.000338583,0.00114567 0.000228346,0.000295276 0.000637795,0.000566929 0.00121654,0.000807087 0.000625984,0.000248031 0.00101181,0.000417323 0.00113386,0.000507874 0.000137795,8.26772e-005 0.000204724,0.000185039 0.000204724,0.000295276 0,0.000216535 -0.00023622,0.000318898 -0.000704724,0.000318898 -0.000314961,0 -0.000669291,-4.33071e-005 -0.0010748,-0.000145669 -0.000397638,-9.44882e-005 -0.00076378,-0.000216535 -0.00110236,-0.000366142l0 0.00173622c0.000362205,0.000137795 0.000712598,0.000228346 0.00105512,0.000275591 0.00034252,5.51181e-005 0.000748031,7.87402e-005 0.0012126,7.87402e-005 0.000854331,0 0.00151181,-0.000169291 0.00196457,-0.000511811 0.000464567,-0.000350394 0.000692913,-0.000862205 0.000692913,-0.0015315 0,-0.00034252 -5.51181e-005,-0.000625984 -0.000145669,-0.000850394l0 0z"/>
   <path id="_300279048" class="fil8" d="M0.58626 0.234382l0 -0.00244094 0.00154331 0 0 -0.00162205 -0.00154331 0 0 -0.00125984 -0.00141732 0 -0.000559055 0.00131496 -0.000964567 0.000681102 0 0.000885827 0.00076378 0 0 0.00258661c0,0.000740157 0.00015748,0.00128346 0.000476378,0.00164567 0.000326772,0.000354331 0.000850394,0.000535433 0.0015748,0.000535433 0.000354331,0 0.000661417,-2.3622e-005 0.000933071,-7.87402e-005 0.000259843,-5.90551e-005 0.000543307,-0.000149606 0.000826772,-0.000275591l0 -0.0015748c-0.000409449,0.000145669 -0.000748031,0.000212598 -0.00104331,0.000212598 -0.000397638,0 -0.000590551,-0.000200787 -0.000590551,-0.000610236l0 0z"/>
   <path id="_300277848" class="fil8" d="M0.593319 0.236606c0.000366142,-6.69291e-005 0.000716535,-0.000181102 0.00105512,-0.000362205l0 -0.00155512c-0.000374016,0.000169291 -0.000712598,0.000295276 -0.00104331,0.000362205 -0.000318898,7.87402e-005 -0.000669291,0.000114173 -0.00104331,0.000114173 -0.00042126,0 -0.000748031,-0.000102362 -0.000988189,-0.000295276 -0.000248031,-0.000204724 -0.000374016,-0.000476378 -0.000385827,-0.000830709l0.00387008 0 0 -0.000964567c0,-0.000929134 -0.000259843,-0.00163386 -0.000771654,-0.00213386 -0.000511811,-0.000488189 -0.00124803,-0.00073622 -0.00218898,-0.00073622 -0.001,0 -0.00175984,0.000283465 -0.00229528,0.000850394 -0.000531496,0.000566929 -0.00080315,0.00138583 -0.00080315,0.00244094 0,0.0010315 0.000283465,0.00181496 0.000862205,0.00237008 0.00057874,0.000559055 0.0013937,0.00084252 0.00244094,0.00084252 0.000496063,0 0.000929134,-3.54331e-005 0.00129134,-0.000102362l0 0zm-0.000759843 -0.00465354c0.00015748,0.000181102 0.000251969,0.00042126 0.000259843,0.000724409l-0.00185827 0c1.9685e-005,-0.000338583 0.000122047,-0.000598425 0.000295276,-0.000759843 0.000169291,-0.00015748 0.000385827,-0.00023622 0.000645669,-0.00023622 0.000271654,0 0.0005,9.05512e-005 0.00065748,0.000271654l0 0z"/>
   <path id="_300278208" class="fil8" d="M0.598823 0.230512c-0.000326772,0.000204724 -0.00057874,0.000476378 -0.000759843,0.00080315l-0.000102362 0 -0.000338583 -0.000996063 -0.00161024 0 0 0.00627559 0.00216535 0 0 -0.00308661c0,-0.000409449 0.000102362,-0.000716535 0.000318898,-0.000933071 0.000216535,-0.000212598 0.000555118,-0.000326772 0.0010315,-0.000326772 0.000307087,0 0.000555118,2.3622e-005 0.000740157,6.69291e-005l0.000192913 -0.00204331 -0.000125984 -2.3622e-005c-0.000169291,-3.14961e-005 -0.000350394,-4.33071e-005 -0.000535433,-4.33071e-005 -0.000326772,0 -0.00065748,0.000102362 -0.000976378,0.000307087l0 0z"/>
   <path id="_300278400" class="fil8" d="M0.612126 0.228492l-0.00195276 0 0 0.00366535c0,0.000488189 2.3622e-005,0.00114567 8.26772e-005,0.00196457l-3.54331e-005 -3.93701e-006 -0.00295276 -0.00562598 -0.00285827 0 0 0.00810236 0.00194094 0 0 -0.00365354c0,-0.000476378 -3.54331e-005,-0.00115748 -0.000102362,-0.00205512l4.72441e-005 0 0.00296063 0.00570866 0.00287008 0 0 -0.00810236z"/>
   <path id="_300277872" class="fil8" d="M0.619358 0.231724c-0.000251969,-0.000488189 -0.000625984,-0.000862205 -0.00109055,-0.00112205 -0.000476378,-0.00026378 -0.00101969,-0.000397638 -0.00163386,-0.000397638 -0.001,0 -0.00177165,0.000283465 -0.00232677,0.000850394 -0.000555118,0.000566929 -0.000830709,0.0013622 -0.000830709,0.00238583 0,0.00100787 0.000283465,0.00180315 0.00084252,0.00238189 0.000566929,0.000590551 0.00132677,0.000885827 0.00227953,0.000885827 0.000988189,0 0.00175984,-0.000283465 0.00231496,-0.000862205 0.000559055,-0.00057874 0.000830709,-0.00137402 0.000830709,-0.00240551 0,-0.000649606 -0.000125984,-0.00122835 -0.000385827,-0.00171654l0 0zm-0.00346457 0.0005c0.000149606,-0.000271654 0.000385827,-0.000409449 0.000716535,-0.000409449 0.00034252,0 0.00057874,0.000137795 0.000716535,0.000409449 0.000145669,0.000271654 0.000212598,0.000681102 0.000212598,0.00121654 0,0.000543307 -6.69291e-005,0.000952756 -0.000212598,0.00123622 -0.000137795,0.000283465 -0.000374016,0.000417323 -0.000704724,0.000417323 -0.00034252,0 -0.00057874,-0.000133858 -0.000728346,-0.000417323 -0.000145669,-0.000283465 -0.000212598,-0.000692913 -0.000212598,-0.00123622 0,-0.000535433 6.69291e-005,-0.000944882 0.000212598,-0.00121654l0 0z"/>
   <path id="_300278088" class="fil8" d="M0.628697 0.236594l0.00172835 -0.00627559 -0.00209055 0 -0.000555118 0.00240551c-6.69291e-005,0.000259843 -0.000125984,0.000590551 -0.000169291,0.00100787 -5.90551e-005,0.00042126 -9.05512e-005,0.000775591 -0.000114173,0.00105906l-3.54331e-005 0c-4.33071e-005,-0.000456693 -0.000145669,-0.00109055 -0.000318898,-0.00190945l-0.000531496 -0.00256299 -0.0023937 0 -0.00057874 0.0025315c-0.000192913,0.000952756 -0.000295276,0.00159843 -0.000307087,0.00194094l-3.54331e-005 0c-2.3622e-005,-0.000547244 -0.000125984,-0.00124016 -0.000283465,-0.00206693l-0.000511811 -0.00240551 -0.00213386 0 0.00171654 0.00627559 0.00227953 0 0.000637795 -0.00266929c5.51181e-005,-0.000259843 0.000181102,-0.000917323 0.000362205,-0.00194882l3.54331e-005 0 0.000110236 0.000724409 0.000161417 0.000897638 0.000712598 0.00299606 0.00231496 0z"/>
   <path id="_300277944" class="fil8" d="M0.633409 0.228492l-0.0023937 0 0.000283465 0.00524016 0.00182677 0 0.000283465 -0.00524016zm-0.00206693 0.00795276c0.000216535,0.000192913 0.0005,0.000287402 0.000862205,0.000287402 0.000366142,0 0.000649606,-9.44882e-005 0.00084252,-0.000283465 0.000200787,-0.000185039 0.00030315,-0.000444882 0.00030315,-0.000775591 0,-0.000338583 -9.05512e-005,-0.000598425 -0.000295276,-0.000779528 -0.000192913,-0.000192913 -0.000476378,-0.000287402 -0.000850394,-0.000287402 -0.000385827,0 -0.000669291,9.44882e-005 -0.000874016,0.000287402 -0.000192913,0.000181102 -0.000295276,0.000440945 -0.000295276,0.000779528 0,0.000330709 0.000102362,0.000590551 0.000307087,0.000775591l0 -3.93701e-006z"/>
   <polygon id="_300277416" class="fil9" points="0.471713,0.129563 0.468807,0.129563 0.468807,0.127138 0.471535,0.127138 0.471535,0.126465 0.468807,0.126465 0.468807,0.124343 0.471713,0.124343 0.471713,0.123661 0.468043,0.123661 0.468043,0.130244 0.471713,0.130244 "/>
   <path id="_300277344" class="fil9" d="M0.480098 0.130244l0 -0.00321654c0,-0.000637795 -0.000141732,-0.00109055 -0.000417323,-0.00137402 -0.000275591,-0.000287402 -0.000700787,-0.000433071 -0.00125197,-0.000433071 -0.000362205,-3.93701e-006 -0.000677165,7.08661e-005 -0.00096063,0.000220472 -0.000275591,0.00015748 -0.000488189,0.000358268 -0.000637795,0.00061811l-3.54331e-005 0c-0.000240157,-0.000562992 -0.00073622,-0.000838583 -0.00151181,-0.000838583 -0.000314961,-3.93701e-006 -0.000610236,6.29921e-005 -0.000858268,0.000200787 -0.000259843,0.000137795 -0.00046063,0.000322835 -0.000598425,0.000562992l-3.93701e-005 0 -0.00011811 -0.000673228 -0.000610236 0 0 0.00493307 0.000748031 0 0 -0.00259055c0,-0.000637795 0.000110236,-0.00109843 0.000322835,-0.00137402 0.000220472,-0.000287402 0.000562992,-0.000425197 0.0010315,-0.000425197 0.000362205,0 0.00061811,0.000102362 0.000783465,0.000295276 0.000177165,0.000192913 0.000259843,0.000488189 0.000259843,0.000885827l0 0.00320866 0.000748031 0 0 -0.00275591c0,-0.000555118 0.000110236,-0.000968504 0.000330709,-0.00123622 0.000220472,-0.000267717 0.000562992,-0.000397638 0.0010315,-0.000397638 0.000350394,0 0.000610236,0.000102362 0.000787402,0.000295276 0.000165354,0.000192913 0.000248031,0.000488189 0.000248031,0.000885827l0 0.00320866 0.000748031 0z"/>
   <path id="_300277368" class="fil9" d="M0.485224 0.130244l0 -0.00336614c0,-0.000582677 -0.000137795,-0.000996063 -0.00042126,-0.00126378 -0.000287402,-0.000255906 -0.000720472,-0.000385827 -0.00131102,-0.000385827 -0.000295276,0 -0.000582677,3.54331e-005 -0.000866142,0.000110236 -0.000295276,7.48031e-005 -0.000562992,0.000185039 -0.00080315,0.000314961l0.000232283 0.000570866c0.000515748,-0.000248031 0.000984252,-0.000377953 0.00138976,-0.000377953 0.000370079,0 0.000637795,9.05512e-005 0.00080315,0.000275591 0.000165354,0.000185039 0.000248031,0.000472441 0.000248031,0.000858268l0 0.00030315 -0.000838583 2.75591e-005c-0.00159449,4.72441e-005 -0.00238976,0.000570866 -0.00238976,0.00156693 0,0.000472441 0.000137795,0.000830709 0.000417323,0.00107874 0.000275591,0.000251969 0.000661417,0.00038189 0.00115354,0.00038189 0.000358268,0 0.000673228,-5.90551e-005 0.000909449,-0.000169291 0.000251969,-0.000110236 0.000492126,-0.000322835 0.000740157,-0.000625984l3.54331e-005 0 0.000149606 0.000700787 0.000551181 0zm-0.00293307 -0.00073622c-0.000153543,-0.000137795 -0.000240157,-0.000350394 -0.000240157,-0.00061811 3.93701e-006,-0.00034252 0.000129921,-0.000598425 0.000397638,-0.000767717 0.000259843,-0.00015748 0.000685039,-0.000248031 0.00128346,-0.000275591l0.000748031 -2.75591e-005 0 0.000444882c0,0.00046063 -0.000129921,0.000818898 -0.000397638,0.00107874 -0.000267717,0.000248031 -0.000637795,0.000377953 -0.00109843,0.000377953 -0.000295276,0 -0.000523622,-7.48031e-005 -0.000692913,-0.000212598l0 0z"/>
   <path id="_300277128" class="fil9" d="M0.487516 0.125311l-0.000748031 0 0 0.00493307 0.000748031 0 0 -0.00493307zm-0.000685039 -0.00096063c8.26772e-005,8.26772e-005 0.000185039,0.000122047 0.000314961,0.000122047 0.00011811,0 0.000220472,-3.93701e-005 0.000314961,-0.000122047 8.26772e-005,-8.26772e-005 0.000125984,-0.000212598 0.000125984,-0.000377953 0,-0.000165354 -4.33071e-005,-0.000295276 -0.000125984,-0.000377953 -9.44882e-005,-8.26772e-005 -0.00019685,-0.00011811 -0.000314961,-0.00011811 -0.000129921,0 -0.000232283,3.54331e-005 -0.000314961,0.00011811 -8.26772e-005,8.26772e-005 -0.000125984,0.000204724 -0.000125984,0.000377953 0,0.000165354 4.33071e-005,0.000295276 0.000125984,0.000377953l0 0z"/>
   <polygon id="_300277512" class="fil9" points="0.489846,0.123236 0.489102,0.123236 0.489102,0.130244 0.489846,0.130244 "/>
   <path id="_300277104" class="fil9" d="M0.469748 0.175445l-0.00170472 0 0 0.00658268 0.00076378 0 0 -0.00259055 0.000775591 0c0.000846457,0 0.00149213,-0.000173228 0.00195276,-0.000535433 0.000452756,-0.000358268 0.000685039,-0.000874016 0.000685039,-0.00153937 0,-0.00127953 -0.000822835,-0.00191732 -0.00247244,-0.00191732l0 0zm-0.000940945 0.000665354l0.000858268 0c0.000598425,0 0.00105118,0.000110236 0.00132677,0.000322835 0.000287402,0.000212598 0.000433071,0.000535433 0.000433071,0.000968504 0,0.000488189 -0.000153543,0.000838583 -0.00046063,0.00105118 -0.000295276,0.000220472 -0.000791339,0.000330709 -0.00146457,0.000330709l-0.000692913 0 0 -0.00267323z"/>
   <path id="_300277464" class="fil9" d="M0.477071 0.182028l0 -0.00336614c0,-0.00057874 -0.000137795,-0.000992126 -0.000425197,-0.00125984 -0.000283465,-0.000259843 -0.000716535,-0.000389764 -0.00130709,-0.000389764 -0.000295276,0 -0.000582677,3.93701e-005 -0.000866142,0.000110236 -0.000295276,7.48031e-005 -0.000562992,0.000185039 -0.00080315,0.000314961l0.000228346 0.000570866c0.000515748,-0.000248031 0.000988189,-0.000377953 0.0013937,-0.000377953 0.000370079,0 0.000637795,9.44882e-005 0.00080315,0.000275591 0.000165354,0.000185039 0.000248031,0.000472441 0.000248031,0.000858268l0 0.000307087 -0.000838583 2.75591e-005c-0.00159449,4.33071e-005 -0.00238976,0.000570866 -0.00238976,0.00156693 0,0.000468504 0.000137795,0.000830709 0.000417323,0.00107874 0.000275591,0.000248031 0.000661417,0.000377953 0.00114961,0.000377953 0.000362205,0 0.000673228,-5.51181e-005 0.000913386,-0.000165354 0.000251969,-0.000110236 0.000488189,-0.000322835 0.000740157,-0.000629921l3.54331e-005 0 0.000149606 0.000700787 0.000551181 0zm-0.00293307 -0.00073622c-0.00015748,-0.000137795 -0.000240157,-0.000350394 -0.000240157,-0.00061811 0,-0.00034252 0.000129921,-0.000598425 0.000397638,-0.00076378 0.000259843,-0.00015748 0.000681102,-0.000248031 0.00128346,-0.000279528l0.000744094 -2.75591e-005 0 0.000444882c0,0.00046063 -0.000125984,0.000818898 -0.000393701,0.00107874 -0.000267717,0.000248031 -0.000637795,0.000377953 -0.00109843,0.000377953 -0.000295276,0 -0.000527559,-7.48031e-005 -0.000692913,-0.000212598l0 0z"/>
   <path id="_300275688" class="fil9" d="M0.481492 0.17987c-0.000212598,-0.000220472 -0.000610236,-0.000433071 -0.00119291,-0.000645669 -0.00042126,-0.000153543 -0.000708661,-0.000283465 -0.000866142,-0.000366142 -0.000145669,-8.26772e-005 -0.000255906,-0.000165354 -0.000322835,-0.000267717 -6.29921e-005,-9.44882e-005 -9.84252e-005,-0.000204724 -9.84252e-005,-0.000334646 0,-0.000192913 9.05512e-005,-0.000350394 0.00026378,-0.00046063 0.000185039,-0.000110236 0.000452756,-0.000165354 0.00080315,-0.000165354 0.000405512,0 0.000850394,0.000102362 0.00134646,0.00030315l0.000267717 -0.000606299c-0.000507874,-0.000212598 -0.00102362,-0.000322835 -0.00155906,-0.000322835 -0.000570866,0 -0.00102362,0.00011811 -0.00134646,0.000350394 -0.000330709,0.000228346 -0.000488189,0.000551181 -0.000488189,0.000948819 0,0.000232283 4.72441e-005,0.000425197 0.000137795,0.000582677 9.44882e-005,0.000165354 0.000240157,0.000311024 0.000433071,0.000433071 0.00019685,0.000129921 0.000519685,0.000275591 0.000980315,0.000452756 0.000488189,0.000181102 0.000811024,0.000350394 0.000976378,0.000476378 0.000165354,0.000141732 0.000248031,0.000307087 0.000248031,0.0005 0,0.000255906 -0.000102362,0.000440945 -0.000311024,0.000570866 -0.000212598,0.00011811 -0.000519685,0.000185039 -0.000905512,0.000185039 -0.000248031,0 -0.000515748,-3.54331e-005 -0.000783465,-0.000102362 -0.000267717,-7.48031e-005 -0.000527559,-0.000165354 -0.000767717,-0.000283465l0 0.000688976c0.000370079,0.000212598 0.000877953,0.000314961 0.0015315,0.000314961 0.00061811,0 0.00109843,-0.000129921 0.00144094,-0.000377953 0.000350394,-0.000248031 0.000515748,-0.000598425 0.000515748,-0.00106299 0,-0.000322835 -0.000102362,-0.000598425 -0.00030315,-0.000811024l0 0z"/>
   <path id="_300275904" class="fil9" d="M0.48589 0.17987c-0.000212598,-0.000220472 -0.000610236,-0.000433071 -0.00118898,-0.000645669 -0.000425197,-0.000153543 -0.000708661,-0.000283465 -0.000866142,-0.000366142 -0.000149606,-8.26772e-005 -0.000259843,-0.000165354 -0.000322835,-0.000267717 -6.69291e-005,-9.44882e-005 -0.000102362,-0.000204724 -0.000102362,-0.000334646 0,-0.000192913 9.05512e-005,-0.000350394 0.000267717,-0.00046063 0.000185039,-0.000110236 0.000452756,-0.000165354 0.00080315,-0.000165354 0.000405512,0 0.000846457,0.000102362 0.00134646,0.00030315l0.000267717 -0.000606299c-0.000507874,-0.000212598 -0.00102362,-0.000322835 -0.00155906,-0.000322835 -0.000574803,0 -0.00102362,0.00011811 -0.00134646,0.000350394 -0.000334646,0.000228346 -0.000488189,0.000551181 -0.000488189,0.000948819 0,0.000232283 4.33071e-005,0.000425197 0.000137795,0.000582677 9.05512e-005,0.000165354 0.000240157,0.000311024 0.000433071,0.000433071 0.000192913,0.000129921 0.000515748,0.000275591 0.000976378,0.000452756 0.000488189,0.000181102 0.000811024,0.000350394 0.000976378,0.000476378 0.000169291,0.000141732 0.000251969,0.000307087 0.000251969,0.0005 0,0.000255906 -0.000102362,0.000440945 -0.000314961,0.000570866 -0.000212598,0.00011811 -0.000515748,0.000185039 -0.000905512,0.000185039 -0.000248031,0 -0.000515748,-3.54331e-005 -0.000783465,-0.000102362 -0.000267717,-7.48031e-005 -0.000523622,-0.000165354 -0.00076378,-0.000283465l0 0.000688976c0.000370079,0.000212598 0.000874016,0.000314961 0.0015315,0.000314961 0.00061811,0 0.00109449,-0.000129921 0.00143701,-0.000377953 0.000350394,-0.000248031 0.000515748,-0.000598425 0.000515748,-0.00106299 0,-0.000322835 -9.84252e-005,-0.000598425 -0.00030315,-0.000811024l0 0z"/>
   <path id="_300275544" class="fil9" d="M0.492327 0.182028l0.00136614 -0.00493307 -0.000775591 0c-0.000570866,0.00219685 -0.000885827,0.00341339 -0.000940945,0.00363386 -4.72441e-005,0.000220472 -8.26772e-005,0.000389764 -9.05512e-005,0.0005l-3.93701e-005 0c-5.51181e-005,-0.000350394 -0.000173228,-0.000783465 -0.000338583,-0.00130315l-0.000885827 -0.00283071 -0.000811024 0 -0.000905512 0.00283071c-5.51181e-005,0.00015748 -0.00011811,0.000377953 -0.000192913,0.000645669 -7.48031e-005,0.000279528 -0.000122047,0.0005 -0.00015748,0.000665354l-3.54331e-005 0c-2.75591e-005,-0.000220472 -0.000122047,-0.000665354 -0.000287402,-0.00131102 -0.000165354,-0.000645669 -0.000405512,-0.00159449 -0.000728346,-0.00283071l-0.000783465 0 0.00134646 0.00493307 0.000866142 0 0.000933071 -0.00288583c9.05512e-005,-0.000283465 0.000192913,-0.000688976 0.000311024,-0.00121654l3.93701e-005 0c0.00015748,0.000625984 0.000267717,0.0010315 0.000322835,0.00120866l0.000901575 0.0028937 0.000885827 0z"/>
   <path id="_300275040" class="fil9" d="M0.498236 0.177697c-0.000405512,-0.000464567 -0.000956693,-0.000692913 -0.00164961,-0.000692913 -0.000708661,0 -0.00127165,0.000220472 -0.00166929,0.000673228 -0.000405512,0.000452756 -0.000610236,0.00107874 -0.000610236,0.00188189 0,0.000515748 9.44882e-005,0.000976378 0.000279528,0.0013622 0.000192913,0.000389764 0.000448819,0.000685039 0.000791339,0.000885827 0.00034252,0.000212598 0.00073622,0.000314961 0.0011811,0.000314961 0.000708661,0 0.00127165,-0.000232283 0.00167717,-0.000681102 0.000405512,-0.000452756 0.000610236,-0.00107874 0.000610236,-0.00188189 0,-0.000783465 -0.000204724,-0.00140157 -0.000610236,-0.0018622l0 0zm-0.00277559 0.00042126c0.000248031,-0.000322835 0.00061811,-0.000476378 0.0011063,-0.000476378 0.000488189,0 0.000866142,0.000165354 0.00112598,0.000488189 0.000248031,0.000322835 0.000377953,0.000799213 0.000377953,0.00142913 0,0.000633858 -0.000129921,0.00111417 -0.000377953,0.00144488 -0.000259843,0.000322835 -0.000625984,0.000492126 -0.00111417,0.000492126 -0.000492126,0 -0.000858268,-0.000169291 -0.00111811,-0.0005 -0.000248031,-0.000330709 -0.000377953,-0.000811024 -0.000377953,-0.00143701 0,-0.000637795 0.000129921,-0.00111811 0.000377953,-0.00144094l0 0z"/>
   <path id="_300274920" class="fil9" d="M0.501555 0.17726c-0.000255906,0.000177165 -0.000476378,0.000425197 -0.000661417,0.000748031l-3.93701e-005 0 -8.26772e-005 -0.000913386 -0.00061811 0 0 0.00493307 0.000748031 0 0 -0.00264567c0,-0.000480315 0.000137795,-0.000885827 0.000425197,-0.00120866 0.000287402,-0.000322835 0.000625984,-0.000488189 0.00102362,-0.000488189 0.00015748,0 0.00034252,1.9685e-005 0.000543307,6.69291e-005l0.000102362 -0.000692913c-0.000177165,-3.93701e-005 -0.000370079,-5.51181e-005 -0.000590551,-5.51181e-005 -0.000314961,0 -0.000590551,8.26772e-005 -0.000850394,0.000255906l0 0z"/>
   <path id="_300275064" class="fil9" d="M0.507378 0.182028l0.000610236 0 0 -0.00700787 -0.000748031 0 0 0.00201181 1.9685e-005 0.000350394 2.75591e-005 0.000350394 -5.51181e-005 0c-0.000362205,-0.000488189 -0.000870079,-0.000728346 -0.00154331,-0.000728346 -0.000645669,0 -0.00114173,0.000220472 -0.00150394,0.000673228 -0.000358268,0.000452756 -0.000543307,0.00108661 -0.000543307,0.00189764 0,0.000814961 0.000185039,0.00144094 0.000543307,0.00188189 0.000350394,0.000444882 0.000858268,0.000665354 0.00150394,0.000665354 0.000692913,0 0.00120866,-0.000248031 0.00155118,-0.000755906l3.54331e-005 0 0.000102362 0.000661417zm-0.00261024 -0.00101181c-0.000232283,-0.000322835 -0.000350394,-0.00080315 -0.000350394,-0.00142913 0,-0.00061811 0.00011811,-0.0011063 0.000350394,-0.00144882 0.000232283,-0.00034252 0.000570866,-0.000507874 0.00100394,-0.000507874 0.000519685,0 0.000885827,0.000149606 0.00111811,0.000452756 0.000228346,0.000295276 0.000350394,0.000791339 0.000350394,0.00149213l0 0.00015748c0,0.00061811 -0.000110236,0.00107087 -0.00034252,0.00134646 -0.000228346,0.000275591 -0.000598425,0.000417323 -0.00111417,0.000417323 -0.000444882,0 -0.000783465,-0.00015748 -0.00101575,-0.000480315l0 0z"/>
   <g>
    <path id="_300274752" class="fil10" d="M0.567244 0.264067l3.93701e-006 0c0.00724409,0 0.0131181,0.00587402 0.0131181,0.013122 0,0.00724409 -0.00587402,0.0131181 -0.0131181,0.0131181l-3.93701e-006 0c-0.00724409,0 -0.0131181,-0.00587402 -0.0131181,-0.0131181 0,-0.00724803 0.00587402,-0.013122 0.0131181,-0.013122z"/>
    <path id="_300274680" class="fil8" d="M0.570335 0.275173l-0.00194488 0 0 -0.00129528c0.000137795,-0.00122441 0.00216535,-0.000992126 0.00216535,-0.000992126l0 -8.66142e-005 0 -7.87402e-006 0 -0.00201181 0 0 -3.93701e-006 0c-7.08661e-005,-1.5748e-005 -0.00402362,-0.000956693 -0.00481102,0.00205512l0 3.93701e-006 -3.93701e-006 1.5748e-005c-0.000125984,0.000377953 -0.00011811,0.00210236 -0.000114173,0.0023189l-0.00168898 0 0 0.00230315 0.00179134 0 0 0.00627165 0.00261417 0 0 -0.00627165 0.00199606 0 0.000224409 -0.00230315 -0.000224409 0z"/>
    <path id="_300274968" class="fil11" d="M0.618323 0.264067l0 0c0.00724803,0 0.013122,0.00587402 0.013122,0.013122 0,0.00724409 -0.00587402,0.0131181 -0.013122,0.0131181 -0.00724409,0 -0.0131181,-0.00587402 -0.0131181,-0.0131181 0,-0.00724803 0.00587402,-0.013122 0.0131181,-0.013122z"/>
    <path id="_302365376" class="fil8" d="M0.6225 0.275402c0.000397638,0 0.000787402,0 0.00118504,0 3.93701e-006,0.000397638 7.87402e-006,0.000795276 7.87402e-006,0.00118898 0.000397638,3.93701e-006 0.000795276,7.87402e-006 0.00118898,7.87402e-006 0,0.000397638 0,0.000791339 0,0.00118898 -0.000393701,0 -0.000791339,3.93701e-006 -0.00118898,3.93701e-006 -3.93701e-006,0.000397638 -3.93701e-006,0.000795276 -7.87402e-006,0.00119291 -0.000397638,0 -0.000791339,0 -0.00118504,0 -3.93701e-006,-0.000397638 -3.93701e-006,-0.000795276 -7.87402e-006,-0.00118898 -0.000397638,-3.93701e-006 -0.000795276,-7.87402e-006 -0.00118898,-7.87402e-006 0,-0.000397638 0,-0.000791339 0,-0.00118898 0.000393701,0 0.000791339,-3.93701e-006 0.00118898,-7.87402e-006 0,-0.000393701 3.93701e-006,-0.000791339 7.87402e-006,-0.00118898zm-0.0107323 0.00179134c-8.26772e-005,-0.00214961 0.00179921,-0.00413386 0.00395276,-0.00416142 0.00109449,-9.44882e-005 0.00216142,0.000330709 0.00299213,0.00102756 -0.00034252,0.000374016 -0.000685039,0.000744094 -0.00105906,0.00109055 -0.000728346,-0.000444882 -0.00161024,-0.000783465 -0.00246063,-0.000484252 -0.00137795,0.000393701 -0.0022126,0.00201969 -0.00170472,0.00336614 0.000425197,0.00140945 0.00213386,0.0021811 0.00347638,0.00159055 0.00069685,-0.000248031 0.00115354,-0.000889764 0.00135433,-0.00157874 -0.000795276,-1.5748e-005 -0.00159449,-7.87402e-006 -0.00238976,-2.75591e-005 0,-0.000472441 -3.93701e-006,-0.000944882 0,-0.00142126 0.00132677,0 0.00265748,-3.93701e-006 0.00398425,7.87402e-006 8.26772e-005,0.00115748 -9.05512e-005,0.00240157 -0.00084252,0.00333465 -0.00103543,0.00132677 -0.00294094,0.00171654 -0.00449606,0.00119685 -0.00164567,-0.00053937 -0.00284252,-0.00220079 -0.00280709,-0.00394094z"/>
   </g>
   <g>
    <path id="_302110648" class="fil7" d="M0.28274 0.21478l-0.250957 0c-0.00905512,0 -0.0163937,-0.00733858 -0.0163937,-0.0163937 0,-0.00905118 0.00733858,-0.0163937 0.0163937,-0.0163937l0.250957 0c0.00905512,0 0.0163937,0.00734252 0.0163937,0.0163937 0,0.00905512 -0.00733858,0.0163937 -0.0163937,0.0163937z"/>
    <path id="_209072064" class="fil6" d="M0.0184606 0.0816575c-0.00149213,0 -0.00270472,0.0012126 -0.00270472,0.00270472l0 0.0266496c0,0.00149213 0.0012126,0.00270472 0.00270472,0.00270472l0.277602 0c0.00149213,0 0.00270472,-0.0012126 0.00270472,-0.00270472l0 -0.0266496c0,-0.00149213 -0.0012126,-0.00270472 -0.00270472,-0.00270472l-0.277602 0zm0.277602 0.0327874l-0.277602 0c-0.0018937,0 -0.00343701,-0.00153937 -0.00343701,-0.00343307l0 -0.0266496c0,-0.0018937 0.00154331,-0.00343307 0.00343701,-0.00343307l0.277602 0c0.0018937,0 0.00343701,0.00153937 0.00343701,0.00343307l0 0.0266496c0,0.0018937 -0.00154331,0.00343307 -0.00343701,0.00343307z"/>
    <path id="_300296376" class="fil12" d="M0.152835 0.285819l0 0c0.00744488,0 0.0134764,0.0060315 0.0134764,0.0134764 0,0.00744094 -0.00603543,0.0134764 -0.0134764,0.0134764l0 0c-0.00744094,0 -0.0134764,-0.00603543 -0.0134764,-0.0134764 0,-0.00744488 0.00603543,-0.0134764 0.0134764,-0.0134764z"/>
    <path id="_300296352" class="fil13" d="M0.13902 0.146835l0.00951181 0 0 -0.00950787c0,-0.00237008 0.00193701,-0.00430315 0.00430315,-0.00430315l0 0c0.00236614,0 0.00430315,0.00193307 0.00430315,0.00430315l0 0.00950787 0.00951181 0c0.00236614,0 0.00430315,0.00193701 0.00430315,0.00430315l0 0c0,0.00237008 -0.00193701,0.00430315 -0.00430315,0.00430315l-0.00951181 0 0 0.00951181c0,0.00236614 -0.00193701,0.00430315 -0.00430315,0.00430315l0 0c-0.00236614,0 -0.00430315,-0.00193701 -0.00430315,-0.00430315l0 -0.00951181 -0.00951181 0c-0.00236614,0 -0.00430315,-0.00193307 -0.00430315,-0.00430315l0 0c0,-0.00236614 0.00193701,-0.00430315 0.00430315,-0.00430315z"/>
    <path id="_300296256" class="fil13" d="M0.13902 0.243512l0.00951181 0 0 -0.00951181c0,-0.00236614 0.00193701,-0.00430315 0.00430315,-0.00430315l0 0c0.00236614,0 0.00430315,0.00193701 0.00430315,0.00430315l0 0.00951181 0.00951181 0c0.00236614,0 0.00430315,0.00193701 0.00430315,0.00430315l0 0c0,0.00236614 -0.00193701,0.00430315 -0.00430315,0.00430315l-0.00951181 0 0 0.00951181c0,0.00236614 -0.00193701,0.00430315 -0.00430315,0.00430315l0 0c-0.00236614,0 -0.00430315,-0.00193701 -0.00430315,-0.00430315l0 -0.00951181 -0.00951181 0c-0.00236614,0 -0.00430315,-0.00193701 -0.00430315,-0.00430315l0 0c0,-0.00236614 0.00193701,-0.00430315 0.00430315,-0.00430315z"/>
   </g>
   <line id="_302102872" class="fil14 str1" x1="0.322512" y1="0.147114" x2="0.322512" y2= "0.246587" />
   <rect id="_300297528" class="fil13" x="0.338976" y="0.173158" width="0.0461022" height="0.0101783" rx="0.00509055" ry="0.00509055"/>
   <rect id="_300297072" class="fil13" x="0.338976" y="0.192317" width="0.0461022" height="0.0101783" rx="0.00509055" ry="0.00509055"/>
   <path id="_300298152" class="fil15" d="M0.57465 0.0834449c0.000397638,0 0.000751969,-5.11811e-005 0.00105906,-0.000149606 0.00030315,-9.44882e-005 0.000559055,-0.000232283 0.000767717,-0.000413386 0.000204724,-0.000177165 0.000362205,-0.000385827 0.000464567,-0.000633858 0.000106299,-0.000248031 0.00015748,-0.000519685 0.00015748,-0.000818898 0,-0.000610236 -0.000200787,-0.00106693 -0.000598425,-0.00137795 -0.000397638,-0.000307087 -0.000996063,-0.00046063 -0.00179528,-0.00046063l-0.00151181 0 0 0.00385433 0.00145669 0zm0.0047126 0.00526378l-0.00122441 0c-0.000251969,0 -0.000437008,-9.84252e-005 -0.000555118,-0.000291339l-0.00264961 -0.00364961c-8.26772e-005,-0.000114173 -0.000165354,-0.00019685 -0.000259843,-0.000244094 -9.05512e-005,-5.11811e-005 -0.00023622,-7.48031e-005 -0.000433071,-7.48031e-005l-0.00104724 0 0 0.00425984 -0.00137402 0 0 -0.0102087 0.00288583 0c0.000645669,0 0.00120472,6.29921e-005 0.00167323,0.000192913 0.000472441,0.000133858 0.000862205,0.000322835 0.00116535,0.000570866 0.000307087,0.000244094 0.000531496,0.000543307 0.000681102,0.000889764 0.000145669,0.000350394 0.000220472,0.000744094 0.000220472,0.00117323 0,0.000362205 -5.90551e-005,0.000700787 -0.000169291,0.00101181 -0.000114173,0.000314961 -0.000279528,0.000594488 -0.000496063,0.00084252 -0.000216535,0.000251969 -0.000480315,0.000464567 -0.000791339,0.000641732 -0.000311024,0.000173228 -0.000665354,0.000307087 -0.00105906,0.000397638 0.000177165,9.84252e-005 0.000326772,0.000244094 0.000456693,0.000433071l0.00297638 0.00405512z"/>
   <path id="_3002981521" class="fil15" d="M0.585276 0.084315c0,-0.000295276 -3.93701e-005,-0.000566929 -0.000122047,-0.000811024 -8.26772e-005,-0.000244094 -0.000204724,-0.000456693 -0.000366142,-0.000633858 -0.00015748,-0.000177165 -0.000354331,-0.000314961 -0.00057874,-0.000413386 -0.000228346,-9.84252e-005 -0.000488189,-0.000145669 -0.000779528,-0.000145669 -0.000606299,0 -0.00108661,0.000177165 -0.00144094,0.000531496 -0.000354331,0.000350394 -0.000574803,0.00084252 -0.00065748,0.00147244l0.00394488 0zm0.00102756 0.00338189c-0.00015748,0.000188976 -0.000346457,0.000354331 -0.000562992,0.000496063 -0.000220472,0.000137795 -0.000452756,0.000255906 -0.000700787,0.000346457 -0.000251969,8.66142e-005 -0.000507874,0.000153543 -0.000775591,0.000200787 -0.000267717,4.33071e-005 -0.000527559,6.69291e-005 -0.000791339,6.69291e-005 -0.000496063,0 -0.000956693,-8.26772e-005 -0.00137795,-0.000251969 -0.000417323,-0.000169291 -0.000783465,-0.000417323 -0.00109055,-0.000740157 -0.00030315,-0.000326772 -0.000543307,-0.000728346 -0.000716535,-0.00120866 -0.000169291,-0.000480315 -0.000255906,-0.0010315 -0.000255906,-0.00165354 0,-0.0005 7.87402e-005,-0.000972441 0.000232283,-0.00140945 0.00015748,-0.000437008 0.000377953,-0.000814961 0.000665354,-0.0011378 0.000291339,-0.000318898 0.000645669,-0.000570866 0.00106299,-0.000755906 0.000417323,-0.000181102 0.000885827,-0.000271654 0.00140945,-0.000271654 0.000433071,0 0.000834646,7.08661e-005 0.00120079,0.000216535 0.000370079,0.000145669 0.000688976,0.000354331 0.000956693,0.000625984 0.000267717,0.000275591 0.000476378,0.000610236 0.000629921,0.00101181 0.000149606,0.000401575 0.000228346,0.000858268 0.000228346,0.00137402 0,0.00019685 -2.3622e-005,0.000330709 -6.69291e-005,0.000397638 -4.33071e-005,6.69291e-005 -0.000122047,9.84252e-005 -0.000240157,9.84252e-005l-0.00482283 0c1.1811e-005,0.000456693 7.87402e-005,0.000854331 0.000188976,0.00119291 0.000110236,0.000334646 0.00026378,0.000614173 0.000464567,0.00084252 0.000200787,0.000224409 0.000437008,0.000393701 0.000712598,0.000503937 0.000275591,0.000114173 0.000582677,0.000169291 0.000925197,0.000169291 0.000318898,0 0.000594488,-3.93701e-005 0.000826772,-0.000110236 0.000228346,-7.48031e-005 0.000425197,-0.000153543 0.000590551,-0.000240157 0.000169291,-8.26772e-005 0.000307087,-0.000165354 0.00042126,-0.000240157 0.000110236,-7.08661e-005 0.000204724,-0.000106299 0.000287402,-0.000106299 0.000102362,0 0.000185039,3.93701e-005 0.000240157,0.00011811l0.000358268 0.000464567z"/>
   <path id="_30029815212" class="fil15" d="M0.590484 0.0851811c0.000255906,0 0.000480315,-3.54331e-005 0.000677165,-0.000106299 0.000192913,-7.08661e-005 0.000358268,-0.000169291 0.000492126,-0.000299213 0.000129921,-0.000125984 0.000232283,-0.000283465 0.000299213,-0.00046063 6.69291e-005,-0.000177165 9.84252e-005,-0.000374016 9.84252e-005,-0.000586614 0,-0.000440945 -0.000133858,-0.000791339 -0.000401575,-0.00105512 -0.000267717,-0.000259843 -0.00065748,-0.000389764 -0.00116535,-0.000389764 -0.000511811,0 -0.000901575,0.000129921 -0.00116929,0.000389764 -0.000271654,0.00026378 -0.000405512,0.000614173 -0.000405512,0.00105512 0,0.000212598 3.54331e-005,0.000409449 0.000106299,0.000586614 6.69291e-005,0.000177165 0.000165354,0.000334646 0.000299213,0.00046063 0.000133858,0.000129921 0.000299213,0.000228346 0.000492126,0.000299213 0.000192913,7.08661e-005 0.00042126,0.000106299 0.000677165,0.000106299zm0.0022874 0.00392126c0,-0.000177165 -5.11811e-005,-0.000318898 -0.000149606,-0.000429134 -0.000102362,-0.000110236 -0.000232283,-0.00019685 -0.000401575,-0.000255906 -0.000169291,-6.29921e-005 -0.000366142,-0.000106299 -0.000590551,-0.000133858 -0.000220472,-2.75591e-005 -0.000456693,-4.33071e-005 -0.000708661,-5.90551e-005 -0.000248031,-1.5748e-005 -0.0005,-2.75591e-005 -0.000759843,-4.33071e-005 -0.000255906,-1.5748e-005 -0.0005,-3.93701e-005 -0.000740157,-7.08661e-005 -0.00026378,0.000122047 -0.000480315,0.000279528 -0.000649606,0.000464567 -0.000169291,0.000188976 -0.000255906,0.000409449 -0.000255906,0.000661417 0,0.000161417 4.33071e-005,0.000311024 0.000125984,0.000452756 8.66142e-005,0.000137795 0.000212598,0.000259843 0.00038189,0.000362205 0.000169291,0.000102362 0.000385827,0.000181102 0.000645669,0.000240157 0.000259843,5.90551e-005 0.000562992,9.05512e-005 0.000913386,9.05512e-005 0.00034252,0 0.000649606,-3.14961e-005 0.00092126,-9.05512e-005 0.000267717,-6.29921e-005 0.0005,-0.000149606 0.000688976,-0.00026378 0.000185039,-0.000114173 0.000326772,-0.000251969 0.000429134,-0.000405512 9.84252e-005,-0.00015748 0.000149606,-0.000330709 0.000149606,-0.000519685zm0.0012874 -0.00732677l0 0.000472441c0,0.00015748 -9.84252e-005,0.000255906 -0.000299213,0.000299213l-0.000818898 0.000106299c0.000161417,0.000314961 0.000244094,0.000661417 0.000244094,0.00103937 0,0.000350394 -6.69291e-005,0.000669291 -0.000204724,0.000956693 -0.000133858,0.000287402 -0.000322835,0.000535433 -0.000559055,0.000740157 -0.00023622,0.000204724 -0.000523622,0.000358268 -0.000854331,0.000468504 -0.000334646,0.000110236 -0.000692913,0.000165354 -0.00108268,0.000165354 -0.000338583,0 -0.00065748,-3.93701e-005 -0.000956693,-0.000122047 -0.000149606,9.44882e-005 -0.000267717,0.00019685 -0.000346457,0.00030315 -8.26772e-005,0.000106299 -0.000122047,0.000216535 -0.000122047,0.000322835 0,0.000173228 7.08661e-005,0.000299213 0.000212598,0.000389764 0.000137795,8.66142e-005 0.000322835,0.000149606 0.000551181,0.000188976 0.000228346,3.93701e-005 0.000488189,6.29921e-005 0.000779528,7.08661e-005 0.000291339,7.87402e-006 0.000590551,2.3622e-005 0.000897638,4.33071e-005 0.000307087,2.3622e-005 0.000606299,5.90551e-005 0.000897638,0.000114173 0.000291339,5.11811e-005 0.000551181,0.000137795 0.000779528,0.000255906 0.000228346,0.00011811 0.000413386,0.000283465 0.000551181,0.000492126 0.000141732,0.000208661 0.000212598,0.000480315 0.000212598,0.000811024 0,0.000307087 -7.87402e-005,0.000606299 -0.000232283,0.000897638 -0.000153543,0.000291339 -0.000377953,0.000547244 -0.000665354,0.000771654 -0.000291339,0.000224409 -0.000645669,0.000405512 -0.00106693,0.000543307 -0.000417323,0.000133858 -0.000893701,0.000200787 -0.00142126,0.000200787 -0.000527559,0 -0.000988189,-5.11811e-005 -0.00138189,-0.000153543 -0.000393701,-0.000106299 -0.000720472,-0.000244094 -0.000984252,-0.00042126 -0.000259843,-0.000177165 -0.000456693,-0.00038189 -0.000586614,-0.000610236 -0.000129921,-0.000232283 -0.00019685,-0.000472441 -0.00019685,-0.000720472 0,-0.000358268 0.000114173,-0.000661417 0.000334646,-0.000905512 0.000224409,-0.000248031 0.000531496,-0.000444882 0.00092126,-0.000590551 -0.000216535,-9.84252e-005 -0.00038189,-0.000224409 -0.000507874,-0.000385827 -0.000125984,-0.00015748 -0.000192913,-0.000370079 -0.000192913,-0.000641732 0,-0.000106299 1.9685e-005,-0.000212598 5.90551e-005,-0.000326772 3.54331e-005,-0.000110236 9.84252e-005,-0.000220472 0.000173228,-0.000334646 7.87402e-005,-0.000110236 0.000173228,-0.000216535 0.000287402,-0.000314961 0.000114173,-9.84252e-005 0.000248031,-0.000188976 0.000401575,-0.00026378 -0.000358268,-0.000200787 -0.000633858,-0.000464567 -0.000834646,-0.000795276 -0.000200787,-0.000330709 -0.000299213,-0.000712598 -0.000299213,-0.00114961 0,-0.000350394 7.08661e-005,-0.000673228 0.000204724,-0.00096063 0.000133858,-0.000287402 0.000322835,-0.000531496 0.000562992,-0.000732283 0.000244094,-0.000200787 0.000535433,-0.000354331 0.000870079,-0.000464567 0.000334646,-0.000110236 0.000700787,-0.000165354 0.00109843,-0.000165354 0.000314961,0 0.000606299,3.54331e-005 0.000874016,0.000102362 0.000271654,7.08661e-005 0.000519685,0.000173228 0.000744094,0.00030315l0.00195669 0z"/>
   <path id="_300298152123" class="fil15" d="M0.596717 0.0814921l0 0.00721654 -0.00126772 0 0 -0.00721654 0.00126772 0zm0.000271654 -0.00226378c0,0.000122047 -2.3622e-005,0.00023622 -7.48031e-005,0.00034252 -4.72441e-005,0.000106299 -0.000114173,0.000200787 -0.00019685,0.000283465 -8.26772e-005,8.66142e-005 -0.000181102,0.000149606 -0.000291339,0.00019685 -0.000114173,5.11811e-005 -0.000232283,7.48031e-005 -0.000354331,7.48031e-005 -0.000125984,0 -0.000240157,-2.3622e-005 -0.000346457,-7.48031e-005 -0.000106299,-4.72441e-005 -0.000200787,-0.000110236 -0.000283465,-0.00019685 -7.87402e-005,-8.26772e-005 -0.000141732,-0.000177165 -0.000188976,-0.000283465 -4.72441e-005,-0.000106299 -7.48031e-005,-0.000220472 -7.48031e-005,-0.00034252 0,-0.000125984 2.75591e-005,-0.000244094 7.48031e-005,-0.000354331 4.72441e-005,-0.000114173 0.000110236,-0.000208661 0.000188976,-0.000295276 8.26772e-005,-8.26772e-005 0.000177165,-0.000145669 0.000283465,-0.000192913 0.000106299,-4.72441e-005 0.000220472,-7.08661e-005 0.000346457,-7.08661e-005 0.000122047,0 0.000240157,2.3622e-005 0.000354331,7.08661e-005 0.000110236,4.72441e-005 0.000208661,0.000110236 0.000291339,0.000192913 8.26772e-005,8.66142e-005 0.000149606,0.000181102 0.00019685,0.000295276 5.11811e-005,0.000110236 7.48031e-005,0.000228346 7.48031e-005,0.000354331z"/>
   <path id="_3002981521234" class="fil15" d="M0.603004 0.0826811c-5.90551e-005,0.000106299 -0.000145669,0.00015748 -0.00026378,0.00015748 -7.08661e-005,0 -0.000153543,-2.75591e-005 -0.000244094,-7.87402e-005 -9.05512e-005,-5.11811e-005 -0.00019685,-0.000110236 -0.000330709,-0.000177165 -0.000129921,-6.29921e-005 -0.000287402,-0.000122047 -0.000464567,-0.000177165 -0.000181102,-5.51181e-005 -0.000397638,-7.87402e-005 -0.000641732,-7.87402e-005 -0.000216535,0 -0.000405512,2.3622e-005 -0.00057874,7.87402e-005 -0.000169291,5.51181e-005 -0.000314961,0.000129921 -0.000437008,0.000224409 -0.000122047,9.84252e-005 -0.000212598,0.000204724 -0.000275591,0.000330709 -6.69291e-005,0.000125984 -9.84252e-005,0.00026378 -9.84252e-005,0.000413386 0,0.000185039 5.51181e-005,0.000338583 0.000161417,0.00046063 0.000106299,0.000125984 0.000248031,0.000232283 0.00042126,0.000322835 0.000177165,9.05512e-005 0.000377953,0.000169291 0.000598425,0.00023622 0.000224409,7.08661e-005 0.000452756,0.000141732 0.000688976,0.000220472 0.00023622,7.87402e-005 0.000464567,0.000165354 0.000688976,0.000259843 0.000220472,9.84252e-005 0.00042126,0.000216535 0.000598425,0.000358268 0.000173228,0.000141732 0.000314961,0.000314961 0.00042126,0.000523622 0.000110236,0.000204724 0.000161417,0.000452756 0.000161417,0.000744094 0,0.000330709 -5.90551e-005,0.000637795 -0.000177165,0.00092126 -0.000122047,0.000283465 -0.000295276,0.000527559 -0.000527559,0.000732283 -0.000232283,0.000208661 -0.000519685,0.000374016 -0.000854331,0.000492126 -0.000338583,0.00011811 -0.000728346,0.000177165 -0.00116929,0.000177165 -0.000503937,0 -0.00096063,-8.26772e-005 -0.00137008,-0.000248031 -0.000405512,-0.000161417 -0.000751969,-0.000370079 -0.00103937,-0.000629921l0.000299213 -0.000484252c3.93701e-005,-5.90551e-005 8.26772e-005,-0.000106299 0.000137795,-0.000141732 5.11811e-005,-3.14961e-005 0.00011811,-5.11811e-005 0.00019685,-5.11811e-005 8.66142e-005,0 0.000177165,3.54331e-005 0.000271654,0.000102362 9.44882e-005,6.69291e-005 0.000212598,0.000137795 0.000346457,0.000220472 0.000133858,7.87402e-005 0.000299213,0.000153543 0.000496063,0.000220472 0.000192913,6.69291e-005 0.000437008,9.84252e-005 0.000724409,9.84252e-005 0.000248031,0 0.000464567,-3.14961e-005 0.000649606,-9.44882e-005 0.000185039,-6.69291e-005 0.000338583,-0.000149606 0.00046063,-0.000259843 0.000125984,-0.000110236 0.000216535,-0.00023622 0.000275591,-0.000377953 5.90551e-005,-0.000141732 9.05512e-005,-0.000295276 9.05512e-005,-0.000456693 0,-0.000200787 -5.51181e-005,-0.000366142 -0.000161417,-0.000496063 -0.000106299,-0.000129921 -0.000248031,-0.000240157 -0.000425197,-0.000334646 -0.000173228,-9.05512e-005 -0.000374016,-0.000173228 -0.000598425,-0.000240157 -0.000228346,-7.08661e-005 -0.000456693,-0.000141732 -0.000692913,-0.000216535 -0.00023622,-7.87402e-005 -0.000464567,-0.000165354 -0.000688976,-0.00026378 -0.000228346,-9.44882e-005 -0.000429134,-0.000216535 -0.000606299,-0.000366142 -0.000173228,-0.000145669 -0.000314961,-0.000326772 -0.00042126,-0.000543307 -0.000106299,-0.000216535 -0.000161417,-0.000480315 -0.000161417,-0.000787402 0,-0.000275591 5.90551e-005,-0.000543307 0.000173228,-0.000795276 0.000110236,-0.000255906 0.000279528,-0.000476378 0.000496063,-0.000669291 0.000220472,-0.000192913 0.000488189,-0.000346457 0.000807087,-0.00046063 0.000314961,-0.000110236 0.000681102,-0.000169291 0.00109055,-0.000169291 0.000472441,0 0.000901575,7.48031e-005 0.00127953,0.000224409 0.000377953,0.000149606 0.000700787,0.000354331 0.000976378,0.00061811l-0.000283465 0.00046063z"/>
   <path id="_30029815212345" class="fil15" d="M0.607185 0.0888228c-0.000570866,0 -0.00100787,-0.00015748 -0.00131496,-0.000476378 -0.00030315,-0.000318898 -0.00046063,-0.000779528 -0.00046063,-0.00137795l0 -0.00441339 -0.000866142 0c-7.87402e-005,0 -0.000141732,-2.3622e-005 -0.000192913,-7.08661e-005 -5.51181e-005,-4.33071e-005 -7.87402e-005,-0.000114173 -7.87402e-005,-0.000208661l0 -0.000503937 0.0011811 -0.000149606 0.000291339 -0.00223228c1.5748e-005,-7.08661e-005 4.72441e-005,-0.000129921 9.84252e-005,-0.000173228 5.11811e-005,-4.72441e-005 0.000114173,-6.69291e-005 0.00019685,-6.69291e-005l0.000637795 0 0 0.00248425 0.00209055 0 0 0.00092126 -0.00209055 0 0 0.00433071c0,0.00030315 7.48031e-005,0.000527559 0.000224409,0.000677165 0.000145669,0.000145669 0.000334646,0.000220472 0.000566929,0.000220472 0.000133858,0 0.000251969,-1.9685e-005 0.000346457,-5.51181e-005 9.84252e-005,-3.54331e-005 0.000181102,-7.48031e-005 0.000251969,-0.00011811 7.08661e-005,-4.33071e-005 0.000133858,-8.26772e-005 0.000185039,-0.00011811 4.72441e-005,-3.54331e-005 9.05512e-005,-5.11811e-005 0.000129921,-5.11811e-005 6.69291e-005,0 0.000125984,3.93701e-005 0.000177165,0.000122047l0.000370079 0.000602362c-0.000216535,0.000204724 -0.000480315,0.000366142 -0.000791339,0.000480315 -0.000307087,0.00011811 -0.000625984,0.000177165 -0.000952756,0.000177165z"/>
   <path id="_300298152123456" class="fil15" d="M0.614906 0.084315c0,-0.000295276 -3.93701e-005,-0.000566929 -0.000122047,-0.000811024 -8.26772e-005,-0.000244094 -0.000204724,-0.000456693 -0.000366142,-0.000633858 -0.00015748,-0.000177165 -0.000354331,-0.000314961 -0.00057874,-0.000413386 -0.000228346,-9.84252e-005 -0.000488189,-0.000145669 -0.000779528,-0.000145669 -0.000606299,0 -0.00108661,0.000177165 -0.00144094,0.000531496 -0.000354331,0.000350394 -0.000574803,0.00084252 -0.00065748,0.00147244l0.00394488 0zm0.00102756 0.00338189c-0.00015748,0.000188976 -0.000346457,0.000354331 -0.000562992,0.000496063 -0.000220472,0.000137795 -0.000452756,0.000255906 -0.000700787,0.000346457 -0.000251969,8.66142e-005 -0.000507874,0.000153543 -0.000775591,0.000200787 -0.000267717,4.33071e-005 -0.000527559,6.69291e-005 -0.000791339,6.69291e-005 -0.000496063,0 -0.000956693,-8.26772e-005 -0.00137795,-0.000251969 -0.000417323,-0.000169291 -0.000783465,-0.000417323 -0.00109055,-0.000740157 -0.00030315,-0.000326772 -0.000543307,-0.000728346 -0.000716535,-0.00120866 -0.000169291,-0.000480315 -0.000255906,-0.0010315 -0.000255906,-0.00165354 0,-0.0005 7.87402e-005,-0.000972441 0.000232283,-0.00140945 0.00015748,-0.000437008 0.000377953,-0.000814961 0.000665354,-0.0011378 0.000291339,-0.000318898 0.000645669,-0.000570866 0.00106299,-0.000755906 0.000417323,-0.000181102 0.000885827,-0.000271654 0.00140945,-0.000271654 0.000433071,0 0.000834646,7.08661e-005 0.00120079,0.000216535 0.000370079,0.000145669 0.000688976,0.000354331 0.000956693,0.000625984 0.000267717,0.000275591 0.000476378,0.000610236 0.000629921,0.00101181 0.000149606,0.000401575 0.000228346,0.000858268 0.000228346,0.00137402 0,0.00019685 -2.3622e-005,0.000330709 -6.69291e-005,0.000397638 -4.33071e-005,6.69291e-005 -0.000122047,9.84252e-005 -0.000240157,9.84252e-005l-0.00482283 0c1.1811e-005,0.000456693 7.87402e-005,0.000854331 0.000188976,0.00119291 0.000110236,0.000334646 0.00026378,0.000614173 0.000464567,0.00084252 0.000200787,0.000224409 0.000437008,0.000393701 0.000712598,0.000503937 0.000275591,0.000114173 0.000582677,0.000169291 0.000925197,0.000169291 0.000318898,0 0.000594488,-3.93701e-005 0.000826772,-0.000110236 0.000228346,-7.48031e-005 0.000425197,-0.000153543 0.000590551,-0.000240157 0.000169291,-8.26772e-005 0.000307087,-0.000165354 0.00042126,-0.000240157 0.000110236,-7.08661e-005 0.000204724,-0.000106299 0.000287402,-0.000106299 0.000102362,0 0.000185039,3.93701e-005 0.000240157,0.00011811l0.000358268 0.000464567z"/>
   <path id="_3002981521234567" class="fil15" d="M0.618803 0.082937c0.000228346,-0.000492126 0.000507874,-0.000877953 0.000838583,-0.00115748 0.000334646,-0.000279528 0.000740157,-0.000417323 0.00122047,-0.000417323 0.000149606,0 0.000299213,1.9685e-005 0.000437008,5.11811e-005 0.000141732,3.54331e-005 0.00026378,8.66142e-005 0.000374016,0.00015748l-9.05512e-005 0.000948819c-3.14961e-005,0.00011811 -0.000102362,0.000177165 -0.000216535,0.000177165 -6.69291e-005,0 -0.000161417,-1.5748e-005 -0.000291339,-4.33071e-005 -0.000125984,-2.75591e-005 -0.000271654,-4.33071e-005 -0.000433071,-4.33071e-005 -0.000228346,0 -0.000429134,3.54331e-005 -0.000610236,9.84252e-005 -0.000177165,6.69291e-005 -0.000334646,0.000165354 -0.000476378,0.000295276 -0.000137795,0.000129921 -0.00026378,0.000291339 -0.000377953,0.000484252 -0.000110236,0.000192913 -0.000212598,0.000413386 -0.00030315,0.000661417l0 0.00455906 -0.00127559 0 0 -0.00721654 0.000728346 0c0.000137795,0 0.000232283,2.75591e-005 0.000283465,7.87402e-005 5.11811e-005,5.11811e-005 8.66142e-005,0.000141732 0.000106299,0.000271654l8.66142e-005 0.00109449z"/>
  </g>
 </g>
</svg>
