<?xml version="1.0" encoding="UTF-8"?>
<!DOCTYPE svg PUBLIC "-//W3C//DTD SVG 1.1//EN" "http://www.w3.org/Graphics/SVG/1.1/DTD/svg11.dtd">
<!-- Creator: CorelDRAW -->
<svg xmlns="http://www.w3.org/2000/svg" xml:space="preserve" width="0.787402in" height="0.775591in" style="shape-rendering:geometricPrecision; text-rendering:geometricPrecision; image-rendering:optimizeQuality; fill-rule:evenodd; clip-rule:evenodd"
viewBox="0 0 0.787402 0.775591"
 xmlns:xlink="http://www.w3.org/1999/xlink">
 <defs>
  <style type="text/css">
   <![CDATA[
    .fil3 {fill:#0274A0}
    .fil2 {fill:#11B3F1}
    .fil10 {fill:#656D78}
    .fil5 {fill:#6ACCF2}
    .fil1 {fill:#C6CBCB}
    .fil9 {fill:#CCD1D9}
    .fil0 {fill:#E2E5E7}
    .fil8 {fill:#E6E9ED}
    .fil6 {fill:#EBC76C}
    .fil4 {fill:#FADC91}
    .fil7 {fill:#FFE5AB}
   ]]>
  </style>
 </defs>
 <g id="Layer_x0020_1">
  <metadata id="CorelCorpID_0Corel-Layer"/>
  <g id="_345380848">
   <path id="_345378304" class="fil0" d="M0.0346772 0.0464567c0.0245512,-0.0245748 0.064374,-0.0245748 0.0889252,0l0.46698 0.466961 -0.0889488 0.0889252 -0.466957 -0.466957c-0.0245787,-0.0245551 -0.0245787,-0.064378 0,-0.0889291z"/>
   <path id="_345379840" class="fil1" d="M0.0595945 0.093626c0.00614961,-0.00614961 0.0161024,-0.00614961 0.022252,0l0.476055 0.476059c0.00612598,0.00612598 0.00612598,0.0160748 0,0.0222244 -0.00308661,0.00306299 -0.00709449,0.0046063 -0.011126,0.0046063 -0.0040315,0 -0.00803937,-0.00154331 -0.011126,-0.0046063l-0.476055 -0.476055c-0.00612598,-0.00614961 -0.00612598,-0.0161024 0,-0.0222283z"/>
   <path id="_345379696" class="fil2" d="M0.484866 0.616004c0,0.133929 0.19748,0.144551 0.262799,0.144551 0.0652953,0 -0.0262795,-0.0792323 -0.0262795,-0.144551 0,-0.0653228 -0.0529528,-0.118248 -0.118272,-0.118248 -0.0653228,0 -0.118248,0.0529252 -0.118248,0.118248z"/>
   <path id="_345379816" class="fil3" d="M0.747665 0.760555c-0.0653189,0 -0.262799,-0.010622 -0.262799,-0.144551 0,-0.0181063 0.0040748,-0.0352638 0.0113346,-0.0506024 2.3622e-005,0 0.00997244,0.169539 0.274016,0.173547l0 0c0.00324409,0.0133583 -0.0015,0.0216063 -0.0225512,0.0216063z"/>
   <path id="_345379984" class="fil4" d="M0.743429 0.0445472c-0.0368543,-0.0368307 -0.0965748,-0.0368307 -0.133429,0l0 0 0 0 -0.593657 0.593681 0 0.133425 0.133402 0 0.593685 -0.593681c0.0368504,-0.0368543 0.0368504,-0.0965748 0,-0.133425z"/>
   <path id="_345380128" class="fil5" d="M0.721201 0.200197l0.0222283 -0.0222244c0.0368504,-0.0368543 0.0368504,-0.0965748 0,-0.133425 -0.0368543,-0.0368307 -0.0965748,-0.0368307 -0.133429,0l0 0 -0.0222244 0.022248 0.133425 0.133402z"/>
   <path id="_345381040" class="fil6" d="M0.643469 0.122488l-0.515858 0.515831 0 0c-0.00612598,0.00614961 -0.00612598,0.0161024 0,0.022252 0.00614961,0.00612598 0.0160984,0.00612598 0.022248,0l0.515835 -0.515858 -0.0222244 -0.0222244z"/>
   <polygon id="_345381016" class="fil7" points="0.0163425,0.638228 0.0163425,0.771654 0.149744,0.771654 "/>
   <polygon id="_345380728" class="fil8" points="0.632343,0.28924 0.498917,0.155839 0.587866,0.0668858 0.721295,0.200315 "/>
   <g>
    <path id="_345380320" class="fil9" d="M0.576764 0.122488l-0.022248 -0.022252c-2.3622e-005,-2.3622e-005 -7.08661e-005,-4.33071e-005 -9.05512e-005,-9.05512e-005l-0.0222244 0.0222244c2.3622e-005,4.72441e-005 4.33071e-005,7.08661e-005 9.05512e-005,0.00011811l0.0222244 0.0222244c0.00614961,0.00614961 0.0160984,0.00614961 0.022248,0 0.00612992,-0.00612598 0.00612992,-0.0160984 0,-0.0222244z"/>
    <path id="_345380344" class="fil9" d="M0.64326 0.233457l0.022248 0.022252c2.3622e-005,2.3622e-005 7.08661e-005,4.33071e-005 9.44882e-005,9.05512e-005l0.0222244 -0.0222283c-2.3622e-005,-4.33071e-005 -4.33071e-005,-6.69291e-005 -9.05512e-005,-0.000114173l-0.0222283 -0.0222244c-0.00614567,-0.00614961 -0.0160984,-0.00614961 -0.022248,0 -0.00612598,0.00612598 -0.00612598,0.0160984 0,0.0222244z"/>
   </g>
   <polygon id="_345380944" class="fil10" points="0.0163425,0.727177 0.0163425,0.771654 0.0608189,0.771654 "/>
  </g>
 </g>
</svg>
