<?xml version="1.0" encoding="UTF-8"?>
<!DOCTYPE svg PUBLIC "-//W3C//DTD SVG 1.1//EN" "http://www.w3.org/Graphics/SVG/1.1/DTD/svg11.dtd">
<!-- Creator: CorelDRAW -->
<svg xmlns="http://www.w3.org/2000/svg" xml:space="preserve" width="0.787402in" height="0.787402in" style="shape-rendering:geometricPrecision; text-rendering:geometricPrecision; image-rendering:optimizeQuality; fill-rule:evenodd; clip-rule:evenodd"
viewBox="0 0 0.787402 0.787402"
 xmlns:xlink="http://www.w3.org/1999/xlink">
 <defs>
  <style type="text/css">
   <![CDATA[
    .fil3 {fill:#0274A0}
    .fil2 {fill:#11B3F1}
    .fil1 {fill:#C6CBCB}
    .fil0 {fill:#E2E5E7}
   ]]>
  </style>
 </defs>
 <g id="Layer_x0020_1">
  <metadata id="CorelCorpID_0Corel-Layer"/>
  <g id="_277937664">
   <path id="_277937904" class="fil0" d="M0.761008 0.0568819c-0.025126,-0.0251457 -0.065874,-0.0251457 -0.0909961,0l-0.477728 0.477705 0.0909961 0.0909961 0.477728 -0.477728c0.025122,-0.025122 0.025122,-0.0658465 0,-0.0909724z"/>
   <path id="_277937688" class="fil1" d="M0.73548 0.105126c-0.00626378,-0.00626772 -0.0164488,-0.00626772 -0.0227402,0l-0.487024 0.487016c-0.00628346,0.00629134 -0.00628346,0.0164764 0,0.0227441 0.00314567,0.00315748 0.00725591,0.0047126 0.0113819,0.0047126 0.00411417,0 0.00822441,-0.00155512 0.011374,-0.0047126l0.487012 -0.487016c0.00629134,-0.00626772 0.00629134,-0.0164488 -3.93701e-006,-0.0227441z"/>
   <path id="_277937520" class="fil2" d="M0.300437 0.639539c0,0.137 -0.202028,0.147866 -0.268854,0.147866 -0.066815,0 0.0268937,-0.0810512 0.0268937,-0.147866 0,-0.0668189 0.0541575,-0.120976 0.120984,-0.120976 0.066815,0 0.120976,0.0541575 0.120976,0.120976z"/>
   <path id="_277937856" class="fil3" d="M0.0315827 0.787406c0.0668268,0 0.268854,-0.0108661 0.268854,-0.147866 0,-0.0185276 -0.00417323,-0.0360866 -0.0116181,-0.0517795 0,2.3622e-005 -0.0101693,0.173461 -0.280307,0.177559l0 0c-0.00332677,0.0136496 0.0015315,0.0220866 0.0230709,0.0220866z"/>
  </g>
 </g>
</svg>
