<?xml version="1.0" encoding="UTF-8"?>
<!DOCTYPE svg PUBLIC "-//W3C//DTD SVG 1.1//EN" "http://www.w3.org/Graphics/SVG/1.1/DTD/svg11.dtd">
<!-- Creator: CorelDRAW -->
<svg xmlns="http://www.w3.org/2000/svg" xml:space="preserve" width="0.787402in" height="0.787402in" style="shape-rendering:geometricPrecision; text-rendering:geometricPrecision; image-rendering:optimizeQuality; fill-rule:evenodd; clip-rule:evenodd"
viewBox="0 0 0.787402 0.787402"
 xmlns:xlink="http://www.w3.org/1999/xlink">
 <defs>
  <style type="text/css">
   <![CDATA[
    .fil6 {fill:#11B3F1}
    .fil4 {fill:#5B5D6E}
    .fil5 {fill:#8F96AC}
    .fil3 {fill:#9EDEF7}
    .fil0 {fill:#C7CFE2}
    .fil1 {fill:#D7DEED}
    .fil2 {fill:white}
   ]]>
  </style>
 </defs>
 <g id="Layer_x0020_1">
  <metadata id="CorelCorpID_0Corel-Layer"/>
  <g id="_277937688">
   <polygon id="_277932256" class="fil0" points="0.562366,0.239839 0.539811,0.225492 0.579445,0.163201 0.602,0.177547 "/>
   <path id="_277932136" class="fil1" d="M0.614799 0.193622l0.0071811 -0.0112835c0.00396457,-0.00622835 0.00212992,-0.0144882 -0.00409843,-0.0184567l-0.0327638 -0.0208583c-0.00622835,-0.00396457 -0.0144882,-0.00212992 -0.0184567,0.00409449l-0.0071811 0.0112835c-0.00396457,0.00622835 -0.00212992,0.0144882 0.00409843,0.0184567l0.0327638 0.0208583c0.00622835,0.00396457 0.0144882,0.00212992 0.0184567,-0.00409449z"/>
   <polygon id="_277932208" class="fil0" points="0.225039,0.239839 0.185402,0.177547 0.207961,0.163201 0.247594,0.225492 "/>
   <path id="_277932088" class="fil1" d="M0.393701 0.172579c-0.0442205,0 -0.0801929,-0.0359724 -0.0801929,-0.0801969 0,-0.0442244 0.0359724,-0.0801929 0.0801929,-0.0801929 0.0442244,0 0.0801969,0.0359724 0.0801969,0.0801929 0,0.0442244 -0.0359724,0.0801969 -0.0801969,0.0801969zm0 -0.133657c-0.0294843,0 -0.0534606,0.0239764 -0.0534606,0.0534606 0,0.0294843 0.0239803,0.0534646 0.0534606,0.0534646 0.0294843,0 0.0534646,-0.0239803 0.0534646,-0.0534646 0,-0.0294843 -0.0239764,-0.0534606 -0.0534646,-0.0534606z"/>
   <rect id="_275662392" class="fil0" x="0.380336" y="0.10575" width="0.0267301" height="0.0801943"/>
   <circle id="_275672544" class="fil1" cx="0.393703" cy="0.47999" r="0.307411"/>
   <path id="_275667216" class="fil1" d="M0.413752 0.119114l-0.0400984 0c-0.00738189,0 -0.0133661,-0.00598425 -0.0133661,-0.0133661l0 -0.0133661c0,-0.00738189 0.00598425,-0.0133661 0.0133661,-0.0133661l0.0400984 0c0.00737795,0 0.0133661,0.00598425 0.0133661,0.0133661l0 0.0133661c0,0.00738189 -0.00598819,0.0133661 -0.0133661,0.0133661z"/>
   <circle id="_275663568" class="fil0" cx="0.393703" cy="0.47999" r="0.28068"/>
   <circle id="_275671080" class="fil2" cx="0.393703" cy="0.47999" r="0.253949"/>
   <path id="_275673024" class="fil3" d="M0.535465 0.621752c0.0362835,-0.0362795 0.0587244,-0.0864016 0.0587244,-0.141764 0,-0.110724 -0.0897598,-0.200484 -0.200488,-0.200484l0 0.200484 0.141764 0.141764z"/>
   <path id="_275672616" class="fil1" d="M0.172606 0.193622l-0.0071811 -0.0112835c-0.00396457,-0.00622835 -0.00212992,-0.0144882 0.00409843,-0.0184567l0.0327638 -0.0208583c0.00622835,-0.00396457 0.0144882,-0.00212992 0.0184528,0.00409449l0.00718504 0.0112835c0.00396457,0.00622835 0.00212992,0.0144882 -0.00409843,0.0184567l-0.0327638 0.0208583c-0.00623228,0.00396457 -0.0144921,0.00212992 -0.0184567,-0.00409449z"/>
   <path id="_275672472" class="fil4" d="M0.393701 0.252772l0 0c-0.00737795,0 -0.0133661,0.00598425 -0.0133661,0.0133661l0 0.0267323c0,0.00738189 0.00598819,0.0133661 0.0133661,0.0133661l0 0c0.00738189,0 0.0133701,-0.00598425 0.0133701,-0.0133661l0 -0.0267323c0,-0.00738189 -0.00598819,-0.0133661 -0.0133701,-0.0133661z"/>
   <path id="_275672304" class="fil4" d="M0.393701 0.653744l0 0c-0.00737795,0 -0.0133661,0.00598425 -0.0133661,0.0133661l0 0.0267323c0,0.00738189 0.00598819,0.0133661 0.0133661,0.0133661l0 0c0.00738189,0 0.0133701,-0.00598425 0.0133701,-0.0133661l0 -0.0267323c0,-0.00738189 -0.00598819,-0.0133661 -0.0133701,-0.0133661z"/>
   <path id="_275671248" class="fil4" d="M0.620921 0.479992l0 0c0,-0.00738189 -0.00598425,-0.0133701 -0.0133661,-0.0133701l-0.0267323 3.93701e-006c-0.00738189,0 -0.0133661,0.00598425 -0.0133661,0.0133661l0 0c0,0.00737795 0.00598425,0.0133661 0.0133661,0.0133661l0.0267323 0c0.00738189,-3.93701e-006 0.0133661,-0.00598819 0.0133661,-0.0133661z"/>
   <path id="_275664864" class="fil4" d="M0.219949 0.479992l0 0c0,-0.00738189 -0.00598819,-0.0133701 -0.0133661,-0.0133701l-0.0267323 3.93701e-006c-0.00738189,0 -0.0133661,0.00598425 -0.0133661,0.0133661l0 0c0,0.00737795 0.00598425,0.0133661 0.0133661,0.0133661l0.0267323 0c0.00738189,-3.93701e-006 0.0133661,-0.00598819 0.0133661,-0.0133661z"/>
   <path id="_277982920" class="fil5" d="M0.280094 0.676768l0 0c0.0063937,0.00368898 0.0145669,0.0015 0.0182559,-0.0048937l0.0133661 -0.0231496c0.00369291,-0.0063937 0.0015,-0.0145669 -0.00488976,-0.0182559l0 0c-0.0063937,-0.00369291 -0.0145669,-0.00150394 -0.0182598,0.00488976l-0.0133661 0.0231496c-0.00368898,0.0063937 -0.0015,0.0145669 0.0048937,0.0182598z"/>
   <path id="_277665448" class="fil5" d="M0.480579 0.329512l0 0c0.0063937,0.00369291 0.0145669,0.0015 0.0182598,-0.00488976l0.0133661 -0.0231496c0.00369291,-0.0063937 0.0015,-0.0145669 -0.0048937,-0.0182559l0 0c-0.00638976,-0.00369291 -0.0145669,-0.00150394 -0.0182559,0.00488976l-0.0133661 0.0231496c-0.00369291,0.0063937 -0.0015,0.0145669 0.00488976,0.0182559z"/>
   <path id="_277928992" class="fil5" d="M0.196929 0.366382l0 0c-0.00369291,0.00638976 -0.00150394,0.0145669 0.00488976,0.0182559l0.0231496 0.0133661c0.0063937,0.00369291 0.0145669,0.0015 0.0182559,-0.00488976l0 0c0.00369291,-0.0063937 0.0015,-0.0145669 -0.00488976,-0.0182598l-0.0231496 -0.0133661c-0.0063937,-0.00368898 -0.0145669,-0.0015 -0.0182559,0.0048937z"/>
   <path id="_277937928" class="fil5" d="M0.544177 0.566866l0 0c-0.00368898,0.0063937 -0.0015,0.0145669 0.0048937,0.0182598l0.0231496 0.0133661c0.0063937,0.00369291 0.0145669,0.0015 0.0182559,-0.00488976l0 0c0.00369291,-0.0063937 0.0015,-0.0145669 -0.00488976,-0.0182598l-0.0231496 -0.0133661c-0.0063937,-0.00369291 -0.0145669,-0.0015 -0.0182598,0.00488976z"/>
   <path id="_277929112" class="fil5" d="M0.507311 0.676768l0 0c-0.0063937,0.00368898 -0.0145669,0.0015 -0.0182598,-0.0048937l-0.0133661 -0.0231496c-0.00368898,-0.0063937 -0.0015,-0.0145669 0.0048937,-0.0182559l0 0c0.00638976,-0.00369291 0.0145669,-0.00150394 0.0182559,0.00488976l0.0133661 0.0231496c0.00369291,0.0063937 0.00150394,0.0145669 -0.00488976,0.0182598z"/>
   <path id="_277929160" class="fil5" d="M0.306827 0.329512l0 0c-0.0063937,0.00369291 -0.0145669,0.0015 -0.0182598,-0.00488976l-0.0133661 -0.0231496c-0.00368898,-0.0063937 -0.0015,-0.0145669 0.0048937,-0.0182559l0 0c0.0063937,-0.00369291 0.0145669,-0.00150394 0.0182559,0.00488976l0.0133661 0.0231496c0.00368898,0.0063937 0.0015,0.0145669 -0.00488976,0.0182559z"/>
   <path id="_277928944" class="fil5" d="M0.590476 0.366382l0 0c0.00369291,0.00638976 0.00150394,0.0145669 -0.00488976,0.0182559l-0.0231496 0.0133661c-0.0063937,0.00369291 -0.0145669,0.0015 -0.0182598,-0.00488976l0 0c-0.00368898,-0.0063937 -0.0015,-0.0145669 0.0048937,-0.0182598l0.0231496 -0.0133661c0.00638976,-0.00368898 0.0145669,-0.0015 0.0182559,0.0048937z"/>
   <path id="_277928728" class="fil5" d="M0.243224 0.566866l0 0c0.00369291,0.0063937 0.00150394,0.0145669 -0.00488976,0.0182598l-0.0231496 0.0133661c-0.0063937,0.00369291 -0.0145669,0.0015 -0.0182559,-0.00488976l0 0c-0.00369291,-0.0063937 -0.0015,-0.0145669 0.00488976,-0.0182598l0.0231496 -0.0133661c0.0063937,-0.00369291 0.0145669,-0.0015 0.0182559,0.00488976z"/>
   <path id="_277937856" class="fil6" d="M0.540724 0.640378c-0.00342126,0 -0.00683858,-0.00130315 -0.00944882,-0.00391339l-0.173752 -0.173756c-0.00522047,-0.00522047 -0.00522047,-0.0136811 0,-0.0189016 0.00522047,-0.00522047 0.0136772,-0.00522047 0.0188976,0l0.173756 0.173756c0.00522047,0.00522047 0.00522047,0.0136772 0,0.0188976 -0.00261024,0.00261417 -0.0060315,0.00391732 -0.00945276,0.00391732z"/>
   <circle id="_277937520" class="fil0" cx="0.393703" cy="0.47999" r="0.0267312"/>
  </g>
 </g>
</svg>
