<?xml version="1.0" encoding="UTF-8"?>
<!DOCTYPE svg PUBLIC "-//W3C//DTD SVG 1.1//EN" "http://www.w3.org/Graphics/SVG/1.1/DTD/svg11.dtd">
<!-- Creator: CorelDRAW -->
<svg xmlns="http://www.w3.org/2000/svg" xml:space="preserve" width="0.787402in" height="0.629921in" style="shape-rendering:geometricPrecision; text-rendering:geometricPrecision; image-rendering:optimizeQuality; fill-rule:evenodd; clip-rule:evenodd"
viewBox="0 0 0.787402 0.629921"
 xmlns:xlink="http://www.w3.org/1999/xlink">
 <defs>
  <style type="text/css">
   <![CDATA[
    .fil4 {fill:#11B3F1}
    .fil2 {fill:#324A5E}
    .fil3 {fill:#EFF2FA}
    .fil0 {fill:#FF7058}
    .fil1 {fill:white}
   ]]>
  </style>
 </defs>
 <g id="Layer_x0020_1">
  <metadata id="CorelCorpID_0Corel-Layer"/>
  <g id="_345375712">
   <path id="_345381568" class="fil0" d="M0.0155512 0.164811l0 -0.0574055c0,-0.0407953 0.0329803,-0.0737756 0.0737756,-0.0737756l0.608992 0c0.0407953,0 0.0737717,0.0329803 0.0737717,0.0737756l0 0.0574055 -0.756539 0z"/>
   <circle id="_345381112" class="fil1" cx="0.67902" cy="0.103251" r="0.0246724"/>
   <circle id="_345381256" class="fil1" cx="0.586193" cy="0.103251" r="0.0246724"/>
   <circle id="_345381760" class="fil1" cx="0.493611" cy="0.103251" r="0.0246724"/>
   <polygon id="SVGCleanerId_0" class="fil2" points="0.125236,0.414709 0.125236,0.372205 0.275713,0.301362 0.275713,0.346799 0.176287,0.392724 0.275713,0.43987 0.275713,0.485795 "/>
   <polygon id="SVGCleanerId_1" class="fil2" points="0.436693,0.266185 0.480665,0.266185 0.350461,0.550287 0.306736,0.550287 "/>
   <polygon id="SVGCleanerId_2" class="fil2" points="0.662165,0.372205 0.662165,0.414709 0.511689,0.485551 0.511689,0.439626 0.61111,0.39248 0.511689,0.346555 0.511689,0.301118 "/>
   <path id="_345380392" class="fil3" d="M0.698319 0.033874l-0.609236 0c-0.0405512,0 -0.0735315,0.0329803 -0.0735315,0.0735315l0 0.448988c0,0.0405512 0.0329803,0.0735276 0.0735315,0.0735276l0.60948 0c0.0405512,0 0.0735276,-0.0329764 0.0735276,-0.0735276l0 -0.448988c-0.000244094,-0.0405512 -0.0329764,-0.0735315 -0.0737717,-0.0735315z"/>
   <path id="_345380848" class="fil4" d="M0.698319 0.033874l-0.609236 0c-0.0407953,0 -0.0737756,0.0329803 -0.0737756,0.0737756l0 0.0574055 0.756539 0 0 -0.0574055c0,-0.0407953 -0.0329764,-0.0737756 -0.0735276,-0.0737756z"/>
   <circle id="_345380944" class="fil1" cx="0.67902" cy="0.103251" r="0.0246724"/>
   <circle id="_345380992" class="fil1" cx="0.586193" cy="0.103251" r="0.0246724"/>
   <circle id="_345380344" class="fil1" cx="0.493611" cy="0.103251" r="0.0246724"/>
   <path id="_345380320" class="fil4" d="M0.18324 0.430555l0.118705 0.0552047c0.00307087,0.00141732 0.00633858,0.0021378 0.0097126,0.0021378 0.00440157,0 0.00868898,-0.00124803 0.0124173,-0.00361811 0.00667323,-0.00426772 0.0106614,-0.0115354 0.0106614,-0.0194449l0 -0.000606299c0,-0.00894488 -0.00524016,-0.0171535 -0.0133543,-0.0209213l-0.0742402 -0.0344961 0.0742402 -0.0345c0.00811417,-0.00377165 0.0133543,-0.0119803 0.0133543,-0.0209173l0 -0.000602362c0,-0.00792126 -0.00398819,-0.0151929 -0.0106614,-0.0194449 -0.00368898,-0.00235827 -0.00798819,-0.0036063 -0.0124291,-0.0036063 -0.00334646,0 -0.00670472,0.00073622 -0.00970866,0.00213386l-0.118701 0.0551969c-0.00810236,0.00376772 -0.0133386,0.0119843 -0.0133386,0.0209173l0 0.00164961c-3.93701e-006,0.00892126 0.00522835,0.0171339 0.0133425,0.0209173z"/>
   <path id="_345380728" class="fil4" d="M0.335795 0.542992c0.00432677,0.0059252 0.0112913,0.00946457 0.018626,0.00946457l0.000598425 0c0.0100709,0 0.0188937,-0.00644488 0.0219606,-0.0160276l0.0781969 -0.242291c0.00224409,-0.00699213 0.001,-0.0147087 -0.00333465,-0.0206457 -0.00433071,-0.00592913 -0.0112913,-0.0094685 -0.0186299,-0.0094685l-0.000594488 3.93701e-006c-0.0100748,0 -0.0189055,0.00644488 -0.0219764,0.0160236l-0.0782008 0.242311c-0.00222441,0.007 -0.000972441,0.0147087 0.00335433,0.0206299z"/>
   <path id="_345381016" class="fil4" d="M0.452898 0.35339c0,0.00892913 0.00523622,0.0171417 0.0133504,0.0209331l0.0742441 0.0344882 -0.0742441 0.0344921c-0.00811024,0.00377165 -0.0133504,0.0119843 -0.0133504,0.0209213l0 0.000606299c0,0.00791339 0.00398425,0.0151811 0.0106654,0.0194488 0.00371654,0.00236614 0.00800787,0.00361811 0.0124134,0.00361811 0.00337402,0 0.0066378,-0.000720472 0.00972835,-0.00214567l0.118697 -0.0552008c0.0081063,-0.00378346 0.0133425,-0.0119921 0.0133425,-0.0209173l0 -0.00164961c0,-0.00893307 -0.00523622,-0.0171457 -0.0133504,-0.0209173l-0.118697 -0.0551969c-0.00299606,-0.0013937 -0.00634646,-0.00212992 -0.00969685,-0.00212992 -0.00442913,0 -0.00873622,0.00124409 -0.0124252,0.00359843 -0.0066811,0.00425984 -0.0106693,0.0115315 -0.0106693,0.0194528l0 0.000598425 -7.87402e-006 0 0 0z"/>
   <path id="_345381040" class="fil0" d="M0.0155512 0.164811l0 -0.0574055c0,-0.0407953 0.0329803,-0.0737756 0.0737756,-0.0737756l0.608992 0c0.0407953,0 0.0737717,0.0329803 0.0737717,0.0737756l0 0.0574055 -0.756539 0z"/>
   <circle id="_345380128" class="fil1" cx="0.67902" cy="0.103251" r="0.0246724"/>
   <circle id="_345379984" class="fil1" cx="0.586193" cy="0.103251" r="0.0246724"/>
   <circle id="_345379816" class="fil1" cx="0.493611" cy="0.103251" r="0.0246724"/>
   <polygon id="SVGCleanerId_0_0" class="fil2" points="0.125236,0.414709 0.125236,0.372205 0.275713,0.301362 0.275713,0.346799 0.176287,0.392724 0.275713,0.43987 0.275713,0.485795 "/>
   <polygon id="SVGCleanerId_1_1" class="fil2" points="0.436693,0.266185 0.480665,0.266185 0.350461,0.550287 0.306736,0.550287 "/>
   <polygon id="SVGCleanerId_2_2" class="fil2" points="0.662165,0.372205 0.662165,0.414709 0.511689,0.485551 0.511689,0.439626 0.61111,0.39248 0.511689,0.346555 0.511689,0.301118 "/>
   <path id="_345377872" class="fil3" d="M0.698319 0.033874l-0.609236 0c-0.0405512,0 -0.0735315,0.0329803 -0.0735315,0.0735315l0 0.448988c0,0.0405512 0.0329803,0.0735276 0.0735315,0.0735276l0.60948 0c0.0405512,0 0.0735276,-0.0329764 0.0735276,-0.0735276l0 -0.448988c-0.000244094,-0.0405512 -0.0329764,-0.0735315 -0.0737717,-0.0735315z"/>
   <path id="_345376768" class="fil4" d="M0.698319 0.033874l-0.609236 0c-0.0407953,0 -0.0737756,0.0329803 -0.0737756,0.0737756l0 0.0574055 0.756539 0 0 -0.0574055c0,-0.0407953 -0.0329764,-0.0737756 -0.0735276,-0.0737756z"/>
   <circle id="_345376744" class="fil1" cx="0.67902" cy="0.103251" r="0.0246724"/>
   <circle id="_345377128" class="fil1" cx="0.586193" cy="0.103251" r="0.0246724"/>
   <circle id="_345377032" class="fil1" cx="0.493611" cy="0.103251" r="0.0246724"/>
   <path id="_345376720" class="fil4" d="M0.18324 0.430555l0.118705 0.0552047c0.00307087,0.00141732 0.00633858,0.0021378 0.0097126,0.0021378 0.00440157,0 0.00868898,-0.00124803 0.0124173,-0.00361811 0.00667323,-0.00426772 0.0106614,-0.0115354 0.0106614,-0.0194449l0 -0.000606299c0,-0.00894488 -0.00524016,-0.0171535 -0.0133543,-0.0209213l-0.0742402 -0.0344961 0.0742402 -0.0345c0.00811417,-0.00377165 0.0133543,-0.0119803 0.0133543,-0.0209173l0 -0.000602362c0,-0.00792126 -0.00398819,-0.0151929 -0.0106614,-0.0194449 -0.00368898,-0.00235827 -0.00798819,-0.0036063 -0.0124291,-0.0036063 -0.00334646,0 -0.00670472,0.00073622 -0.00970866,0.00213386l-0.118701 0.0551969c-0.00810236,0.00376772 -0.0133386,0.0119843 -0.0133386,0.0209173l0 0.00164961c-3.93701e-006,0.00892126 0.00522835,0.0171339 0.0133425,0.0209173z"/>
   <path id="_345376960" class="fil4" d="M0.335795 0.542992c0.00432677,0.0059252 0.0112913,0.00946457 0.018626,0.00946457l0.000598425 0c0.0100709,0 0.0188937,-0.00644488 0.0219606,-0.0160276l0.0781969 -0.242291c0.00224409,-0.00699213 0.001,-0.0147087 -0.00333465,-0.0206457 -0.00433071,-0.00592913 -0.0112913,-0.0094685 -0.0186299,-0.0094685l-0.000594488 3.93701e-006c-0.0100748,0 -0.0189055,0.00644488 -0.0219764,0.0160236l-0.0782008 0.242311c-0.00222441,0.007 -0.000972441,0.0147087 0.00335433,0.0206299z"/>
   <path id="_345376696" class="fil4" d="M0.452898 0.35339c0,0.00892913 0.00523622,0.0171417 0.0133504,0.0209331l0.0742441 0.0344882 -0.0742441 0.0344921c-0.00811024,0.00377165 -0.0133504,0.0119843 -0.0133504,0.0209213l0 0.000606299c0,0.00791339 0.00398425,0.0151811 0.0106654,0.0194488 0.00371654,0.00236614 0.00800787,0.00361811 0.0124134,0.00361811 0.00337402,0 0.0066378,-0.000720472 0.00972835,-0.00214567l0.118697 -0.0552008c0.0081063,-0.00378346 0.0133425,-0.0119921 0.0133425,-0.0209173l0 -0.00164961c0,-0.00893307 -0.00523622,-0.0171457 -0.0133504,-0.0209173l-0.118697 -0.0551969c-0.00299606,-0.0013937 -0.00634646,-0.00212992 -0.00969685,-0.00212992 -0.00442913,0 -0.00873622,0.00124409 -0.0124252,0.00359843 -0.0066811,0.00425984 -0.0106693,0.0115315 -0.0106693,0.0194528l0 0.000598425 -7.87402e-006 0 0 0z"/>
  </g>
 </g>
</svg>
