<?xml version="1.0" encoding="UTF-8"?>
<!DOCTYPE svg PUBLIC "-//W3C//DTD SVG 1.1//EN" "http://www.w3.org/Graphics/SVG/1.1/DTD/svg11.dtd">
<!-- Creator: CorelDRAW -->
<svg xmlns="http://www.w3.org/2000/svg" xml:space="preserve" width="0.787402in" height="0.787402in" style="shape-rendering:geometricPrecision; text-rendering:geometricPrecision; image-rendering:optimizeQuality; fill-rule:evenodd; clip-rule:evenodd"
viewBox="0 0 0.787402 0.787402"
 xmlns:xlink="http://www.w3.org/1999/xlink">
 <defs>
  <style type="text/css">
   <![CDATA[
    .fil3 {fill:#0274A0}
    .fil0 {fill:#11B3F1}
    .fil1 {fill:#E4EAF6}
    .fil2 {fill:#EFF2FA}
   ]]>
  </style>
 </defs>
 <g id="Layer_x0020_1">
  <metadata id="CorelCorpID_0Corel-Layer"/>
  <g id="_534426712">
   <path id="_534426832" class="fil0" d="M0.022252 0.612264l0.182835 0.0850236c0.00472835,0.00218898 0.00975984,0.00329921 0.0149606,0.00329921 0.00677559,0 0.0133819,-0.0019252 0.019122,-0.00557874 0.0102835,-0.00656693 0.0164213,-0.0177638 0.0164213,-0.0299488l0 -0.000933071c0,-0.0137717 -0.00807087,-0.0264213 -0.020563,-0.0322244l-0.11435 -0.0531299 0.11435 -0.0531378c0.0124921,-0.00580709 0.020563,-0.0184528 0.020563,-0.0322205l0 -0.00092126c0,-0.0122047 -0.00614173,-0.0234055 -0.0164213,-0.0299528 -0.0056811,-0.00362992 -0.0123031,-0.00555118 -0.0191417,-0.00555118 -0.00515748,0 -0.0103268,0.00113386 -0.0149528,0.00328346l-0.182823 0.0850157c-0.0124843,0.00580709 -0.0205512,0.0184567 -0.0205512,0.0322205l0 0.00253937c0,0.0137402 0.00805906,0.0263858 0.0205512,0.0322165z"/>
   <path id="_534426544" class="fil0" d="M0.531807 0.493413c0,0.013752 0.00806299,0.0264016 0.020563,0.0322362l0.11435 0.053122 -0.11435 0.053126c-0.0124921,0.00580709 -0.020563,0.0184567 -0.020563,0.0322205l0 0.000937008c0,0.012185 0.00613386,0.0233819 0.0164252,0.0299528 0.00572047,0.00364567 0.0123307,0.00557874 0.0191142,0.00557874 0.00519685,0 0.0102244,-0.00111024 0.0149843,-0.00331102l0.182823 -0.0850197c0.0124843,-0.00582283 0.0205472,-0.0184685 0.0205472,-0.0322165l0 -0.00253937c0,-0.0137598 -0.00806299,-0.0264134 -0.0205591,-0.0322205l-0.182823 -0.0850157c-0.00461024,-0.00214173 -0.00977559,-0.00327559 -0.0149331,-0.00327559 -0.00682283,0 -0.0134567,0.00191339 -0.0191378,0.00553937 -0.0102913,0.00655906 -0.0164331,0.0177598 -0.0164331,0.0299606l0 0.00092126 -7.87402e-006 0 0 3.93701e-006z"/>
   <g>
    <path id="_534426928" class="fil1" d="M0.52589 0.369787c-0.0143346,-0.00771654 -0.0322047,-0.00234646 -0.0399094,0.0119921l-0.146571 0.272492 0.0519055 0.0279173 0.146567 -0.2725c0.00770472,-0.0143307 0.00233858,-0.0321929 -0.0119921,-0.0399016z"/>
    <path id="_534426496" class="fil2" d="M0.521055 0.394311c-0.0035748,-0.00192126 -0.00804331,-0.00057874 -0.00997638,0.003l-0.149421 0.277795c-0.0019252,0.00359055 -0.000582677,0.00805512 0.003,0.00997638 0.00179528,0.000972441 0.00380315,0.00111024 0.00561417,0.000566929 0.00180315,-0.000543307 0.00340157,-0.00176772 0.00436614,-0.00356693l0.149413 -0.277795c0.00193307,-0.00357874 0.000594488,-0.00804331 -0.00299606,-0.00997638z"/>
    <path id="_534426592" class="fil0" d="M0.400681 0.686047c0.0180551,0.0600906 -0.069122,0.0914843 -0.0984331,0.100291 -0.0293031,0.00880709 0.00111417,-0.0390945 -0.00769291,-0.0684016 -0.00880709,-0.0293031 0.00780709,-0.0601969 0.0371181,-0.0690039 0.0293071,-0.00880709 0.0602008,0.00780709 0.0690079,0.0371142z"/>
    <path id="_534426736" class="fil3" d="M0.302248 0.786339c0.029311,-0.00880709 0.116488,-0.0402008 0.0984331,-0.100291 -0.00244094,-0.00812598 -0.00658661,-0.0152756 -0.0119213,-0.0211811 3.93701e-006,1.1811e-005 0.0184016,0.0774252 -0.0995394,0.114827l0 0c0.000338583,0.0064252 0.00357874,0.00948425 0.0130276,0.00664567z"/>
   </g>
  </g>
 </g>
</svg>
