<?xml version="1.0" encoding="UTF-8"?>
<!DOCTYPE svg PUBLIC "-//W3C//DTD SVG 1.1//EN" "http://www.w3.org/Graphics/SVG/1.1/DTD/svg11.dtd">
<!-- Creator: CorelDRAW -->
<svg xmlns="http://www.w3.org/2000/svg" xml:space="preserve" width="0.787402in" height="0.551181in" style="shape-rendering:geometricPrecision; text-rendering:geometricPrecision; image-rendering:optimizeQuality; fill-rule:evenodd; clip-rule:evenodd"
viewBox="0 0 0.787402 0.551181"
 xmlns:xlink="http://www.w3.org/1999/xlink">
 <defs>
  <style type="text/css">
   <![CDATA[
    .fil1 {fill:#FEFEFE}
    .fil2 {fill:#11B3F1}
    .fil3 {fill:#1A8DBA}
    .fil4 {fill:#E6B845}
    .fil0 {fill:#FFD05B}
   ]]>
  </style>
 </defs>
 <g id="Layer_x0020_1">
  <metadata id="CorelCorpID_0Corel-Layer"/>
  <g id="_345381736">
   <path id="_347742696" class="fil0" d="M0.363949 0.373846c0,-0.0797283 -0.0785394,-0.143988 -0.17552,-0.143988 -0.0969843,0 -0.175524,0.0642598 -0.175524,0.143988 0,0.0797323 0.0785394,0.14161 0.175524,0.14161 0.00833071,0 0.0166614,-0.000594488 0.0249882,-0.0017874 0.0362953,0.0285591 0.073185,0.0380787 0.0737795,0.0374843 -0.0130906,-0.0130906 -0.0208228,-0.0303425 -0.0255827,-0.0464094 0.060689,-0.0232047 0.102335,-0.0725866 0.102335,-0.130898z"/>
   <path id="_347743008" class="fil1" d="M0.221154 0.348858c-0.0130906,0 -0.0238031,0.0107087 -0.0238031,0.0237992 0,0.0130906 0.0107126,0.0237992 0.0238031,0.0237992 0.0130906,0 0.0237992,-0.0107087 0.0237992,-0.0237992 0,-0.0130906 -0.0107087,-0.0237992 -0.0237992,-0.0237992zm-0.0773504 0c-0.0130906,0 -0.0237992,0.0107087 -0.0237992,0.0237992 0,0.0130906 0.0107087,0.0237992 0.0237992,0.0237992 0.0130906,0 0.0237992,-0.0107087 0.0237992,-0.0237992 0,-0.0130906 -0.0107087,-0.0237992 -0.0237992,-0.0237992z"/>
   <path id="_347742816" class="fil2" d="M0.51865 0.426803c-0.0130906,0 -0.0261811,-0.000594488 -0.0386772,-0.00238189 -0.0511693,0.0380787 -0.101146,0.0505748 -0.101744,0.0493858 0.0172559,-0.0178504 0.028563,-0.0404606 0.0357008,-0.0630709 -0.089248,-0.0327244 -0.151126,-0.105909 -0.151126,-0.190992 0,-0.116024 0.114831,-0.210031 0.255846,-0.210031 0.141012,0 0.255846,0.0940079 0.255846,0.210031 0,0.116024 -0.114835,0.207059 -0.255846,0.207059z"/>
   <path id="_347743080" class="fil1" d="M0.51865 0.18226c-0.0196378,0 -0.0357008,0.0160669 -0.0357008,0.0357008 0,0.0196339 0.0160669,0.0356969 0.0357008,0.0356969 0.0196339,0 0.0356969,-0.016063 0.0356969,-0.0356969 0,-0.0196378 -0.016063,-0.0357008 -0.0356969,-0.0357008zm0.107098 0c-0.0196339,0 -0.0357008,0.0160669 -0.0357008,0.0357008 0,0.0196339 0.0160669,0.0356969 0.0357008,0.0356969 0.0196339,0 0.0357008,-0.016063 0.0357008,-0.0356969 0,-0.0196339 -0.0160669,-0.0357008 -0.0357008,-0.0357008zm-0.214197 0c-0.0196378,0 -0.0357008,0.0160669 -0.0357008,0.0357008 0,0.0196339 0.0160669,0.0356969 0.0357008,0.0356969 0.0196339,0 0.0356969,-0.016063 0.0356969,-0.0356969 0,-0.0196339 -0.016063,-0.0357008 -0.0356969,-0.0357008z"/>
   <path id="_347743104" class="fil3" d="M0.437134 0.398839c-0.0886535,-0.0327283 -0.150531,-0.105909 -0.150531,-0.190996 0,-0.0719921 0.0440276,-0.135063 0.111264,-0.173142 -0.0803228,0.0351063 -0.135063,0.10472 -0.135063,0.185043 0,0.0850827 0.061878,0.158268 0.150531,0.190992 -0.00714173,0.0220157 -0.0178504,0.044626 -0.0357008,0.0630709 0.000598425,0.000594488 0.0386772,-0.0273701 0.0595,-0.0749685z"/>
   <path id="_347742504" class="fil4" d="M0.0367047 0.373846c0,-0.0761575 0.0719961,-0.13863 0.163622,-0.14339l-0.0118976 -0.000598425c-0.0969843,0 -0.175524,0.0642598 -0.175524,0.143988 0,0.0797323 0.0785394,0.14161 0.175524,0.14161 0.00357087,0 0.0071378,0 0.0113031,-0.000594488 -0.0910315,-0.00535433 -0.163028,-0.0648543 -0.163028,-0.141016z"/>
  </g>
 </g>
</svg>
