<?xml version="1.0" encoding="UTF-8"?>
<!DOCTYPE svg PUBLIC "-//W3C//DTD SVG 1.1//EN" "http://www.w3.org/Graphics/SVG/1.1/DTD/svg11.dtd">
<!-- Creator: CorelDRAW -->
<svg xmlns="http://www.w3.org/2000/svg" xml:space="preserve" width="0.669291in" height="0.393701in" style="shape-rendering:geometricPrecision; text-rendering:geometricPrecision; image-rendering:optimizeQuality; fill-rule:evenodd; clip-rule:evenodd"
viewBox="0 0 0.669291 0.393701"
 xmlns:xlink="http://www.w3.org/1999/xlink">
 <defs>
  <style type="text/css">
   <![CDATA[
    .fil5 {fill:#11B3F1}
    .fil6 {fill:#B4E6FA}
    .fil11 {fill:#E64C3C}
    .fil8 {fill:#ECF0F1}
    .fil10 {fill:#F29C1F}
    .fil9 {fill:#FFD05B}
    .fil7 {fill:white}
    .fil2 {fill:url(#id10)}
    .fil3 {fill:url(#id11)}
    .fil1 {fill:url(#id12)}
    .fil4 {fill:url(#id13)}
    .fil0 {fill:url(#id14)}
   ]]>
  </style>
  <mask id="id0">
  <linearGradient id="id1" gradientUnits="userSpaceOnUse" x1="6.16741" y1="-6.00519" x2="7.30173" y2="-6.53703">
   <stop offset="0" style="stop-opacity:0.807843; stop-color:white"/>
   <stop offset="0.478431" style="stop-opacity:0.454902; stop-color:white"/>
   <stop offset="1" style="stop-opacity:0.101961; stop-color:white"/>
  </linearGradient>
   <rect style="fill:url(#id1)" x="6.21815" y="-6.64556" width="1.03283" height="0.748906"/>
  </mask>
  <mask id="id2">
  <linearGradient id="id3" gradientUnits="userSpaceOnUse" x1="5.25926" y1="-4.43633" x2="7.10004" y2="-5.29939">
   <stop offset="0" style="stop-opacity:0.807843; stop-color:white"/>
   <stop offset="0.478431" style="stop-opacity:0.454902; stop-color:white"/>
   <stop offset="1" style="stop-opacity:0.101961; stop-color:white"/>
  </linearGradient>
   <rect style="fill:url(#id3)" x="5.31667" y="-5.42217" width="1.72595" height="1.10861"/>
  </mask>
  <mask id="id4">
  <linearGradient id="id5" gradientUnits="userSpaceOnUse" x1="5.88554" y1="-5.17806" x2="7.31043" y2="-5.84612">
   <stop offset="0" style="stop-opacity:0.807843; stop-color:white"/>
   <stop offset="0.478431" style="stop-opacity:0.454902; stop-color:white"/>
   <stop offset="1" style="stop-opacity:0.101961; stop-color:white"/>
  </linearGradient>
   <rect style="fill:url(#id5)" x="5.89846" y="-5.874" width="1.39903" height="0.723823"/>
  </mask>
  <mask id="id6">
  <linearGradient id="id7" gradientUnits="userSpaceOnUse" x1="5.77996" y1="-5.3128" x2="7.31129" y2="-6.03076">
   <stop offset="0" style="stop-opacity:0.807843; stop-color:white"/>
   <stop offset="0.478431" style="stop-opacity:0.454902; stop-color:white"/>
   <stop offset="1" style="stop-opacity:0.101961; stop-color:white"/>
  </linearGradient>
   <rect style="fill:url(#id7)" x="5.78312" y="-6.0378" width="1.52502" height="0.732035"/>
  </mask>
  <mask id="id8">
  <linearGradient id="id9" gradientUnits="userSpaceOnUse" x1="5.88991" y1="-4.66074" x2="8.50239" y2="-5.88561">
   <stop offset="0" style="stop-opacity:0.807843; stop-color:white"/>
   <stop offset="0.478431" style="stop-opacity:0.454902; stop-color:white"/>
   <stop offset="1" style="stop-opacity:0.101961; stop-color:white"/>
  </linearGradient>
   <rect style="fill:url(#id9)" x="5.98802" y="-6.09518" width="2.41626" height="1.644"/>
  </mask>
  <linearGradient id="id10" gradientUnits="userSpaceOnUse" x1="5.88554" y1="-5.17806" x2="7.31043" y2="-5.84612">
   <stop offset="0" style="stop-color:white"/>
   <stop offset="1" style="stop-color:white"/>
  </linearGradient>
  <linearGradient id="id11" gradientUnits="userSpaceOnUse" xlink:href="#id10" x1="5.79528" y1="-5.31998" x2="7.29598" y2="-6.02358">
  </linearGradient>
  <linearGradient id="id12" gradientUnits="userSpaceOnUse" xlink:href="#id10" x1="5.29607" y1="-4.45359" x2="7.06323" y2="-5.28213">
  </linearGradient>
  <linearGradient id="id13" gradientUnits="userSpaceOnUse" xlink:href="#id10" x1="5.96828" y1="-4.69748" x2="8.42401" y2="-5.84886">
  </linearGradient>
  <linearGradient id="id14" gradientUnits="userSpaceOnUse" xlink:href="#id10" x1="6.21278" y1="-6.02647" x2="7.25635" y2="-6.51575">
  </linearGradient>
 </defs>
<symbol id="Fm17-133-0" viewBox="6.28027 -6.64546 0.908598 0.748709">
 <path class="fil0" style="mask:url(#id0)" d="M7.18887 -5.95875c0,0 -0.405902,0.1405 -0.690969,-0.00153937 -0.307543,-0.153252 -0.258768,-0.599028 -0.0420157,-0.676154 0.149083,-0.0530551 0.0989291,0.140445 0.0345,0.253181 -0.0832205,0.145654 -0.116,0.542583 0.698484,0.424512l0 0z"/>
</symbol>
<symbol id="Fm18-134-0" viewBox="5.36723 -5.42207 1.58447 1.00546">
 <path class="fil1" style="mask:url(#id2)" d="M6.34376 -4.94573c-0.177972,0.120709 -0.389803,0.186819 -0.602402,0.210862 -0.105516,0.0119409 -0.388555,0.00240157 -0.373543,0.172177 0.00496063,0.0562795 0.0724606,0.0902087 0.118169,0.107736 0.368291,0.141307 0.673886,-0.135528 0.910484,-0.381665 0.0672244,-0.0699567 0.130374,-0.143484 0.196098,-0.21478 0.116567,-0.126457 0.227276,-0.259441 0.359138,-0.370665 -0.197626,0.161961 -0.392071,0.328197 -0.602972,0.472933 -0.00165354,0.0011378 -0.0033189,0.00229134 -0.00497244,0.00340157l0 0z"/>
</symbol>
<symbol id="Fm16-132-0" viewBox="5.89856 -5.84689 1.39883 0.589933">
 <path class="fil2" style="mask:url(#id4)" d="M5.89856 -5.35944c0,0 0.272012,0.209165 0.642484,0.0298622 0.403406,-0.195224 0.581961,-0.362626 0.75635,-0.517307 0,0 -0.449654,0.35889 -0.849654,0.52178 -0.27328,0.111291 -0.549181,-0.0343346 -0.549181,-0.0343346z"/>
</symbol>
<symbol id="Fm15-131-0" viewBox="5.84078 -5.90802 1.46726 0.542575">
 <path class="fil3" style="mask:url(#id6)" d="M6.09826 -5.66662c-0.0705669,-0.0375433 -0.22311,-0.0402795 -0.249528,0.053126 -0.0655118,0.231803 0.29139,0.259539 0.428224,0.244803 0.139209,-0.015 0.647748,-0.194791 1.03108,-0.539319 -0.0747638,-0.000181102 -0.733043,0.495181 -1.20978,0.24139l0 0z"/>
</symbol>
<symbol id="Fm19-135-0" viewBox="6.12791 -5.96191 2.18263 1.51063">
 <path class="fil4" style="mask:url(#id8)" d="M6.12791 -4.45128c0,0 0.549043,-0.588484 0.987791,-1.04109 0.438752,-0.452614 0.772846,-0.541906 1.19483,-0.419862 0,0 -0.635209,-0.182846 -1.16567,0.434248 -0.646319,0.751945 -1.01696,1.02671 -1.01696,1.02671z"/>
</symbol>
 <g id="Layer_x0020_1">
  <metadata id="CorelCorpID_0Corel-Layer"/>
  <g id="_302363216">
   <g>
    <circle id="_282312800" class="fil5" cx="0.13716" cy="0.256701" r="0.108218"/>
    <path id="_282313064" class="fil6" d="M0.177236 0.301937c-0.0026378,0 -0.00487795,-0.00201575 -0.00512598,-0.00468504l-0.00364567 -0.0400827c-0.000133858,-0.00152362 0.000409449,-0.00302756 0.00149213,-0.00411024 0.00107874,-0.00108268 0.0026063,-0.00162992 0.00411024,-0.00149213l0.0400827 0.00364567c0.00283465,0.000255906 0.00492126,0.00275984 0.00466142,0.00560236 -0.000259843,0.00282677 -0.00268898,0.00491339 -0.00559843,0.00466142l-0.0339252 -0.00308661 0.00308661 0.0339252c0.000255906,0.00283858 -0.00183071,0.00534252 -0.00466535,0.00560236 -0.00015748,1.1811e-005 -0.000311024,1.9685e-005 -0.000472441,1.9685e-005z"/>
    <path id="_282312992" class="fil6" d="M0.140803 0.229059c-0.000153543,0 -0.000314961,-3.93701e-006 -0.000468504,-1.9685e-005l-0.0400827 -0.00364567c-0.00283465,-0.000255906 -0.00492126,-0.00275984 -0.00466142,-0.00559843 0.000259843,-0.00283071 0.00272835,-0.00492126 0.00559843,-0.00466535l0.0339252 0.00308661 -0.00308661 -0.0339252c-0.000259843,-0.00283858 0.00183071,-0.00534252 0.00466142,-0.00559843 0.00290157,-0.000255906 0.00534252,0.00183465 0.00560236,0.00466142l0.00364567 0.0400827c0.000133858,0.00152362 -0.000409449,0.0030315 -0.00149213,0.00411417 -0.000968504,0.000968504 -0.00227953,0.00150787 -0.00364173,0.00150787z"/>
    <path id="_282315656" class="fil7" d="M0.155118 0.322807l-0.0801614 -0.0801654c-0.0221417,0.0221378 -0.0221417,0.0580315 0,0.0801654 0.0221378,0.0221339 0.0580276,0.0221378 0.0801614,0z"/>
    <path id="_282313088" class="fil8" d="M0.13326 0.330098l-0.0072874 -0.0072874 0.0145748 -0.0145787c0.00200787,-0.00200787 0.00201181,-0.00527165 0,-0.0072874 -0.00201575,-0.00201181 -0.00527953,-0.00200787 -0.0072874,0l-0.0145748 0.0145748 -0.00729134 -0.0072874 0.0145748 -0.0145709c0.00200787,-0.00201181 0.00201181,-0.00527165 0,-0.0072874 -0.00201575,-0.00201575 -0.00527953,-0.00201181 -0.0072874,0l-0.0145748 0.0145709 -0.0072874 -0.00728346 0.0145748 -0.0145787c0.00200787,-0.00201181 0.00201575,-0.00527165 0,-0.0072874 -0.00201575,-0.00201575 -0.00527559,-0.00201181 -0.0072874,0l-0.0145709 0.0145748 -0.0072874 -0.0072874 0.0145709 -0.0145748c0.00201181,-0.00200787 0.00201575,-0.00527165 0,-0.0072874 -0.00201181,-0.00201575 -0.00527559,-0.00200787 -0.00728346,0l-0.0145748 0.0145748 -0.0072874 -0.0072874c-0.00201575,-0.00201575 -0.00527559,-0.00200787 -0.0072874,0 -0.00200787,0.00201181 -0.00201575,0.00527165 0,0.0072874l0.0072874 0.0072874 -0.0109291 0.0109291c-0.00201181,0.00200787 -0.00201575,0.00527165 0,0.0072874 0.00201575,0.00201575 0.00527559,0.00200787 0.0072874,0l0.0109291 -0.0109291 0.0072874 0.00728346 -0.0145787 0.0145787c-0.00201181,0.00201181 -0.00201575,0.00527165 0,0.0072874 0.00201575,0.00201575 0.00527559,0.00201181 0.0072874,0l0.0145709 -0.0145748 0.00729134 0.0072874 -0.0145709 0.0145748c-0.00201181,0.00200787 -0.00201575,0.00527165 0,0.0072874 0.00201575,0.00201575 0.00527559,0.00200787 0.0072874,0l0.0145709 -0.0145748 0.0072874 0.0072874 -0.0109291 0.0109291c-0.00201181,0.00201181 -0.00201575,0.00527165 0,0.0072874 0.00201575,0.00201575 0.00527559,0.00200787 0.0072874,0l0.0109291 -0.0109291 0.0072874 0.0072874c0.00201181,0.00201181 0.00527559,0.00200787 0.00728346,0 0.00201575,-0.00201181 0.00201575,-0.00527165 7.87402e-006,-0.00728346z"/>
    <path id="_282315824" class="fil6" d="M0.071311 0.326457c-0.0241102,-0.0241142 -0.0241102,-0.0633465 0,-0.0874567 0.00201181,-0.00201181 0.00527165,-0.00201575 0.0072874,0l0.0801654 0.0801614c0.00201181,0.00201575 0.00200787,0.00527953 0,0.0072874 -0.0241102,0.0241142 -0.0633386,0.0241181 -0.0874528,7.87402e-006zm0.00382283 -0.0763425c-0.0165512,0.0202205 -0.0154016,0.050189 0.00346457,0.0690551 0.0188661,0.0188661 0.0488307,0.0200157 0.0690551,0.00346063l-0.0725197 -0.0725157z"/>
   </g>
   <circle id="_209072088" class="fil9" cx="0.350599" cy="0.18985" r="0.175068"/>
   <path id="_302107432" class="fil10" d="M0.350598 0.314898c-0.0551614,0 -0.100039,-0.044874 -0.100039,-0.100035 0,-0.00461024 0.00373622,-0.00833858 0.00833858,-0.00833858 0.00460236,0 0.00833465,0.00372835 0.00833465,0.00833858 0,0.0459646 0.0373976,0.0833622 0.0833661,0.0833622 0.0459685,0 0.0833661,-0.0373976 0.0833661,-0.0833622 0,-0.00461024 0.00373622,-0.00833858 0.00833858,-0.00833858 0.00460236,0 0.00833465,0.00372835 0.00833465,0.00833858 0,0.0551614 -0.044874,0.100035 -0.100039,0.100035z"/>
   <path id="_302107768" class="fil11" d="M0.280114 0.104c0.00364961,-0.00835433 0.0119803,-0.014189 0.0216811,-0.014189 0.0130669,0 0.0224685,0.0107874 0.0236535,0.0236496 0,0 0.000641732,0.00319291 -0.000767717,0.00893701 -0.00190945,0.00783071 -0.00640945,0.0147835 -0.0124724,0.0200827l-0.0320945 0.0276535 -0.0315551 -0.0276417c-0.00605906,-0.00530315 -0.010563,-0.0122638 -0.0124724,-0.0200866 -0.00140551,-0.00574016 -0.00076378,-0.00893307 -0.00076378,-0.00893307 0.0011811,-0.012874 0.0105866,-0.0236614 0.0236496,-0.0236614 0.00969685,0 0.0174882,0.00583465 0.0211417,0.014189z"/>
   <path id="_302107720" class="fil11" d="M0.420543 0.104c0.00364961,-0.00835433 0.0119882,-0.014189 0.021685,-0.014189 0.013063,0 0.0224646,0.0107874 0.0236496,0.0236496 0,0 0.000641732,0.00319291 -0.000767717,0.00893701 -0.00190945,0.00783071 -0.00640945,0.0147835 -0.0124724,0.0200827l-0.0320945 0.0276535 -0.0315551 -0.0276535c-0.00605906,-0.00529921 -0.010563,-0.0122598 -0.0124685,-0.0200827 -0.00140945,-0.00574409 -0.000767717,-0.00893701 -0.000767717,-0.00893701 0.0011811,-0.0128622 0.0105945,-0.0236496 0.0236496,-0.0236496 0.00970472,0 0.0174921,0.00583465 0.0211417,0.014189z"/>
   <g>
    <circle id="_282312704" class="fil5" cx="0.540711" cy="0.26292" r="0.101998"/>
    <circle id="_302107840" class="fil6" cx="0.504283" cy="0.226492" r="0.0169996"/>
    <circle id="_302107672" class="fil6" cx="0.581995" cy="0.226492" r="0.0169996"/>
    <path id="_302107984" class="fil6" d="M0.594138 0.277492c0,0.0295039 -0.0239213,0.0534252 -0.0534252,0.0534252 -0.0295079,0 -0.0534291,-0.0239213 -0.0534291,-0.0534252l0.106854 0z"/>
   </g>
  </g>
 </g>
</svg>
