<?xml version="1.0" encoding="UTF-8"?>
<!DOCTYPE svg PUBLIC "-//W3C//DTD SVG 1.1//EN" "http://www.w3.org/Graphics/SVG/1.1/DTD/svg11.dtd">
<!-- Creator: CorelDRAW -->
<svg xmlns="http://www.w3.org/2000/svg" xml:space="preserve" width="0.787402in" height="0.787402in" style="shape-rendering:geometricPrecision; text-rendering:geometricPrecision; image-rendering:optimizeQuality; fill-rule:evenodd; clip-rule:evenodd"
viewBox="0 0 0.787402 0.787402"
 xmlns:xlink="http://www.w3.org/1999/xlink">
 <defs>
  <style type="text/css">
   <![CDATA[
    .fil4 {fill:#03A3E3}
    .fil3 {fill:#11B3F1}
    .fil6 {fill:#707487}
    .fil11 {fill:#AFB9D2}
    .fil9 {fill:#C7CFE2}
    .fil0 {fill:#D5DCEC}
    .fil2 {fill:#E4EAF6}
    .fil1 {fill:#EFF2FA}
    .fil10 {fill:#FAEBAA}
    .fil7 {fill:#FCE4A6}
    .fil5 {fill:#FFD05B}
    .fil8 {fill:white}
   ]]>
  </style>
 </defs>
 <g id="Layer_x0020_1">
  <metadata id="CorelCorpID_0Corel-Layer"/>
  <g id="_275672904">
   <path id="_275672880" class="fil0" d="M0.393705 0.573559c-0.0530157,0 -0.0986811,-0.0154724 -0.120287,-0.0378425l0 0.131398 0.240575 0 0 -0.131398c-0.0216063,0.0223701 -0.0672756,0.0378425 -0.120287,0.0378425z"/>
   <path id="_275672496" class="fil1" d="M0.69998 0.603957l-0.165382 -0.0389173c-0.0025,-0.000586614 -0.00479528,-0.00158268 -0.00694488,-0.00279528l-0.133949 0.0781378 -0.128728 -0.0819173c-0.00333071,0.0031378 -0.0074685,0.00547244 -0.0121654,0.00657874l-0.165386 0.0389134c-0.0241457,0.0056811 -0.0412165,0.0272283 -0.0412165,0.0520354l0 0.104677c0,0.0147638 0.0119685,0.0267323 0.0267323,0.0267323l0.641528 0c0.0147638,0 0.0267283,-0.0119685 0.0267283,-0.0267323l0 -0.104677c0,-0.0248071 -0.0170669,-0.0463543 -0.0412165,-0.0520354z"/>
   <g>
    <path id="_275672400" class="fil2" d="M0.144327 0.700661l-0.0866063 -0.0777992c-0.00725591,0.00918898 -0.0115118,0.020752 -0.0115118,0.0331339l0 0.104677c0,0.0147598 0.0119685,0.0267283 0.0267283,0.0267283l0.0935591 0 0 -0.0370276c0,-0.0189685 -0.00805906,-0.0370394 -0.0221693,-0.0497126z"/>
    <path id="_275672808" class="fil2" d="M0.643079 0.700661l0.0866063 -0.0777992c0.00725591,0.00918898 0.0115118,0.020752 0.0115118,0.0331339l0 0.104677c0,0.0147598 -0.0119646,0.0267283 -0.0267283,0.0267283l-0.0935551 0 0 -0.0370276c0,-0.0189685 0.00805906,-0.0370394 0.0221654,-0.0497126z"/>
   </g>
   <polygon id="_275672760" class="fil3" points="0.427118,0.787402 0.360291,0.787402 0.368646,0.667114 0.418764,0.667114 "/>
   <path id="_275672352" class="fil4" d="M0.427118 0.640382l-0.0668268 0 0 0.0251535c0,0.00825591 0.00668898,0.0149409 0.0149409,0.0149409l0.0369409 3.93701e-006c0.00825197,0 0.0149409,-0.00668898 0.0149409,-0.0149449l0 -0.0251535 3.93701e-006 0z"/>
   <path id="_275671872" class="fil2" d="M0.271539 0.530437l0.122165 0.109945c0,0 -0.0342165,0.0172717 -0.0764331,0.0520827 -0.00870866,0.0071811 -0.0218819,0.00427165 -0.0265551,-0.00600394l-0.0573937 -0.126272 0.0181575 -0.0272323c0.00451969,-0.00677953 0.0140039,-0.00797244 0.0200591,-0.00251969z"/>
   <path id="_275671776" class="fil2" d="M0.515866 0.530437l-0.122161 0.109945c0,0 0.0342126,0.0172717 0.0764331,0.0520827 0.00870866,0.0071811 0.0218819,0.00427165 0.0265512,-0.00600394l0.0573976 -0.126272 -0.0181575 -0.0272323c-0.00451969,-0.00677953 -0.0140039,-0.00797244 -0.020063,-0.00251969z"/>
   <path id="_275671656" class="fil5" d="M0.580815 0.199331c0,-0.11039 -0.0955984,-0.198457 -0.208524,-0.185917 -0.0839921,0.00932283 -0.152728,0.0762992 -0.163961,0.160055 -0.0107283,0.0799921 0.029189,0.151661 0.0921339,0.187902 0.0164213,0.00945276 0.0264134,0.0270551 0.0264134,0.0460079l0 0.00579921 0.133654 0 0 -0.00579921c0,-0.0189331 0.0099685,-0.0365433 0.026378,-0.0459843 0.0560906,-0.0322835 0.0939055,-0.0926929 0.0939055,-0.162063z"/>
   <path id="_275671992" class="fil6" d="M0.420433 0.520094l-0.0534606 0c-0.00505906,0 -0.00968898,-0.00285827 -0.0119528,-0.00738583l-0.00966929 -0.0193425 0.0967126 0 -0.00967323 0.0193425c-0.00226772,0.00452756 -0.0068937,0.00738583 -0.0119567,0.00738583z"/>
   <circle id="_275672136" class="fil7" cx="0.393704" cy="0.199333" r="0.147016"/>
   <path id="_275671920" class="fil8" d="M0.447165 0.239429l-0.106921 0c-0.00738583,0 -0.0133661,-0.00598425 -0.0133661,-0.0133661 0,-0.00738189 0.00597638,-0.0133661 0.0133661,-0.0133661l0.106921 0c0.00738583,0 0.0133661,0.00598425 0.0133661,0.0133661 0,0.00738189 -0.00598031,0.0133661 -0.0133661,0.0133661z"/>
   <path id="_275671560" class="fil9" d="M0.460126 0.229307c0.00180315,-0.00716929 -0.00255906,-0.0144252 -0.00972441,-0.0162126 -0.00717717,-0.00184646 -0.0144094,0.00256693 -0.0161969,0.00972441l-0.0267283 0.106921c-0.000275591,0.00106299 -0.000405512,0.00215354 -0.000405512,0.00324409l0 0.106921 -0.0267323 0 0 -0.106921c0,-0.00108661 -0.000129921,-0.0021811 -0.000401575,-0.00324409l-0.0267323 -0.106917c-0.0017874,-0.00715354 -0.00908661,-0.0115669 -0.0161969,-0.00972441 -0.00716535,0.0017874 -0.0115276,0.00904331 -0.00972441,0.0162087l0.0263228 0.105323 0 0.105276 -0.0066811 3.93701e-006c-0.00738189,0 -0.0133661,0.00598425 -0.0133661,0.0133661 0,0.00737795 0.00598425,0.0133622 0.0133661,0.0133622 -0.00738189,0 -0.0133661,0.00598819 -0.0133661,0.0133661 0,0.00738189 0.00598425,0.0133661 0.0133661,0.0133661l0.0935551 0c0.00738189,0 0.0133661,-0.00598425 0.0133661,-0.0133661 0,-0.00738189 -0.00598425,-0.0133661 -0.0133661,-0.0133661 0.00738189,0 0.0133661,-0.00598425 0.0133661,-0.0133661 0,-0.00737795 -0.00598425,-0.0133661 -0.0133661,-0.0133661l-0.0066811 3.93701e-006 0 -0.10528 0.0263268 -0.105323z"/>
   <path id="_275671968" class="fil10" d="M0.407071 0.413177l-0.0267323 0 0 -0.0801929c0,-0.00738189 0.00598425,-0.0133661 0.0133661,-0.0133661l0 0c0.00738189,0 0.0133661,0.00598425 0.0133661,0.0133661l0 0.0801929 0 0z"/>
   <path id="_275672064" class="fil11" d="M0.438906 0.439906l-0.0904016 0c-0.00506299,0 -0.00968898,-0.00285827 -0.0119528,-0.00738583l-0.00967323 -0.0193425 0.133654 0 -0.00967323 0.0193425c-0.00226378,0.00452756 -0.00688976,0.00738583 -0.0119528,0.00738583z"/>
   <path id="_275671680" class="fil2" d="M0.567453 0.760669l-0.0935591 0c-0.00737795,0 -0.0133622,0.00598425 -0.0133622,0.0133661l0 0.0133661 0.120283 0 0 -0.0133661c0,-0.00738189 -0.00598425,-0.0133661 -0.0133622,-0.0133661z"/>
  </g>
 </g>
</svg>
