<?xml version="1.0" encoding="UTF-8"?>
<!DOCTYPE svg PUBLIC "-//W3C//DTD SVG 1.1//EN" "http://www.w3.org/Graphics/SVG/1.1/DTD/svg11.dtd">
<!-- Creator: CorelDRAW -->
<svg xmlns="http://www.w3.org/2000/svg" xml:space="preserve" width="0.787402in" height="0.787402in" style="shape-rendering:geometricPrecision; text-rendering:geometricPrecision; image-rendering:optimizeQuality; fill-rule:evenodd; clip-rule:evenodd"
viewBox="0 0 0.787402 0.787402"
 xmlns:xlink="http://www.w3.org/1999/xlink">
 <defs>
  <style type="text/css">
   <![CDATA[
    .str2 {stroke:#BDBFC1;stroke-width:0.003}
    .str0 {stroke:#E6E7E8;stroke-width:0.003}
    .str1 {stroke:#9EDEF7;stroke-width:0.003}
    .fil6 {fill:none}
    .fil30 {fill:#E6E7E8}
    .fil31 {fill:#9EDEF7}
    .fil32 {fill:#FEFEFE;fill-rule:nonzero}
    .fil2 {fill:url(#id38)}
    .fil15 {fill:url(#id39)}
    .fil3 {fill:url(#id40)}
    .fil13 {fill:url(#id41)}
    .fil11 {fill:url(#id42)}
    .fil1 {fill:url(#id43)}
    .fil4 {fill:url(#id44)}
    .fil18 {fill:url(#id45)}
    .fil17 {fill:url(#id46)}
    .fil0 {fill:url(#id47)}
    .fil14 {fill:url(#id48)}
    .fil16 {fill:url(#id49)}
    .fil22 {fill:url(#id50)}
    .fil7 {fill:url(#id51)}
    .fil9 {fill:url(#id52)}
    .fil8 {fill:url(#id53)}
    .fil10 {fill:url(#id54)}
    .fil12 {fill:url(#id55)}
    .fil28 {fill:url(#id56);fill-opacity:0.301961}
    .fil20 {fill:url(#id57);fill-opacity:0.301961}
    .fil24 {fill:url(#id58);fill-opacity:0.301961}
    .fil5 {fill:url(#id59);fill-opacity:0.301961}
    .fil29 {fill:url(#id60);fill-opacity:0.600000}
    .fil21 {fill:url(#id61);fill-opacity:0.600000}
    .fil25 {fill:url(#id62);fill-opacity:0.600000}
    .fil27 {fill:url(#id63);fill-opacity:0.698039}
    .fil19 {fill:url(#id64);fill-opacity:0.698039}
    .fil23 {fill:url(#id65);fill-opacity:0.698039}
    .fil26 {fill:url(#id66);fill-opacity:0.698039}
   ]]>
  </style>
  <mask id="id0">
  <linearGradient id="id1" gradientUnits="userSpaceOnUse" x1="6.22646" y1="-5.80834" x2="7.36078" y2="-6.34018">
   <stop offset="0" style="stop-opacity:0.807843; stop-color:white"/>
   <stop offset="0.478431" style="stop-opacity:0.454902; stop-color:white"/>
   <stop offset="1" style="stop-opacity:0.101961; stop-color:white"/>
  </linearGradient>
   <rect style="fill:url(#id1)" x="6.2772" y="-6.44871" width="1.03283" height="0.748906"/>
  </mask>
  <mask id="id2">
  <linearGradient id="id3" gradientUnits="userSpaceOnUse" x1="5.31831" y1="-4.23948" x2="7.1591" y2="-5.10254">
   <stop offset="0" style="stop-opacity:0.807843; stop-color:white"/>
   <stop offset="0.478431" style="stop-opacity:0.454902; stop-color:white"/>
   <stop offset="1" style="stop-opacity:0.101961; stop-color:white"/>
  </linearGradient>
   <rect style="fill:url(#id3)" x="5.37573" y="-5.22531" width="1.72595" height="1.10861"/>
  </mask>
  <mask id="id4">
  <linearGradient id="id5" gradientUnits="userSpaceOnUse" x1="5.94459" y1="-4.9812" x2="7.36948" y2="-5.64927">
   <stop offset="0" style="stop-opacity:0.807843; stop-color:white"/>
   <stop offset="0.478431" style="stop-opacity:0.454902; stop-color:white"/>
   <stop offset="1" style="stop-opacity:0.101961; stop-color:white"/>
  </linearGradient>
   <rect style="fill:url(#id5)" x="5.95752" y="-5.67715" width="1.39903" height="0.723823"/>
  </mask>
  <mask id="id6">
  <linearGradient id="id7" gradientUnits="userSpaceOnUse" x1="5.83902" y1="-5.11594" x2="7.37034" y2="-5.83391">
   <stop offset="0" style="stop-opacity:0.807843; stop-color:white"/>
   <stop offset="0.478431" style="stop-opacity:0.454902; stop-color:white"/>
   <stop offset="1" style="stop-opacity:0.101961; stop-color:white"/>
  </linearGradient>
   <rect style="fill:url(#id7)" x="5.84217" y="-5.84095" width="1.52502" height="0.732035"/>
  </mask>
  <mask id="id8">
  <linearGradient id="id9" gradientUnits="userSpaceOnUse" x1="5.94896" y1="-4.46389" x2="8.56144" y2="-5.68876">
   <stop offset="0" style="stop-opacity:0.807843; stop-color:white"/>
   <stop offset="0.478431" style="stop-opacity:0.454902; stop-color:white"/>
   <stop offset="1" style="stop-opacity:0.101961; stop-color:white"/>
  </linearGradient>
   <rect style="fill:url(#id9)" x="6.04707" y="-5.89833" width="2.41626" height="1.644"/>
  </mask>
      <mask id="id10">
  <linearGradient id="id11" gradientUnits="userSpaceOnUse" x1="0.492843" y1="0.551654" x2="0.42278" y2="0.584504">
   <stop offset="0" style="stop-opacity:0.807843; stop-color:white"/>
   <stop offset="0.478431" style="stop-opacity:0.454902; stop-color:white"/>
   <stop offset="1" style="stop-opacity:0.101961; stop-color:white"/>
  </linearGradient>
       <rect style="fill:url(#id11)" x="0.422398" y="0.552165" width="0.0708307" height="0.0318268"/>
      </mask>
      <mask id="id12">
  <linearGradient id="id13" gradientUnits="userSpaceOnUse" x1="0.481181" y1="0.571213" x2="0.403811" y2="0.607488">
   <stop offset="0" style="stop-opacity:0.807843; stop-color:white"/>
   <stop offset="0.478431" style="stop-opacity:0.454902; stop-color:white"/>
   <stop offset="1" style="stop-opacity:0.101961; stop-color:white"/>
  </linearGradient>
       <rect style="fill:url(#id13)" x="0.403055" y="0.572516" width="0.0788819" height="0.0336693"/>
      </mask>
      <mask id="id14">
  <linearGradient id="id15" gradientUnits="userSpaceOnUse" x1="0.528291" y1="0.589969" x2="0.48737" y2="0.609157">
   <stop offset="0" style="stop-opacity:0.807843; stop-color:white"/>
   <stop offset="0.478431" style="stop-opacity:0.454902; stop-color:white"/>
   <stop offset="1" style="stop-opacity:0.101961; stop-color:white"/>
  </linearGradient>
       <rect style="fill:url(#id15)" x="0.488126" y="0.588051" width="0.0394134" height="0.0230236"/>
      </mask>
      <mask id="id16">
  <linearGradient id="id17" gradientUnits="userSpaceOnUse" x1="0.52565" y1="0.618217" x2="0.499335" y2="0.630555">
   <stop offset="0" style="stop-opacity:0.807843; stop-color:white"/>
   <stop offset="0.478431" style="stop-opacity:0.454902; stop-color:white"/>
   <stop offset="1" style="stop-opacity:0.101961; stop-color:white"/>
  </linearGradient>
       <rect style="fill:url(#id17)" x="0.500811" y="0.61476" width="0.0233622" height="0.0192559"/>
      </mask>
      <mask id="id18">
  <linearGradient id="id19" gradientUnits="userSpaceOnUse" x1="0.521543" y1="0.625354" x2="0.492976" y2="0.638748">
   <stop offset="0" style="stop-opacity:0.807843; stop-color:white"/>
   <stop offset="0.478431" style="stop-opacity:0.454902; stop-color:white"/>
   <stop offset="1" style="stop-opacity:0.101961; stop-color:white"/>
  </linearGradient>
       <rect style="fill:url(#id19)" x="0.494657" y="0.621469" width="0.0252087" height="0.0211693"/>
      </mask>
      <mask id="id20">
  <linearGradient id="id21" gradientUnits="userSpaceOnUse" x1="0.519098" y1="0.671098" x2="0.442169" y2="0.707161">
   <stop offset="0" style="stop-opacity:0.807843; stop-color:white"/>
   <stop offset="0.478431" style="stop-opacity:0.454902; stop-color:white"/>
   <stop offset="1" style="stop-opacity:0.101961; stop-color:white"/>
  </linearGradient>
       <rect style="fill:url(#id21)" x="0.441823" y="0.671531" width="0.077626" height="0.0351969"/>
      </mask>
      <mask id="id22">
  <linearGradient id="id23" gradientUnits="userSpaceOnUse" x1="0.350276" y1="0.559697" x2="0.296921" y2="0.584713">
   <stop offset="0" style="stop-opacity:0.807843; stop-color:white"/>
   <stop offset="0.478431" style="stop-opacity:0.454902; stop-color:white"/>
   <stop offset="1" style="stop-opacity:0.101961; stop-color:white"/>
  </linearGradient>
       <rect style="fill:url(#id23)" x="0.30035" y="0.552075" width="0.0464961" height="0.0402598"/>
      </mask>
     <mask id="id24">
  <linearGradient id="id25" gradientUnits="userSpaceOnUse" x1="0.700031" y1="0.152846" x2="0.630701" y2="0.18535">
   <stop offset="0" style="stop-opacity:0.807843; stop-color:white"/>
   <stop offset="0.478431" style="stop-opacity:0.454902; stop-color:white"/>
   <stop offset="1" style="stop-opacity:0.101961; stop-color:white"/>
  </linearGradient>
      <rect style="fill:url(#id25)" x="0.628555" y="0.15272" width="0.073622" height="0.0327559"/>
     </mask>
     <mask id="id26">
  <linearGradient id="id27" gradientUnits="userSpaceOnUse" x1="0.687772" y1="0.17424" x2="0.612323" y2="0.209618">
   <stop offset="0" style="stop-opacity:0.807843; stop-color:white"/>
   <stop offset="0.478431" style="stop-opacity:0.454902; stop-color:white"/>
   <stop offset="1" style="stop-opacity:0.101961; stop-color:white"/>
  </linearGradient>
      <rect style="fill:url(#id27)" x="0.609209" y="0.176185" width="0.0816811" height="0.0314843"/>
     </mask>
     <mask id="id28">
  <linearGradient id="id29" gradientUnits="userSpaceOnUse" x1="0.735846" y1="0.190059" x2="0.694917" y2="0.209248">
   <stop offset="0" style="stop-opacity:0.807843; stop-color:white"/>
   <stop offset="0.478431" style="stop-opacity:0.454902; stop-color:white"/>
   <stop offset="1" style="stop-opacity:0.101961; stop-color:white"/>
  </linearGradient>
      <rect style="fill:url(#id29)" x="0.694272" y="0.186736" width="0.0422244" height="0.0258307"/>
     </mask>
     <mask id="id30">
  <linearGradient id="id31" gradientUnits="userSpaceOnUse" x1="0.733299" y1="0.218504" x2="0.707795" y2="0.230457">
   <stop offset="0" style="stop-opacity:0.807843; stop-color:white"/>
   <stop offset="0.478431" style="stop-opacity:0.454902; stop-color:white"/>
   <stop offset="1" style="stop-opacity:0.101961; stop-color:white"/>
  </linearGradient>
      <rect style="fill:url(#id31)" x="0.707961" y="0.213453" width="0.0251732" height="0.0220512"/>
     </mask>
     <mask id="id32">
  <linearGradient id="id33" gradientUnits="userSpaceOnUse" x1="0.728063" y1="0.225665" x2="0.700433" y2="0.238618">
   <stop offset="0" style="stop-opacity:0.807843; stop-color:white"/>
   <stop offset="0.478431" style="stop-opacity:0.454902; stop-color:white"/>
   <stop offset="1" style="stop-opacity:0.101961; stop-color:white"/>
  </linearGradient>
      <rect style="fill:url(#id33)" x="0.700815" y="0.220154" width="0.0268701" height="0.0239724"/>
     </mask>
     <mask id="id34">
  <linearGradient id="id35" gradientUnits="userSpaceOnUse" x1="0.725988" y1="0.269787" x2="0.650382" y2="0.305236">
   <stop offset="0" style="stop-opacity:0.807843; stop-color:white"/>
   <stop offset="0.478431" style="stop-opacity:0.454902; stop-color:white"/>
   <stop offset="1" style="stop-opacity:0.101961; stop-color:white"/>
  </linearGradient>
      <rect style="fill:url(#id35)" x="0.647976" y="0.270217" width="0.0804213" height="0.0345906"/>
     </mask>
     <mask id="id36">
  <linearGradient id="id37" gradientUnits="userSpaceOnUse" x1="0.554311" y1="0.161437" x2="0.507996" y2="0.183154">
   <stop offset="0" style="stop-opacity:0.807843; stop-color:white"/>
   <stop offset="0.478431" style="stop-opacity:0.454902; stop-color:white"/>
   <stop offset="1" style="stop-opacity:0.101961; stop-color:white"/>
  </linearGradient>
      <rect style="fill:url(#id37)" x="0.510799" y="0.150768" width="0.0407087" height="0.0430551"/>
     </mask>
  <linearGradient id="id38" gradientUnits="userSpaceOnUse" x1="5.94459" y1="-4.9812" x2="7.36948" y2="-5.64927">
   <stop offset="0" style="stop-color:white"/>
   <stop offset="1" style="stop-color:white"/>
  </linearGradient>
  <linearGradient id="id39" gradientUnits="userSpaceOnUse" xlink:href="#id38" x1="0.528291" y1="0.609157" x2="0.48737" y2="0.589969">
  </linearGradient>
  <linearGradient id="id40" gradientUnits="userSpaceOnUse" xlink:href="#id38" x1="5.85433" y1="-5.12313" x2="7.35503" y2="-5.82673">
  </linearGradient>
  <linearGradient id="id41" gradientUnits="userSpaceOnUse" xlink:href="#id38" x1="0.492142" y1="0.584173" x2="0.42348" y2="0.551984">
  </linearGradient>
  <linearGradient id="id42" gradientUnits="userSpaceOnUse" x1="0.489969" y1="0.608524" x2="0.524008" y2="0.646118">
   <stop offset="0" style="stop-color:#2BDBFA"/>
   <stop offset="0.760784" style="stop-color:#18AADE"/>
   <stop offset="1" style="stop-color:#0579C3"/>
   <stop offset="1" style="stop-color:#001CBB"/>
  </linearGradient>
  <linearGradient id="id43" gradientUnits="userSpaceOnUse" xlink:href="#id38" x1="5.35513" y1="-4.25674" x2="7.12228" y2="-5.08528">
  </linearGradient>
  <linearGradient id="id44" gradientUnits="userSpaceOnUse" xlink:href="#id38" x1="6.02733" y1="-4.50063" x2="8.48307" y2="-5.65201">
  </linearGradient>
  <linearGradient id="id45" gradientUnits="userSpaceOnUse" xlink:href="#id38" x1="0.516791" y1="0.706083" x2="0.444476" y2="0.672177">
  </linearGradient>
  <linearGradient id="id46" gradientUnits="userSpaceOnUse" xlink:href="#id38" x1="0.520685" y1="0.638346" x2="0.493835" y2="0.625756">
  </linearGradient>
  <linearGradient id="id47" gradientUnits="userSpaceOnUse" xlink:href="#id38" x1="6.27183" y1="-5.82962" x2="7.31541" y2="-6.3189">
  </linearGradient>
  <linearGradient id="id48" gradientUnits="userSpaceOnUse" xlink:href="#id38" x1="0.478087" y1="0.606035" x2="0.406906" y2="0.572665">
  </linearGradient>
  <linearGradient id="id49" gradientUnits="userSpaceOnUse" xlink:href="#id38" x1="0.524075" y1="0.629815" x2="0.500909" y2="0.618957">
  </linearGradient>
  <linearGradient id="id50" gradientUnits="userSpaceOnUse" xlink:href="#id38" x1="0.347075" y1="0.583213" x2="0.300122" y2="0.561197">
  </linearGradient>
  <linearGradient id="id51" gradientUnits="userSpaceOnUse" xlink:href="#id42" x1="0.299043" y1="0.52326" x2="0.334406" y2="0.626161">
  </linearGradient>
  <linearGradient id="id52" gradientUnits="userSpaceOnUse" xlink:href="#id42" x1="0.437748" y1="0.548382" x2="0.457618" y2="0.606197">
  </linearGradient>
  <linearGradient id="id53" gradientUnits="userSpaceOnUse" xlink:href="#id42" x1="0.325626" y1="0.574579" x2="0.362728" y2="0.682551">
  </linearGradient>
  <linearGradient id="id54" gradientUnits="userSpaceOnUse" xlink:href="#id42" x1="0.495728" y1="0.587524" x2="0.507154" y2="0.620768">
  </linearGradient>
  <linearGradient id="id55" gradientUnits="userSpaceOnUse" xlink:href="#id42" x1="0.466961" y1="0.674185" x2="0.485535" y2="0.728248">
  </linearGradient>
  <linearGradient id="id56" gradientUnits="userSpaceOnUse" xlink:href="#id38" x1="2.42558" y1="0.0940315" x2="0.0102913" y2="-1.03838">
  </linearGradient>
  <linearGradient id="id57" gradientUnits="userSpaceOnUse" xlink:href="#id38" x1="2.51988" y1="0.292823" x2="0.109567" y2="-0.837256">
  </linearGradient>
  <linearGradient id="id58" gradientUnits="userSpaceOnUse" xlink:href="#id38" x1="2.46173" y1="0.0169449" x2="0.375264" y2="-0.961291">
  </linearGradient>
  <linearGradient id="id59" gradientUnits="userSpaceOnUse" xlink:href="#id38" x1="2.60552" y1="0.0635945" x2="0.350531" y2="-0.993657">
  </linearGradient>
  <linearGradient id="id60" gradientUnits="userSpaceOnUse" xlink:href="#id38" x1="0.192039" y1="0.188232" x2="0.0935669" y2="0.142067">
  </linearGradient>
  <linearGradient id="id61" gradientUnits="userSpaceOnUse" xlink:href="#id38" x1="0.385602" y1="0.588142" x2="0.287138" y2="0.541976">
  </linearGradient>
  <linearGradient id="id62" gradientUnits="userSpaceOnUse" xlink:href="#id38" x1="0.593157" y1="0.188232" x2="0.494685" y2="0.142067">
  </linearGradient>
  <linearGradient id="id63" gradientUnits="userSpaceOnUse" xlink:href="#id38" x1="2.40961" y1="0.062563" x2="0.0275433" y2="-1.05428">
  </linearGradient>
  <linearGradient id="id64" gradientUnits="userSpaceOnUse" xlink:href="#id38" x1="2.50396" y1="0.261378" x2="0.12676" y2="-0.853181">
  </linearGradient>
  <linearGradient id="id65" gradientUnits="userSpaceOnUse" xlink:href="#id38" x1="2.44904" y1="-0.0129803" x2="0.389228" y2="-0.978736">
  </linearGradient>
  <linearGradient id="id66" gradientUnits="userSpaceOnUse" xlink:href="#id38" x1="2.37063" y1="0.0606969" x2="0.441169" y2="-0.843941">
  </linearGradient>
 </defs>
<symbol id="Fm17-133-0" viewBox="6.33932 -6.44861 0.908598 0.748709">
 <path class="fil0" style="mask:url(#id0)" d="M7.24792 -5.7619c0,0 -0.405902,0.1405 -0.690969,-0.00153937 -0.307543,-0.153252 -0.258768,-0.599028 -0.0420157,-0.676154 0.149083,-0.0530551 0.0989291,0.140445 0.0345,0.253181 -0.0832205,0.145654 -0.116,0.542583 0.698484,0.424512l0 0z"/>
</symbol>
<symbol id="Fm18-134-0" viewBox="5.42629 -5.22522 1.58447 1.00546">
 <path class="fil1" style="mask:url(#id2)" d="M6.40281 -4.74888c-0.177972,0.120709 -0.389803,0.186819 -0.602402,0.210862 -0.105516,0.0119409 -0.388555,0.00240157 -0.373543,0.172177 0.00496063,0.0562795 0.0724606,0.0902087 0.118169,0.107736 0.368291,0.141307 0.673886,-0.135528 0.910484,-0.381665 0.0672244,-0.0699567 0.130374,-0.143484 0.196098,-0.21478 0.116567,-0.126457 0.227276,-0.259441 0.359138,-0.370665 -0.197626,0.161961 -0.392071,0.328197 -0.602972,0.472933 -0.00165354,0.0011378 -0.0033189,0.00229134 -0.00497244,0.00340157l0 0z"/>
</symbol>
<symbol id="Fm16-132-0" viewBox="5.95762 -5.65004 1.39883 0.589933">
 <path class="fil2" style="mask:url(#id4)" d="M5.95762 -5.16259c0,0 0.272012,0.209165 0.642484,0.0298622 0.403406,-0.195224 0.581961,-0.362626 0.75635,-0.517307 0,0 -0.449654,0.35889 -0.849654,0.52178 -0.27328,0.111291 -0.549181,-0.0343346 -0.549181,-0.0343346z"/>
</symbol>
<symbol id="Fm15-131-0" viewBox="5.89983 -5.71117 1.46726 0.542575">
 <path class="fil3" style="mask:url(#id6)" d="M6.15731 -5.46977c-0.0705669,-0.0375433 -0.22311,-0.0402795 -0.249528,0.053126 -0.0655118,0.231803 0.29139,0.259539 0.428224,0.244803 0.139209,-0.015 0.647748,-0.194791 1.03108,-0.539319 -0.0747638,-0.000181102 -0.733043,0.495181 -1.20978,0.24139l0 0z"/>
</symbol>
<symbol id="Fm19-135-0" viewBox="6.18696 -5.76506 2.18263 1.51063">
 <path class="fil4" style="mask:url(#id8)" d="M6.18696 -4.25443c0,0 0.549043,-0.588484 0.987791,-1.04109 0.438752,-0.452614 0.772846,-0.541906 1.19483,-0.419862 0,0 -0.635209,-0.182846 -1.16567,0.434248 -0.646319,0.751945 -1.01696,1.02671 -1.01696,1.02671z"/>
</symbol>
 <g id="Layer_x0020_1">
  <metadata id="CorelCorpID_0Corel-Layer"/>
  <g id="_302363504">
   <g>
    <path id="_302109544" class="fil5" d="M0.602476 0.33011c0,0 -0.0518071,-0.0555315 -0.0932047,-0.0982323 -0.0413937,-0.0427087 -0.0729134,-0.0511339 -0.112736,-0.0396181 0,0 0.059937,-0.017252 0.109988,0.0409724 0.0609882,0.0709528 0.0959528,0.096878 0.0959528,0.096878z"/>
   </g>
   <g>
    <g>
     <line id="_302108296" class="fil6 str0" x1="0.224008" y1="0.578047" x2="0.549409" y2= "0.578047" />
     <line id="_302108632" class="fil6 str0" x1="0.224008" y1="0.536059" x2="0.549409" y2= "0.536059" />
     <line id="_302108032" class="fil6 str0" x1="0.224008" y1="0.489874" x2="0.549409" y2= "0.489874" />
     <line id="_302107984" class="fil6 str0" x1="0.224008" y1="0.624232" x2="0.549409" y2= "0.624232" />
     <line id="_302107672" class="fil6 str0" x1="0.224008" y1="0.674614" x2="0.549409" y2= "0.674614" />
     <line id="_302107840" class="fil6 str0" x1="0.224008" y1="0.720799" x2="0.549409" y2= "0.720799" />
    </g>
    <g>
     <line id="_302107720" class="fil6 str0" x1="0.38198" y1="0.454185" x2="0.38198" y2= "0.779583" />
     <line id="_302107768" class="fil6 str0" x1="0.452839" y1="0.454185" x2="0.452839" y2= "0.779583" />
     <line id="_302107432" class="fil6 str0" x1="0.522118" y1="0.454185" x2="0.522118" y2= "0.779583" />
     <line id="_209072088" class="fil6 str0" x1="0.31848" y1="0.454185" x2="0.31848" y2= "0.779583" />
     <line id="_282312968" class="fil6 str0" x1="0.253398" y1="0.454185" x2="0.253398" y2= "0.779583" />
    </g>
   </g>
   <g>
    <path id="_282313088" class="fil7" d="M0.363902 0.527185c0.013063,0.00527165 0.0212126,0.0310039 0.0174331,0.0437559l0 0c-0.0154724,0.0521772 -0.0908346,0.0299213 -0.122756,0.0100512l0 0c-0.0031063,-0.00295669 -0.00764961,-0.00542913 -0.0102441,-0.00869685 0.00664173,0.00836614 0.0392559,0.0135472 0.0491732,0.0130315l0 0c0.0106614,-0.000547244 0.0145669,-0.0061811 0.0162835,-0.013622l0 0c0.000976378,-0.00422047 0.00124803,-0.0090315 0.00165354,-0.0138268l0 0c0.000622047,-0.00733858 0.00238976,-0.0234921 0.0124567,-0.0131142l0 0c0.00590945,0.00609449 0.00522441,0.0298543 0.0174803,0.026437l0 0c0.013622,-0.00380315 0.00264567,-0.021063 0.00106693,-0.0286693l0 0c-0.00172441,-0.00830315 0.00510236,-0.0162244 0.0129724,-0.0162283l0 0c0.00147244,0 0.00298031,0.000279528 0.00448031,0.00088189l0 0z"/>
    <g>
     <path id="_282312992" class="fil8" d="M0.392681 0.619894c0.0219409,-0.0117756 0.0498504,0.00580709 0.0272874,0.0282717l0 0c-0.0261339,0.0260236 -0.060378,0.0136102 -0.0935551,-0.00765354l0 0c-0.027874,-0.0178583 -0.0517165,-0.0411614 -0.0805906,-0.0575709 0.0445276,0.0115984 0.100567,0.0617953 0.146858,0.0369528l0 0z"/>
     <path id="_282313064" class="fil9" d="M0.49487 0.574035c-0.00437008,0.0250906 -0.0371732,0.0141575 -0.0536811,0.0125157l0 0c-0.022689,-0.00225197 -0.0434843,0.015 -0.0434843,0.015 0.0152913,-0.016437 0.0250236,-0.0345984 0.0477835,-0.044311l0 0c0.00545276,-0.00232677 0.0145906,-0.0042126 0.0235512,-0.0042126l0 0c0.0145394,0 0.028626,0.00495276 0.0258307,0.0210079l0 0z"/>
     <path id="_282312800" class="fil10" d="M0.527524 0.605193c-0.00148819,0.0140354 -0.0181732,0.00265354 -0.0248661,-0.0005l0 0c-0.0138583,-0.00653543 -0.0284843,-0.00700394 -0.0284843,-0.00700394l0 0c0.00371654,-0.00551181 0.0150591,-0.00862992 0.0263386,-0.00862992 0.0141457,0 0.0282008,0.00490551 0.0270118,0.0161339l0 0z"/>
     <path id="_282312536" class="fil11" d="M0.512409 0.614929c0.0102283,0.00668504 0.0163858,0.0233031 0.00237008,0.0254882l0 0c-0.013248,0.00206299 -0.0295984,-0.0208976 -0.0153346,-0.0272835l0 0c0.0015,-0.000669291 0.00303937,-0.000972441 0.00458268,-0.000972441l0 0c0.00288189,0 0.00576378,0.00105906 0.00838189,0.00276772l0 0z"/>
     <path id="_282312872" class="fil12" d="M0.522307 0.694917c-0.00902756,0.0310866 -0.0780354,-0.00495669 -0.0960787,-0.00851181l0 0c0,0 0.0457165,-0.00494882 0.0682992,-0.00932283l0 0c0.00216535,-0.00042126 0.00459843,-0.000653543 0.0071063,-0.000653543l0 0c0.0115157,0 0.0246378,0.00484646 0.0206732,0.0184882l0 0z"/>
     <path id="_282312512" class="fil13" style="mask:url(#id10)" d="M0.482445 0.556382c0.00767717,0.00342126 0.010685,0.0129528 0.00511417,0.0200157l0 0c-0.00484646,0.00617323 -0.0143622,0.00494094 -0.0209803,0.00301969l0 0c-0.0134134,-0.00390551 -0.031752,-0.00464567 -0.0440748,0.00199213l0 0c0.00508661,-0.0102913 0.0215236,-0.0222047 0.0344803,-0.0255945l0 0c0.00383858,-0.00101181 0.00844094,-0.00167717 0.0129843,-0.00167717 0.00445276,0 0.0088622,0.000641732 0.0124764,0.00224409l0 0z"/>
     <path id="_282313256" class="fil14" style="mask:url(#id12)" d="M0.446972 0.582291c0.0241299,0.00496457 0.0348465,0.00470079 0.0348661,0.00470079 -1.9685e-005,3.93701e-006 -0.00915354,0.00364961 -0.0371614,-0.00206693l0 0c-0.0175512,-0.00358661 -0.0366772,0.00821654 -0.0415197,0.0117717l0 0c0,0 0.0159606,-0.015185 0.0360512,-0.015189l0 0c0.00252756,0 0.00512205,0.000248031 0.00776378,0.000783465l0 0z"/>
     <path id="_282316376" class="fil15" style="mask:url(#id14)" d="M0.516217 0.59348c0.010874,0.0031378 0.0112244,0.0174961 0.000783465,0.0124449l0 0c-0.00567323,-0.00274409 -0.0219016,-0.0116535 -0.0287756,-0.0122362l0 0c0.00268898,-0.00201181 0.00683465,-0.0027126 0.0112205,-0.0027126 0.00626378,0 0.0130236,0.00142913 0.0167717,0.00250394l0 0z"/>
     <path id="_282316472" class="fil16" style="mask:url(#id16)" d="M0.511039 0.61615c0.00450394,0.00224409 0.0130354,0.0134764 0.00430709,0.0161339l0 0c-0.00538189,0.00163386 -0.00991732,-0.0034685 -0.0116969,-0.00855118l0 0c-0.00154724,-0.00443701 -0.000992126,-0.00886614 0.00295669,-0.00886614l0 0c0.00116535,0 0.0026378,0.000385827 0.00443307,0.00128346l0 0z"/>
     <path id="_282316064" class="fil17" style="mask:url(#id18)" d="M0.518496 0.637531c-0.0198189,0.00500787 -0.0216299,-0.0159646 -0.0216299,-0.0159646l0 0c0.00819291,0.0186693 0.0216299,0.0159646 0.0216299,0.0159646z"/>
     <path id="_282315968" class="fil18" style="mask:url(#id20)" d="M0.517776 0.691815c-0.0026378,0.0114094 -0.0187717,0.00866535 -0.0270866,0.00731496l0 0c-0.0124685,-0.00201181 -0.0248189,-0.0049252 -0.0370433,-0.00807874l0 0c-0.00240551,-0.000625984 -0.00933071,-0.00388583 -0.0117165,-0.00311417l0 0c0.00631102,-0.00204331 0.0363228,-0.00520472 0.0615433,-0.0079252l0 0c0.000807087,-8.66142e-005 0.00159055,-0.000129921 0.00234646,-0.000129921l0 0c0.00833465,0 0.0135315,0.00512205 0.0119567,0.0119331l0 0z"/>
     <g>
      <path id="_209068512" class="fil19" d="M0.396413 0.622098c0.00665354,-0.00354331 0.0210472,-0.00380315 0.0235433,0.00500787 0.00617323,0.021878 -0.0275,0.0244921 -0.0404055,0.0231024 -0.0131339,-0.00141732 -0.061126,-0.018378 -0.0972913,-0.0508858 0.00705512,-1.9685e-005 0.0691693,0.0467205 0.114154,0.0227756l0 0z"/>
     </g>
     <g>
      <path id="_209068704" class="fil20" d="M0.415248 0.651083c0,0 -0.0256654,0.0197362 -0.0606181,0.00281496 -0.038063,-0.0184213 -0.0549094,-0.0342126 -0.0713661,-0.048811 0,0 0.0424331,0.0338622 0.0801732,0.0492323 0.0257835,0.0105039 0.051811,-0.00323622 0.051811,-0.00323622z"/>
     </g>
     <g>
      <path id="_209068728" class="fil21" d="M0.293504 0.594535c0,0 0.0382992,0.0132559 0.0652047,-0.000149606 0.0290079,-0.0144646 0.0244134,-0.0565197 0.00396063,-0.0637992 -0.0140669,-0.005 -0.00933858,0.0132559 -0.00325197,0.0238858 0.00784646,0.013752 0.0109331,0.0512047 -0.0659134,0.040063l0 0z"/>
     </g>
     <path id="_282316160" class="fil22" style="mask:url(#id22)" d="M0.328441 0.552724c0.00388583,0.00197638 0.00323622,0.00819291 0.00387008,0.011622l0 0c0.000688976,0.00380709 0.0013937,0.0066378 0.00393701,0.0096378l0 0c0.00181496,0.00212992 0.00583465,0.00396063 0.00617717,0.00706299l0 0c0.00065748,0.00616535 -0.0102205,0.00898819 -0.0147205,0.00997244l0 0c-0.0062126,0.00134646 -0.0131575,0.00190551 -0.0192756,-7.87402e-005l0 0c-3.93701e-006,-3.93701e-006 -0.00367717,-0.00119685 -0.00367717,-0.00119685l0 0c0.00128346,-0.000216535 0.00254331,-0.000212598 0.00377953,-0.000204724l0 0c0.00293307,3.54331e-005 0.00572835,5.90551e-005 0.00838189,-0.0031063l0 0c0.00655512,-0.00785827 0.00103543,-0.0191969 0.00376772,-0.0279646l0 0c0.000893701,-0.00287008 0.00273228,-0.0062874 0.00564961,-0.0062874l0 0c0.000649606,0 0.00135433,0.000169291 0.00211024,0.000543307l0 0z"/>
    </g>
   </g>
   <g>
    <path id="_282316304" class="fil6 str1" d="M0.600232 0.21998c0.0219409,-0.0117756 0.0498504,0.00580709 0.0272874,0.0282717l0 0c-0.0261339,0.0260236 -0.060378,0.0136102 -0.0935551,-0.00765354l0 0c-0.027874,-0.0178583 -0.0517165,-0.0411614 -0.0805906,-0.0575709 0.0445276,0.0115984 0.100567,0.0617953 0.146858,0.0369528l0 0z"/>
    <path id="_282315872" class="fil6 str1" d="M0.571453 0.127272c0.013063,0.00527559 0.0212126,0.0310039 0.0174331,0.0437559l0 0c-0.0154724,0.0521772 -0.0908346,0.0299213 -0.122756,0.0100512l0 0c-0.0031063,-0.00295669 -0.00764961,-0.00542913 -0.0102441,-0.00869685 0.00664173,0.00836614 0.0392559,0.0135472 0.0491732,0.0130315l0 0c0.0106614,-0.000547244 0.0145669,-0.0061811 0.0162835,-0.013622l0 0c0.000976378,-0.00422047 0.00124803,-0.0090315 0.00165354,-0.0138268l0 0c0.000622047,-0.00733858 0.00238976,-0.0234921 0.0124567,-0.0131142l0 0c0.00590945,0.00609449 0.00522441,0.0298543 0.0174803,0.026437l0 0c0.013622,-0.00380315 0.00264567,-0.021063 0.00106693,-0.0286693l0 0c-0.00172441,-0.00830315 0.00510236,-0.0162244 0.0129724,-0.0162283l0 0c0.00147244,0 0.00298031,0.000279528 0.00448031,0.00088189l0 0z"/>
    <path id="_282315248" class="fil6 str1" d="M0.702421 0.174122c-0.00437008,0.0250906 -0.0371732,0.0141575 -0.0536811,0.0125157l0 0c-0.022689,-0.00225197 -0.0434843,0.015 -0.0434843,0.015 0.0152913,-0.016437 0.0250236,-0.0345984 0.0477835,-0.044311l0 0c0.00545276,-0.00232677 0.0145906,-0.0042126 0.0235512,-0.0042126l0 0c0.0145394,0 0.028626,0.00495276 0.0258307,0.0210079l0 0z"/>
    <path id="_282315488" class="fil6 str1" d="M0.735075 0.20528c-0.00148819,0.0140354 -0.0181732,0.00265354 -0.0248661,-0.0005l0 0c-0.0138583,-0.00653543 -0.0284843,-0.00700394 -0.0284843,-0.00700394l0 0c0.00371654,-0.00551181 0.0150591,-0.00862992 0.0263386,-0.00862992 0.0141457,0 0.0282008,0.00490551 0.0270118,0.0161339l0 0z"/>
    <path id="_282315560" class="fil6 str1" d="M0.719961 0.215016c0.0102283,0.00668504 0.0163858,0.0233031 0.00237008,0.0254882l0 0c-0.013248,0.00206299 -0.0295984,-0.0208976 -0.0153346,-0.0272795l0 0c0.0015,-0.000673228 0.00303937,-0.000976378 0.00458268,-0.000976378l0 0c0.00288189,0 0.00576378,0.00105906 0.00838189,0.00276772l0 0z"/>
    <path id="_282315464" class="fil6 str1" d="M0.729858 0.295004c-0.00902756,0.0310906 -0.0780354,-0.00495669 -0.0960787,-0.00851181l0 0c0,0 0.0457165,-0.00494882 0.0682992,-0.00932283l0 0c0.00216535,-0.00042126 0.00459843,-0.000649606 0.0071063,-0.000649606l0 0c0.0115157,0 0.0246378,0.00484252 0.0206732,0.0184843l0 0z"/>
    <path id="_282314888" class="fil6 str1" style="mask:url(#id24)" d="M0.689996 0.156472c0.00767717,0.00341732 0.0106811,0.0129528 0.00511417,0.0200157l0 0c-0.00484646,0.00616142 -0.0143622,0.00494094 -0.0209803,0.00301575l0 0c-0.0134173,-0.00389764 -0.031752,-0.00464567 -0.0440748,0.00199606l0 0c0.00509055,-0.0102992 0.0215236,-0.0222126 0.0344803,-0.0256024l0 0c0.00384646,-0.00100787 0.00844094,-0.00167717 0.0129882,-0.00167717 0.00444488,0 0.00885827,0.000649606 0.0124724,0.00225197l0 0z"/>
    <path id="_282315536" class="fil6 str1" style="mask:url(#id26)" d="M0.654528 0.182382c0.024126,0.00496457 0.0348425,0.00469685 0.0348622,0.00468898 -1.9685e-005,1.1811e-005 -0.00915748,0.00365748 -0.0371614,-0.00205906l0 0c-0.0175433,-0.00359055 -0.0366772,0.00821654 -0.0415197,0.0117717l0 0c0,0 0.0159646,-0.015185 0.0360512,-0.015185l0 0c0.00253543,0 0.00512205,0.00023622 0.00776772,0.000783465l0 0z"/>
    <path id="_282315368" class="fil6 str1" style="mask:url(#id28)" d="M0.723772 0.193571c0.0108701,0.00313386 0.0112244,0.0174961 0.000779528,0.0124449l0 0c-0.00567717,-0.00274409 -0.0219016,-0.0116535 -0.0287795,-0.0122402l0 0c0.00269291,-0.00201575 0.00683858,-0.0027126 0.0112283,-0.0027126 0.00626378,0 0.0130157,0.00142126 0.0167717,0.00250787l0 0z"/>
    <path id="_282315296" class="fil6 str1" style="mask:url(#id30)" d="M0.718594 0.21624c0.0045,0.00223622 0.0130394,0.0134685 0.00429921,0.0161299l0 0c-0.00537008,0.00163386 -0.00991339,-0.00346063 -0.0116929,-0.00855118l0 0c-0.00154724,-0.00442913 -0.000988189,-0.00886614 0.00295669,-0.00886614l0 0c0.00117323,0 0.00263386,0.000393701 0.00443701,0.0012874l0 0z"/>
    <path id="_282314864" class="fil6 str1" style="mask:url(#id32)" d="M0.726047 0.237622c-0.019811,0.00500394 -0.0216339,-0.0159685 -0.0216339,-0.0159685l0 0c0.00819685,0.0186693 0.0216339,0.0159685 0.0216339,0.0159685z"/>
    <path id="_282315152" class="fil6 str1" style="mask:url(#id34)" d="M0.725327 0.291902c-0.0026378,0.0114055 -0.0187717,0.00866535 -0.0270866,0.0073189l0 0c-0.0124646,-0.00201575 -0.0248228,-0.0049252 -0.0370472,-0.00808661l0 0c-0.00240157,-0.000614173 -0.00932677,-0.00388189 -0.0117165,-0.0031063l0 0c0.00631102,-0.00205512 0.0363228,-0.0052126 0.0615551,-0.0079252l0 0c0.000799213,-9.44882e-005 0.00158268,-0.000137795 0.00233465,-0.000137795l0 0c0.00833465,0 0.0135315,0.00512992 0.0119606,0.011937l0 0z"/>
    <g>
     <path id="_209068800" class="fil23" d="M0.603961 0.222181c0.00666142,-0.00353937 0.0210512,-0.00379921 0.0235433,0.00500787 0.00618504,0.0218819 -0.0274961,0.0245 -0.0403976,0.0231102 -0.0131417,-0.00142126 -0.061122,-0.0183898 -0.0972992,-0.0508937 0.00705906,-1.5748e-005 0.0691693,0.0467283 0.114154,0.0227756l0 0z"/>
    </g>
    <g>
     <path id="_209068896" class="fil24" d="M0.622803 0.251169c0,0 -0.0256693,0.0197362 -0.060626,0.00281496 -0.038063,-0.0184173 -0.0549016,-0.0342126 -0.0713622,-0.0488071 0,0 0.0424331,0.0338583 0.0801732,0.0492323 0.0257835,0.0105 0.051815,-0.00324016 0.051815,-0.00324016z"/>
    </g>
    <g>
     <path id="_302108152" class="fil25" d="M0.501051 0.194622c0,0 0.0382992,0.0132598 0.0652047,-0.000149606 0.0290157,-0.0144606 0.0244134,-0.0565197 0.00396063,-0.0637953 -0.0140669,-0.00500787 -0.00932677,0.013252 -0.00324803,0.0238898 0.00784252,0.0137402 0.0109409,0.0511969 -0.0659173,0.0400551l0 0z"/>
    </g>
    <path id="_282314432" class="fil6 str1" style="mask:url(#id36)" d="M0.535988 0.152815c0.00390157,0.0019685 0.00325197,0.0081811 0.00387402,0.011622l0 0c0.000685039,0.00380315 0.00139764,0.0066378 0.00393701,0.00962992l0 0c0.00181496,0.00213386 0.00583465,0.00396063 0.00617717,0.00707087l0 0c0.000661417,0.00616535 -0.0102244,0.00898425 -0.0147165,0.0099685l0 0c-0.00620866,0.00135039 -0.0131654,0.00190157 -0.0192795,-8.66142e-005l0 0c-3.93701e-006,0 -0.0036811,-0.00118504 -0.0036811,-0.00118504l0 0c0.0012874,-0.000224409 0.00254724,-0.000216535 0.00377953,-0.000204724l0 0c0.00293701,2.75591e-005 0.00572835,6.29921e-005 0.00838189,-0.00311417l0 0c0.00656299,-0.00785039 0.00103937,-0.0191929 0.00377559,-0.0279646l0 0c0.000897638,-0.00287402 0.00273622,-0.00628346 0.00564567,-0.00628346l0 0c0.000649606,0 0.00135433,0.000165354 0.0021063,0.000547244l0 0z"/>
   </g>
   <g>
    <path id="_209068224" class="fil26" d="M0.582106 0.283453c0.0167992,0.0113898 0.0367835,0.0176339 0.0568425,0.0198976 0.00996457,0.00112598 0.0366654,0.000228346 0.035248,0.016248 -0.000468504,0.00531102 -0.00683465,0.00850394 -0.0111496,0.0101614 -0.034748,0.0133307 -0.0635866,-0.0127913 -0.0859094,-0.0360157 -0.00634646,-0.00659843 -0.0122992,-0.0135354 -0.0185039,-0.0202598 -0.0109921,-0.0119331 -0.0214449,-0.0244764 -0.0338819,-0.0349724 0.0186417,0.0152756 0.0369961,0.0309646 0.0568937,0.044622 0.00015748,0.000102362 0.000314961,0.000220472 0.00046063,0.000318898l0 0z"/>
   </g>
   <g>
    <line id="_282314720" class="fil6 str0" x1="0.431559" y1="0.178134" x2="0.756961" y2= "0.178134" />
    <line id="_282314672" class="fil6 str0" x1="0.431559" y1="0.136146" x2="0.756961" y2= "0.136146" />
    <line id="_282314168" class="fil6 str0" x1="0.431559" y1="0.0899606" x2="0.756961" y2= "0.0899606" />
    <line id="_282313832" class="fil6 str0" x1="0.431559" y1="0.224319" x2="0.756961" y2= "0.224319" />
    <line id="_282313568" class="fil6 str0" x1="0.431559" y1="0.274701" x2="0.756961" y2= "0.274701" />
    <line id="_282313712" class="fil6 str0" x1="0.431559" y1="0.320886" x2="0.756961" y2= "0.320886" />
   </g>
   <g>
    <line id="_282313304" class="fil6 str0" x1="0.589531" y1="0.0542717" x2="0.589531" y2= "0.379669" />
    <line id="_282313688" class="fil6 str0" x1="0.66039" y1="0.0542717" x2="0.66039" y2= "0.379669" />
    <line id="_282313400" class="fil6 str0" x1="0.729669" y1="0.0542717" x2="0.729669" y2= "0.379669" />
    <line id="_282313520" class="fil6 str0" x1="0.526031" y1="0.0542717" x2="0.526031" y2= "0.379669" />
    <line id="_209072184" class="fil6 str0" x1="0.460949" y1="0.0542717" x2="0.460949" y2= "0.379669" />
   </g>
   <g>
    <path id="_209071344" class="fil6 str2" d="M0.199114 0.21998c0.021937,-0.0117756 0.0498465,0.00580709 0.0272835,0.0282717l0 0c-0.0261299,0.0260236 -0.060374,0.0136102 -0.0935551,-0.00765354l0 0c-0.0278701,-0.0178583 -0.0517126,-0.0411614 -0.0805866,-0.0575709 0.0445276,0.0115984 0.100563,0.0617953 0.146858,0.0369528l0 0z"/>
    <path id="_209071320" class="fil6 str2" d="M0.170335 0.127272c0.013063,0.00527559 0.0212126,0.0310039 0.0174291,0.0437559l0 0c-0.0154685,0.0521772 -0.0908307,0.0299213 -0.122752,0.0100512l0 0c-0.00311024,-0.00295669 -0.00765354,-0.00542913 -0.0102441,-0.00869685 0.0066378,0.00836614 0.0392559,0.0135472 0.0491693,0.0130315l0 0c0.0106654,-0.000547244 0.0145709,-0.0061811 0.0162874,-0.013622l0 0c0.000976378,-0.00422047 0.00124803,-0.0090315 0.00165354,-0.0138268l0 0c0.000622047,-0.00733858 0.00238976,-0.0234921 0.0124567,-0.0131142l0 0c0.00590945,0.00609449 0.00522441,0.0298543 0.0174803,0.026437l0 0c0.013622,-0.00380315 0.00264567,-0.021063 0.00106693,-0.0286693l0 0c-0.00172441,-0.00830315 0.00509843,-0.0162244 0.0129724,-0.0162283l0 0c0.00147244,0 0.00298031,0.000279528 0.00448031,0.00088189l0 0z"/>
    <path id="_209071824" class="fil6 str2" d="M0.301299 0.174122c-0.00436614,0.0250906 -0.0371693,0.0141575 -0.0536772,0.0125157l0 0c-0.022689,-0.00225197 -0.0434843,0.015 -0.0434843,0.015 0.0152913,-0.016437 0.0250236,-0.0345984 0.0477835,-0.044311l0 0c0.00545276,-0.00232677 0.0145866,-0.0042126 0.0235512,-0.0042126l0 0c0.0145394,0 0.028622,0.00495276 0.0258268,0.0210079l0 0z"/>
    <path id="_209071656" class="fil6 str2" d="M0.333957 0.20528c-0.00148819,0.0140354 -0.0181732,0.00265354 -0.0248661,-0.0005l0 0c-0.0138583,-0.00653543 -0.0284882,-0.00700394 -0.0284882,-0.00700394l0 0c0.00372047,-0.00551181 0.0150591,-0.00862992 0.0263386,-0.00862992 0.0141496,0 0.0282047,0.00490551 0.0270157,0.0161339l0 0z"/>
    <path id="_209071800" class="fil6 str2" d="M0.318843 0.215016c0.0102244,0.00668504 0.0163858,0.0233031 0.00237008,0.0254882l0 0c-0.013248,0.00206299 -0.0295984,-0.0208976 -0.0153346,-0.0272795l0 0c0.00149606,-0.000673228 0.00303937,-0.000976378 0.00458268,-0.000976378l0 0c0.00287795,0 0.00576378,0.00105906 0.00838189,0.00276772l0 0z"/>
    <path id="_209071560" class="fil6 str2" d="M0.32874 0.295004c-0.00902756,0.0310906 -0.0780354,-0.00495669 -0.0960827,-0.00851181l0 0c0,0 0.0457205,-0.00494882 0.0683031,-0.00932283l0 0c0.00216142,-0.00042126 0.00459843,-0.000649606 0.0071063,-0.000649606l0 0c0.0115157,0 0.0246339,0.00484252 0.0206732,0.0184843l0 0z"/>
    <g>
     <path id="_302109208" class="fil27" d="M0.202843 0.222181c0.00665748,-0.00353937 0.0210551,-0.00379921 0.0235433,0.00500787 0.0061811,0.0218819 -0.0274961,0.0245 -0.0404055,0.0231102 -0.0131299,-0.00142126 -0.0611181,-0.0183898 -0.0972913,-0.0508937 0.00705906,-1.5748e-005 0.0691654,0.0467283 0.114154,0.0227756l0 0z"/>
    </g>
    <g>
     <path id="_209068296" class="fil28" d="M0.221685 0.251169c0,0 -0.0256614,0.0197362 -0.0606181,0.00281496 -0.0380669,-0.0184173 -0.0549173,-0.0342126 -0.071374,-0.0488071 0,0 0.0424331,0.0338583 0.0801772,0.0492323 0.0257835,0.0105 0.051815,-0.00324016 0.051815,-0.00324016z"/>
    </g>
    <g>
     <path id="_302108776" class="fil29" d="M0.0999409 0.194622c0,0 0.0382953,0.0132598 0.0651929,-0.000149606 0.0290157,-0.0144606 0.0244173,-0.0565197 0.0039685,-0.0637953 -0.0140669,-0.00500787 -0.00934252,0.013252 -0.00325591,0.0238898 0.00784646,0.0137402 0.0109409,0.0511969 -0.0659055,0.0400551l0 0z"/>
    </g>
   </g>
   <g>
    <g>
     <line id="_209071032" class="fil6 str0" x1="0.0304409" y1="0.178134" x2="0.355839" y2= "0.178134" />
     <line id="_209070912" class="fil6 str0" x1="0.0304409" y1="0.136146" x2="0.355839" y2= "0.136146" />
     <line id="_209070576" class="fil6 str0" x1="0.0304409" y1="0.0899606" x2="0.355839" y2= "0.0899606" />
     <line id="_209070840" class="fil6 str0" x1="0.0304409" y1="0.224319" x2="0.355839" y2= "0.224319" />
     <line id="_209070600" class="fil6 str0" x1="0.0304409" y1="0.274701" x2="0.355839" y2= "0.274701" />
     <line id="_209070816" class="fil6 str0" x1="0.0304409" y1="0.320886" x2="0.355839" y2= "0.320886" />
    </g>
    <g>
     <line id="_209071008" class="fil6 str0" x1="0.188413" y1="0.0542717" x2="0.188413" y2= "0.379669" />
     <line id="_209070168" class="fil6 str0" x1="0.259272" y1="0.0542717" x2="0.259272" y2= "0.379669" />
     <line id="_209069952" class="fil6 str0" x1="0.328551" y1="0.0542717" x2="0.328551" y2= "0.379669" />
     <line id="_209069880" class="fil6 str0" x1="0.124913" y1="0.0542717" x2="0.124913" y2= "0.379669" />
     <line id="_209070120" class="fil6 str0" x1="0.0598307" y1="0.0542717" x2="0.0598307" y2= "0.379669" />
    </g>
   </g>
   <path id="_209070336" class="fil30" d="M0.479614 0.389634l0 3.93701e-006 -0.00454331 0.0149803 -0.00393701 -0.00365748c-0.0185197,0.0209409 -0.0480827,0.0345039 -0.0813976,0.0345039 -0.0324803,0 -0.0613976,-0.0128858 -0.0799882,-0.032937l-0.00448819 0.00416929c-0.00185827,-0.00611811 -0.0037126,-0.0122362 -0.00556693,-0.0183543l0.0181181 0.00669685 -0.00507087 0.00470866c0.0211417,0.0116535 0.047315,0.0185512 0.0756654,0.0185512 0.0299646,0 0.0575,-0.00770866 0.0792283,-0.0205906l-0.00511417 -0.00475197 0.0181181 -0.00669291 -0.00102362 0.00337008 0 0z"/>
   <path id="_209069568" class="fil31" d="M0.581878 0.384122c0.0196457,0.0157835 0.0309764,0.043878 0.0273583,0.074252 -0.00301575,0.0253425 -0.0157756,0.0466969 -0.0331614,0.059311l0.00401969 0.00374016 -0.0159921 0.00614567 0.00195276 -0.0192126 0.00779921 0.00725984c0.0112638,-0.0154685 0.0192283,-0.035437 0.0218898,-0.0577992 0.0033189,-0.0278701 -0.00224016,-0.0540669 -0.0138661,-0.0736969z"/>
   <g>
    <circle id="_209068992" class="fil30" cx="0.0709875" cy="0.0395392" r="0.0317214"/>
    <polygon id="_209069160" class="fil32" points="0.0764724,0.0500709 0.072248,0.0500709 0.072248,0.032748 0.0679685,0.032748 0.0679685,0.0297638 0.0764724,0.0290157 "/>
   </g>
   <g>
    <circle id="_209069352" class="fil30" cx="0.460949" cy="0.0395392" r="0.0317214"/>
    <path id="_209069328" class="fil32" d="M0.468846 0.0502205l-0.0143701 0 0 -0.00276378 0.00681102 -0.00729921c0.000980315,-0.00112992 0.0016811,-0.00207874 0.00209449,-0.00285827 0.000417323,-0.000775591 0.000622047,-0.00149606 0.000622047,-0.00216142 0,-0.000885827 -0.000240157,-0.00161024 -0.000712598,-0.00217717 -0.000480315,-0.000562992 -0.00115748,-0.00084252 -0.00203543,-0.00084252 -0.000972441,0 -0.0017126,0.000330709 -0.00222047,0.000992126 -0.000503937,0.000653543 -0.000755906,0.00153937 -0.000755906,0.00263386l-0.0041063 0 -2.75591e-005 -8.26772e-005c-5.11811e-005,-0.00190157 0.000570866,-0.00351181 0.00187008,-0.00482283 0.00129528,-0.0013189 0.00304331,-0.00197638 0.00524016,-0.00197638 0.00217323,0 0.00387402,0.000562992 0.00511417,0.00169291 0.00124016,0.00112598 0.00185433,0.00263386 0.00185433,0.00451181 0,0.00127559 -0.000350394,0.00244488 -0.00104331,0.00351969 -0.000704724,0.0010748 -0.00185827,0.00248819 -0.0034685,0.00422835l-0.00374409 0.00409449 2.75591e-005 7.48031e-005 0.00885039 0 0 0.00323622z"/>
   </g>
   <g>
    <circle id="_209069232" class="fil31" cx="0.207899" cy="0.470474" r="0.0317214"/>
    <path id="_209068320" class="fil32" d="M0.205807 0.468685l0.00237402 0c0.001,0 0.00174016,-0.00026378 0.00222441,-0.000791339 0.000484252,-0.000523622 0.000720472,-0.00125197 0.000720472,-0.00218898 0,-0.000846457 -0.00023622,-0.00152756 -0.000720472,-0.00203937 -0.000484252,-0.000507874 -0.00117717,-0.00076378 -0.00209843,-0.00076378 -0.000787402,0 -0.00145276,0.000228346 -0.00199213,0.000692913 -0.000543307,0.00046063 -0.000811024,0.00107087 -0.000811024,0.00182283l-0.00409055 0 -3.14961e-005 -9.05512e-005c-5.90551e-005,-0.00164567 0.000574803,-0.00300394 0.00189764,-0.0040748 0.0013189,-0.00107087 0.00295669,-0.0016063 0.00491732,-0.0016063 0.00217323,0 0.00391339,0.000519685 0.00520866,0.00156299 0.00129921,0.00103937 0.00194488,0.00252362 0.00194488,0.00445669 0,0.000913386 -0.000291339,0.00178346 -0.000866142,0.00261024 -0.00057874,0.000822835 -0.00137402,0.00146457 -0.00238583,0.00192913 0.00116535,0.000413386 0.00205512,0.00105118 0.00266535,0.00190945 0.000614173,0.000854331 0.000917323,0.00185827 0.000917323,0.00299213 0,0.00192913 -0.000700787,0.00344488 -0.00210236,0.00455118 -0.00140157,0.00109843 -0.00319685,0.00165354 -0.00538189,0.00165354 -0.00196063,0 -0.0036378,-0.000519685 -0.00503937,-0.00155512 -0.00140551,-0.00103543 -0.00208661,-0.0025 -0.00203543,-0.00438976l3.14961e-005 -8.66142e-005 0.00409055 0c0,0.000807087 0.000291339,0.00148031 0.000866142,0.00200394 0.00057874,0.000527559 0.00131102,0.000787402 0.00219685,0.000787402 0.000972441,0 0.00174409,-0.000271654 0.00230709,-0.000807087 0.000566929,-0.00053937 0.000846457,-0.00127559 0.000846457,-0.00219685 0,-0.00111024 -0.000275591,-0.0019252 -0.000830709,-0.00243701 -0.000555118,-0.000519685 -0.00137008,-0.000775591 -0.00244882,-0.000775591l-0.00237402 0 0 -0.00316929z"/>
   </g>
  </g>
 </g>
</svg>
