<?xml version="1.0" encoding="UTF-8"?>
<!DOCTYPE svg PUBLIC "-//W3C//DTD SVG 1.1//EN" "http://www.w3.org/Graphics/SVG/1.1/DTD/svg11.dtd">
<!-- Creator: CorelDRAW -->
<svg xmlns="http://www.w3.org/2000/svg" xml:space="preserve" width="0.787402in" height="0.433071in" style="shape-rendering:geometricPrecision; text-rendering:geometricPrecision; image-rendering:optimizeQuality; fill-rule:evenodd; clip-rule:evenodd"
viewBox="0 0 0.787402 0.433071"
 xmlns:xlink="http://www.w3.org/1999/xlink">
 <defs>
  <style type="text/css">
   <![CDATA[
    .fil5 {fill:#11B3F1}
    .fil7 {fill:#21D0C3}
    .fil0 {fill:#666666}
    .fil4 {fill:#919191}
    .fil3 {fill:#B6B6B8}
    .fil8 {fill:#DCE3DB}
    .fil2 {fill:#ECF0F1}
    .fil9 {fill:#FAD24D}
    .fil6 {fill:#FF5B62}
    .fil1 {fill:white}
   ]]>
  </style>
 </defs>
 <g id="Layer_x0020_1">
  <metadata id="CorelCorpID_0Corel-Layer"/>
  <g id="_347743392">
   <path id="_347743464" class="fil0" d="M0.0750945 0.00761024l0.57128 0c0.0187717,0 0.034126,0.0153543 0.034126,0.034126l0 0.351917 -0.639531 0 0 -0.351917c0,-0.0187677 0.0153583,-0.034126 0.034126,-0.034126z"/>
   <path id="_347743560" class="fil1" d="M0.0641417 0.37048l0.593189 0 0 -0.328744c0,-0.00597638 -0.00497638,-0.0109528 -0.0109528,-0.0109528l-0.57128 0c-0.00597638,0 -0.0109528,0.00497638 -0.0109528,0.0109528l0 0.328744 -3.93701e-006 0 0 0z"/>
   <polygon id="_347743776" class="fil2" points="0.0764173,0.0776811 0.645055,0.0776811 0.645055,0.209315 0.0764173,0.209315 "/>
   <path id="_347743224" class="fil3" d="M0.00990945 0.393654l0.701654 0 0 0.0197087c0,0.0108386 -0.00887008,0.0197087 -0.0197087,0.0197087l-0.66224 0c-0.0108386,0 -0.0197087,-0.00887008 -0.0197087,-0.0197087l0 -0.0197087 3.93701e-006 0z"/>
   <polygon id="_347743752" class="fil4" points="0.290705,0.400858 0.430764,0.400858 0.41576,0.410823 0.305705,0.410823 0.290701,0.400854 "/>
   <path id="_347743608" class="fil0" d="M0.509535 0.131528l0.209835 0c0.00665354,0 0.0120472,0.0053937 0.0120472,0.0120472l0 0.277445c0,0.00665354 -0.0053937,0.0120472 -0.0120472,0.0120472l-0.209835 0c-0.00665354,0 -0.0120472,-0.00538976 -0.0120472,-0.0120472l0 -0.277445c0,-0.00665354 0.0053937,-0.0120472 0.0120472,-0.0120472z"/>
   <path id="_347742504" class="fil1" d="M0.512134 0.152866l0.204642 0c0.000771654,0 0.00139764,0.000625984 0.00139764,0.00139764l0 0.249173c0,0.000775591 -0.000625984,0.00140157 -0.00139764,0.00140157l-0.204642 0c-0.000771654,0 -0.00139764,-0.000625984 -0.00139764,-0.00139764l0 -0.249173c0,-0.000771654 0.000625984,-0.00140157 0.00139764,-0.00140157z"/>
   <circle id="_347743104" class="fil3" cx="0.614458" cy="0.418449" r="0.00785695"/>
   <polygon id="_347743080" class="fil2" points="0.521657,0.184079 0.707256,0.184079 0.707256,0.293472 0.521657,0.293472 "/>
   <path id="_347742816" class="fil0" d="M0.674161 0.239457l0.0972126 0c0.00337795,0 0.00611811,0.00273622 0.00611811,0.00611417l0 0.181386c0,0.00337795 -0.00274016,0.00611417 -0.00611811,0.00611417l-0.0972126 0c-0.00337795,0 -0.00611417,-0.00274016 -0.00611417,-0.00611417l0 -0.181386c0,-0.00337795 0.00273622,-0.00611417 0.00611417,-0.00611417z"/>
   <path id="_347743008" class="fil1" d="M0.678713 0.257579l0.0881102 0c0.000330709,0 0.000602362,0.000267717 0.000602362,0.000602362l0 0.156161c0,0.000330709 -0.000271654,0.000602362 -0.000602362,0.000602362l-0.0881102 0c-0.000330709,0 -0.000602362,-0.000271654 -0.000602362,-0.000602362l0 -0.156161c0,-0.000334646 0.000271654,-0.000602362 0.000602362,-0.000602362z"/>
   <g>
    <circle id="_347742912" class="fil3" cx="0.722775" cy="0.423189" r="0.00552892"/>
    <path id="_347742528" class="fil3" d="M0.707976 0.249433l0.0295787 0c0.000748031,0 0.00135039,0.000606299 0.00135039,0.00135039l0 7.87402e-006c0,0.000744094 -0.000602362,0.00135039 -0.00135039,0.00135039l-0.0295787 0c-0.000744094,0 -0.00135039,-0.000606299 -0.00135039,-0.00135039l0 -7.87402e-006c0,-0.000744094 0.000606299,-0.00135039 0.00135039,-0.00135039z"/>
   </g>
   <path id="_347742720" class="fil5" d="M0.657335 0.067437l-0.593193 0 0 -0.0257008c0,-0.00597638 0.00497638,-0.0109528 0.0109528,-0.0109528l0.57128 0c0.00597638,0 0.0109528,0.00497638 0.0109528,0.0109528l0 0.0257008 7.87402e-006 0 0 0z"/>
   <path id="_347742480" class="fil1" d="M0.317287 0.0412756l0.303866 0c0.00224016,0 0.00406299,0.00182677 0.00406299,0.00406299l0 0.00754331c0,0.00224016 -0.00182677,0.00406299 -0.00406299,0.00406299l-0.303866 0c-0.00224016,0 -0.00406299,-0.00182677 -0.00406299,-0.00406299l0 -0.00754331c0,-0.00223622 0.00182677,-0.00406299 0.00406299,-0.00406299z"/>
   <g>
    <path id="_347742600" class="fil2" d="M0.089378 0.0409961c0.0050748,0 0.00919291,0.00411417 0.00919291,0.00919291 0,0.00507874 -0.00411811,0.00919291 -0.00919291,0.00919291 -0.00507874,0 -0.00920079,-0.00411417 -0.00920079,-0.00919291 0,-0.00507874 0.00411811,-0.00919291 0.00920079,-0.00919291z"/>
    <path id="_73951880" class="fil2" d="M0.125665 0.0409961c0.00508268,0 0.00919291,0.00411417 0.00919291,0.00919291 0,0.00507874 -0.00411024,0.00919291 -0.00919291,0.00919291 -0.0050748,0 -0.00918898,-0.00411417 -0.00918898,-0.00919291 0,-0.00507874 0.00411417,-0.00919291 0.00918898,-0.00919291z"/>
    <path id="_76291072" class="fil2" d="M0.161965 0.0409961c0.0050748,0 0.00919291,0.00411417 0.00919291,0.00919291 0,0.00507874 -0.00411811,0.00919291 -0.00919291,0.00919291 -0.00508268,0 -0.00920079,-0.00411417 -0.00920079,-0.00919291 0,-0.00507874 0.00411811,-0.00919291 0.00920079,-0.00919291z"/>
   </g>
   <path id="_342676232" class="fil6" d="M0.139528 0.241071c0.0146496,0 0.0265236,0.011874 0.0265236,0.0265276 0,0.0146496 -0.0118701,0.0265276 -0.0265236,0.0265276 -0.0146496,0 -0.0265197,-0.011878 -0.0265197,-0.0265276 -3.93701e-006,-0.0146535 0.0118701,-0.0265276 0.0265197,-0.0265276z"/>
   <path id="_342675896" class="fil7" d="M0.276567 0.241071c0.0146457,0 0.0265197,0.011874 0.0265197,0.0265276 0,0.0146496 -0.011874,0.0265276 -0.0265197,0.0265276 -0.0146496,0 -0.0265236,-0.011878 -0.0265236,-0.0265276 0,-0.0146535 0.011874,-0.0265276 0.0265236,-0.0265276z"/>
   <g>
    <path id="_203810656" class="fil8" d="M0.101472 0.305496l0.0761181 0 0 0.00412992 -0.0761181 0 0 -0.00412992zm0 0.0259488l0.051126 0 0 0.00412992 -0.051126 0 0 -0.00412992zm0 -0.0129724l0.0761181 0 0 0.00412598 -0.0761181 0 0 -0.00412598z"/>
    <path id="_203810224" class="fil8" d="M0.238512 0.305496l0.0761142 0 0 0.00412992 -0.0761142 0 0 -0.00412992zm0 0.0259488l0.0511299 0 0 0.00412992 -0.0511299 0 0 -0.00412992zm0 -0.0129724l0.0761142 0 0 0.00412598 -0.0761142 0 0 -0.00412598z"/>
   </g>
   <path id="_203805400" class="fil9" d="M0.422031 0.241071c0.0146457,0 0.0265197,0.011874 0.0265197,0.0265276 0,0.0146496 -0.011874,0.0265276 -0.0265197,0.0265276 -0.0146496,0 -0.0265236,-0.011878 -0.0265236,-0.0265276 0,-0.0146535 0.011874,-0.0265276 0.0265236,-0.0265276z"/>
   <path id="_203797840" class="fil8" d="M0.383976 0.305496l0.0761142 0 0 0.00412992 -0.0761142 0 0 -0.00412992 0 0zm0 0.0259488l0.0511299 0 0 0.00412992 -0.0511299 0 0 -0.00412992zm0 -0.0129724l0.0761142 0 0 0.00412598 -0.0761142 0 0 -0.00412598 0 0z"/>
   <path id="_203797504" class="fil6" d="M0.558618 0.309232c0.00909449,0 0.0164646,0.00737402 0.0164646,0.0164646 0,0.00909055 -0.00736614,0.0164606 -0.0164646,0.0164606 -0.00909055,0 -0.0164606,-0.00737008 -0.0164606,-0.0164606 0,-0.00909449 0.00737008,-0.0164646 0.0164606,-0.0164646z"/>
   <path id="_203812720" class="fil8" d="M0.534996 0.34922l0.047248 0 0 0.00334252 -0.047248 0 0 -0.00334252zm0 0.0209921l0.0317362 0 0 0.00334252 -0.0317362 0 0 -0.00334252zm0 -0.0105l0.047248 0 0 0.00334252 -0.047248 0 0 -0.00334252z"/>
   <path id="_203812696" class="fil7" d="M0.622878 0.309232c0.00909055,0 0.0164646,0.00737402 0.0164646,0.0164646 0,0.00909055 -0.00737402,0.0164606 -0.0164646,0.0164606 -0.00909055,0 -0.0164606,-0.00737008 -0.0164606,-0.0164606 0,-0.00909449 0.00737008,-0.0164646 0.0164606,-0.0164646z"/>
   <path id="_203812144" class="fil8" d="M0.599256 0.34922l0.0472441 0 0 0.00334252 -0.0472441 0 0 -0.00334252zm0 0.0209921l0.0317362 0 0 0.00334252 -0.0317362 0 0 -0.00334252zm0 -0.0105l0.0472441 0 0 0.00334252 -0.0472441 0 0 -0.00334252z"/>
   <path id="_203812576" class="fil5" d="M0.718173 0.176835l-0.207441 0 0 -0.0225669c0,-0.000771654 0.000625984,-0.00139764 0.00139764,-0.00139764l0.204638 0c0.000775591,0 0.00140157,0.000625984 0.00140157,0.00139764l0 0.0225669 3.93701e-006 0z"/>
   <g>
    <path id="_203812096" class="fil2" d="M0.52611 0.159685c0.00298425,0 0.00539764,0.00241732 0.00539764,0.00539764 0,0.00298031 -0.00241339,0.0053937 -0.00539764,0.0053937 -0.00298031,0 -0.00539764,-0.00241339 -0.00539764,-0.0053937 0,-0.00298031 0.00241732,-0.00539764 0.00539764,-0.00539764z"/>
    <path id="_203812480" class="fil2" d="M0.541299 0.159685c0.00298031,0 0.0053937,0.00241732 0.0053937,0.00539764 0,0.00298031 -0.00241339,0.0053937 -0.0053937,0.0053937 -0.00298031,0 -0.0053937,-0.00241339 -0.0053937,-0.0053937 0,-0.00298031 0.00241339,-0.00539764 0.0053937,-0.00539764z"/>
    <path id="_203812000" class="fil2" d="M0.556488 0.159685c0.00298031,0 0.00539764,0.00241732 0.00539764,0.00539764 0,0.00298031 -0.00241732,0.0053937 -0.00539764,0.0053937 -0.00298031,0 -0.0053937,-0.00241339 -0.0053937,-0.0053937 0,-0.00298031 0.00241732,-0.00539764 0.0053937,-0.00539764z"/>
   </g>
   <path id="_345384856" class="fil1" d="M0.586768 0.160894l0.123362 0c0.000909449,0 0.00164961,0.000976378 0.00164961,0.00217323l0 0.00403937c0,0.00119291 -0.000740157,0.00217323 -0.00164961,0.00217323l-0.123362 0c-0.000909449,0 -0.00164961,-0.000980315 -0.00164961,-0.00217323l0 -0.00403937c0,-0.00119685 0.000740157,-0.00217323 0.00164961,-0.00217323z"/>
   <path id="_345375736" class="fil5" d="M0.767425 0.268047l-0.089315 0 0 -0.00986614c0,-0.000334646 0.000271654,-0.000602362 0.000602362,-0.000602362l0.0881102 0c0.000330709,0 0.000602362,0.000267717 0.000602362,0.000602362l0 0.00986614 0 0z"/>
   <path id="_345375376" class="fil1" d="M0.684421 0.25935c0.00170472,0 0.00308268,0.00137795 0.00308268,0.00308268 0,0.00170472 -0.00137795,0.00308661 -0.00308268,0.00308661 -0.00170472,0 -0.00308661,-0.00138189 -0.00308661,-0.00308661 0,-0.00170472 0.00138189,-0.00308268 0.00308661,-0.00308268z"/>
   <g>
    <path id="_345374968" class="fil2" d="M0.693102 0.25935c0.00170866,0 0.00308661,0.00137795 0.00308661,0.00308268 0,0.00170472 -0.00137795,0.00308661 -0.00308661,0.00308661 -0.00170472,0 -0.00308268,-0.00138189 -0.00308268,-0.00308661 0,-0.00170472 0.00138189,-0.00308268 0.00308268,-0.00308268z"/>
    <path id="_345372904" class="fil2" d="M0.701787 0.25935c0.00170472,0 0.00308268,0.00137795 0.00308268,0.00308268 0,0.00170472 -0.00137795,0.00308661 -0.00308268,0.00308661 -0.00170472,0 -0.00308661,-0.00138189 -0.00308661,-0.00308661 0,-0.00170472 0.00138189,-0.00308268 0.00308661,-0.00308268z"/>
   </g>
   <path id="_345370504" class="fil1" d="M0.714327 0.259748l0.0496614 0c0.000665354,0 0.00120079,0.00053937 0.00120079,0.00120472l0 0.00322835c0,0.000665354 -0.00053937,0.00120472 -0.00120079,0.00120472l-0.0496614 0c-0.000665354,0 -0.00120472,-0.00053937 -0.00120472,-0.00120472l0 -0.00322835c0,-0.000661417 0.00053937,-0.00120472 0.00120472,-0.00120472z"/>
   <polygon id="_345399712" class="fil2" points="0.682445,0.271429 0.763094,0.271429 0.763094,0.318965 0.682445,0.318965 "/>
   <path id="_345386416" class="fil9" d="M0.725138 0.328713c0.00826772,0 0.0149685,0.00670079 0.0149685,0.0149724 0,0.00826772 -0.00670079,0.0149685 -0.0149685,0.0149685 -0.00826772,0 -0.0149685,-0.00670079 -0.0149685,-0.0149685 0,-0.00826772 0.00670079,-0.0149724 0.0149685,-0.0149724z"/>
   <path id="_345385744" class="fil8" d="M0.699157 0.369555l0.0519606 0 0 0.00367323 -0.0519606 0 0 -0.00367323zm0 0.0230945l0.0349055 0 0 0.00366929 -0.0349055 0 0 -0.00366929zm0 -0.0115472l0.0519606 0 0 0.00366929 -0.0519606 0 0 -0.00366929z"/>
   <path id="_345386272" class="fil3" d="M0.58822 0.140098l0.0524724 0c0.000748031,0 0.00135039,0.000606299 0.00135039,0.00135039l0 3.93701e-006c0,0.000748031 -0.000602362,0.00135039 -0.00135039,0.00135039l-0.0524724 0c-0.000748031,0 -0.00135039,-0.000602362 -0.00135039,-0.00135039l0 -3.93701e-006c0,-0.000744094 0.000602362,-0.00135039 0.00135039,-0.00135039z"/>
  </g>
 </g>
</svg>
