<?xml version="1.0" encoding="UTF-8"?>
<!DOCTYPE svg PUBLIC "-//W3C//DTD SVG 1.1//EN" "http://www.w3.org/Graphics/SVG/1.1/DTD/svg11.dtd">
<!-- Creator: CorelDRAW -->
<svg xmlns="http://www.w3.org/2000/svg" xml:space="preserve" width="0.787402in" height="0.787402in" style="shape-rendering:geometricPrecision; text-rendering:geometricPrecision; image-rendering:optimizeQuality; fill-rule:evenodd; clip-rule:evenodd"
viewBox="0 0 0.787402 0.787402"
 xmlns:xlink="http://www.w3.org/1999/xlink">
 <defs>
  <style type="text/css">
   <![CDATA[
    .fil1 {fill:#03A3E3}
    .fil4 {fill:#11B3F1}
    .fil0 {fill:#C6CBCB}
    .fil2 {fill:#D1D5D5}
    .fil3 {fill:#E2E5E7}
   ]]>
  </style>
 </defs>
 <g id="Layer_x0020_1">
  <metadata id="CorelCorpID_0Corel-Layer"/>
  <g id="_329905864">
   <polygon id="_329909272" class="fil0" points="0.029874,0.0869134 0.503358,0.686661 0.545449,0.543862 "/>
   <polygon id="_329909968" class="fil1" points="0.360815,0.380224 0.328315,0.464937 0.503358,0.686661 0.545449,0.543862 "/>
   <polygon id="_329909512" class="fil2" points="0.503358,0.686661 0.459768,0.579937 0.029874,0.0869134 0.411669,0.611504 "/>
   <polygon id="_329909896" class="fil3" points="0.459768,0.579937 0.213256,0.736264 0.029874,0.0869134 "/>
   <polygon id="_329909848" class="fil3" points="0.545449,0.543862 0.029874,0.0869134 0.761902,0.449165 "/>
   <polygon id="_329909824" class="fil4" points="0.291012,0.386398 0.206807,0.713441 0.213256,0.736264 0.460004,0.579752 "/>
   <polygon id="_329909800" class="fil4" points="0.731772,0.43426 0.360815,0.380224 0.545268,0.544469 0.761902,0.449165 "/>
   <polygon id="_329909368" class="fil1" points="0.291012,0.386398 0.206807,0.713441 0.303386,0.400559 "/>
   <polygon id="_329909488" class="fil1" points="0.360815,0.380224 0.377268,0.394874 0.731772,0.43426 "/>
   <polygon id="_329909704" class="fil0" points="0.460004,0.579752 0.411126,0.610756 0.448531,0.64172 "/>
   <polygon id="_329908456" class="fil1" points="0.0480512,0.15128 0.0627677,0.124634 0.029874,0.0869134 "/>
   <polygon id="_329908888" class="fil1" points="0.0697795,0.12228 0.102992,0.123094 0.029874,0.0869134 "/>
  </g>
 </g>
</svg>
