<?xml version="1.0" encoding="UTF-8"?>
<!DOCTYPE svg PUBLIC "-//W3C//DTD SVG 1.1//EN" "http://www.w3.org/Graphics/SVG/1.1/DTD/svg11.dtd">
<!-- Creator: CorelDRAW -->
<svg xmlns="http://www.w3.org/2000/svg" xml:space="preserve" width="0.787402in" height="0.787402in" style="shape-rendering:geometricPrecision; text-rendering:geometricPrecision; image-rendering:optimizeQuality; fill-rule:evenodd; clip-rule:evenodd"
viewBox="0 0 0.787402 0.787402"
 xmlns:xlink="http://www.w3.org/1999/xlink">
 <defs>
  <style type="text/css">
   <![CDATA[
    .fil5 {fill:#11B3F1}
    .fil7 {fill:#21D0C3}
    .fil0 {fill:#666666}
    .fil4 {fill:#919191}
    .fil3 {fill:#B6B6B8}
    .fil8 {fill:#DCE3DB}
    .fil2 {fill:#ECF0F1}
    .fil9 {fill:#FAD24D}
    .fil6 {fill:#FF5B62}
    .fil1 {fill:white}
   ]]>
  </style>
 </defs>
 <g id="Layer_x0020_1">
  <metadata id="CorelCorpID_0Corel-Layer"/>
  <g id="_287150352">
   <path id="_296024096" class="fil0" d="M0.0732402 0.179732l0.57461 0c0.018878,0 0.0343228,0.0154409 0.0343228,0.0343228l0 0.353969 -0.643256 0 0 -0.353969c0,-0.018878 0.0154449,-0.0343228 0.0343228,-0.0343228z"/>
   <path id="_296024024" class="fil1" d="M0.0622244 0.544713l0.596646 0 0 -0.330657c0,-0.00601181 -0.00500394,-0.0110157 -0.0110157,-0.0110157l-0.574606 0c-0.00601181,0 -0.0110157,0.00500394 -0.0110157,0.0110157l0 0.330657 -7.87402e-006 0 0 0z"/>
   <polygon id="_296024600" class="fil2" points="0.0745748,0.250209 0.646524,0.250209 0.646524,0.38261 0.0745748,0.38261 "/>
   <path id="_296023280" class="fil3" d="M0.00767717 0.568024l0.70574 0 0 0.0198228c0,0.0108976 -0.00892126,0.0198228 -0.0198228,0.0198228l-0.666098 0c-0.0109016,0 -0.0198228,-0.00892126 -0.0198228,-0.0198228l0 -0.0198228 3.93701e-006 0z"/>
   <polygon id="_296023616" class="fil4" points="0.290106,0.575268 0.430984,0.575268 0.415894,0.585291 0.305197,0.585291 0.290102,0.575268 "/>
   <path id="_296023784" class="fil0" d="M0.510213 0.304366l0.211059 0c0.00669291,0 0.0121181,0.0054252 0.0121181,0.0121181l0 0.279063c0,0.00669291 -0.0054252,0.0121181 -0.0121181,0.0121181l-0.211059 0c-0.00669291,0 -0.0121181,-0.0054252 -0.0121181,-0.0121181l0 -0.279063c0,-0.00669291 0.00542913,-0.0121181 0.0121181,-0.0121181z"/>
   <path id="_296023424" class="fil1" d="M0.512827 0.325835l0.205831 0c0.000779528,0 0.00140945,0.000625984 0.00140945,0.00140551l0 0.250622c0,0.000779528 -0.000629921,0.00140945 -0.00140945,0.00140945l-0.205831 0c-0.000775591,0 -0.00140551,-0.000629921 -0.00140551,-0.00140551l0 -0.250626c0,-0.000775591 0.000629921,-0.00140551 0.00140551,-0.00140551z"/>
   <circle id="_296022488" class="fil3" cx="0.615747" cy="0.592962" r="0.00790271"/>
   <polygon id="_296023016" class="fil2" points="0.522406,0.357224 0.709087,0.357224 0.709087,0.467256 0.522406,0.467256 "/>
   <path id="_296022680" class="fil0" d="M0.675799 0.412925l0.0977795 0c0.00339764,0 0.00614961,0.00275591 0.00614961,0.00614961l0 0.182441c0,0.00339764 -0.00275197,0.00615354 -0.00614961,0.00615354l-0.0977795 0c-0.00339764,0 -0.00615354,-0.00275591 -0.00615354,-0.00615354l0 -0.182441c0,-0.0033937 0.00275591,-0.00614961 0.00615354,-0.00614961z"/>
   <path id="_296022992" class="fil1" d="M0.680378 0.431154l0.088622 0c0.000334646,0 0.000606299,0.000271654 0.000606299,0.000606299l0 0.157071c0,0.000334646 -0.000271654,0.000606299 -0.000606299,0.000606299l-0.088622 0c-0.000334646,0 -0.000606299,-0.000271654 -0.000606299,-0.000606299l0 -0.157071c0,-0.000334646 0.000271654,-0.000606299 0.000606299,-0.000606299z"/>
   <g>
    <circle id="_296022944" class="fil3" cx="0.724695" cy="0.597729" r="0.00556112"/>
    <path id="_296022584" class="fil3" d="M0.709811 0.422961l0.029752 0c0.000751969,0 0.00135827,0.000610236 0.00135827,0.00135827l0 7.87402e-006c0,0.000748031 -0.000606299,0.00135827 -0.00135827,0.00135827l-0.029752 0c-0.000748031,0 -0.00135827,-0.000610236 -0.00135827,-0.00135827l0 -7.87402e-006c0,-0.000748031 0.000610236,-0.00135827 0.00135827,-0.00135827z"/>
   </g>
   <path id="_296018816" class="fil5" d="M0.65887 0.239906l-0.596646 0 0 -0.0258504c0,-0.00601181 0.00500787,-0.0110157 0.0110157,-0.0110157l0.57461 0c0.00601181,0 0.0110157,0.00500394 0.0110157,0.0110157l0 0.0258504 3.93701e-006 0 0 0z"/>
   <path id="_296018648" class="fil1" d="M0.316846 0.213591l0.305634 0c0.00225197,0 0.00408661,0.00183858 0.00408661,0.00408661l0 0.00758661c0,0.00225197 -0.00183858,0.00408661 -0.00408661,0.00408661l-0.305634 0c-0.00225197,0 -0.00408661,-0.00183858 -0.00408661,-0.00408661l0 -0.00758661c0,-0.00224803 0.00183858,-0.00408661 0.00408661,-0.00408661z"/>
   <g>
    <path id="_296018720" class="fil2" d="M0.0876102 0.213311c0.0051063,0 0.00924409,0.0041378 0.00924409,0.00924409 0,0.00511024 -0.0041378,0.00924803 -0.00924409,0.00924803 -0.00511024,0 -0.00925591,-0.0041378 -0.00925591,-0.00924803 0,-0.0051063 0.00414173,-0.00924409 0.00925591,-0.00924409z"/>
    <path id="_296018888" class="fil2" d="M0.12411 0.213311c0.00511024,0 0.00924409,0.0041378 0.00924409,0.00924409 0,0.00511024 -0.0041378,0.00924803 -0.00924409,0.00924803 -0.0051063,0 -0.00924803,-0.0041378 -0.00924803,-0.00924803 0,-0.0051063 0.00414173,-0.00924409 0.00924803,-0.00924409z"/>
    <path id="_296019848" class="fil2" d="M0.160618 0.213311c0.0051063,0 0.00924803,0.0041378 0.00924803,0.00924409 0,0.00511024 -0.00414173,0.00924803 -0.00924803,0.00924803 -0.00511417,0 -0.00925197,-0.0041378 -0.00925197,-0.00924803 0,-0.0051063 0.0041378,-0.00924409 0.00925197,-0.00924409z"/>
   </g>
   <path id="_296020880" class="fil6" d="M0.138051 0.414551c0.0147362,0 0.0266811,0.0119449 0.0266811,0.0266811 0,0.0147323 -0.0119449,0.0266811 -0.0266811,0.0266811 -0.0147323,0 -0.0266772,-0.0119488 -0.0266772,-0.0266811 0,-0.0147362 0.0119449,-0.0266811 0.0266772,-0.0266811z"/>
   <path id="_357767808" class="fil7" d="M0.275886 0.414551c0.0147323,0 0.0266772,0.0119449 0.0266772,0.0266811 0,0.0147323 -0.0119449,0.0266811 -0.0266772,0.0266811 -0.0147323,0 -0.0266732,-0.0119488 -0.0266732,-0.0266811 0,-0.0147362 0.0119409,-0.0266811 0.0266732,-0.0266811z"/>
   <g>
    <path id="_296025752" class="fil8" d="M0.0997717 0.47935l0.076563 0 0 0.00415354 -0.076563 0 0 -0.00415354zm0 0.0261024l0.0514252 0 0 0.00415354 -0.0514252 0 0 -0.00415354zm0 -0.0130512l0.076563 0 0 0.00415354 -0.076563 -3.93701e-006 0 -0.00414961z"/>
    <path id="_296026544" class="fil8" d="M0.23761 0.47935l0.0765591 0 0 0.00415354 -0.0765591 0 0 -0.00415354zm0 0.0261024l0.0514291 0 0 0.00415354 -0.0514291 0 0 -0.00415354zm0 -0.0130512l0.0765591 0 0 0.00415354 -0.0765591 -3.93701e-006 0 -0.00414961z"/>
   </g>
   <path id="_296028152" class="fil9" d="M0.422197 0.414551c0.0147362,0 0.0266772,0.0119449 0.0266772,0.0266811 0,0.0147323 -0.0119409,0.0266811 -0.0266772,0.0266811 -0.0147323,0 -0.0266732,-0.0119488 -0.0266732,-0.0266811 -3.93701e-006,-0.0147362 0.0119409,-0.0266811 0.0266732,-0.0266811z"/>
   <path id="_296028416" class="fil8" d="M0.383921 0.47935l0.0765591 0 0 0.00415354 -0.0765591 0 0 -0.00415354 0 0zm0 0.0261024l0.0514291 0 0 0.00415354 -0.0514291 0 0 -0.00415354zm0 -0.0130512l0.0765591 0 0 0.00415354 -0.0765591 -3.93701e-006 0 -0.00414961 0 0z"/>
   <path id="_296028584" class="fil6" d="M0.559583 0.483106c0.00914567,0 0.0165591,0.00741732 0.0165591,0.016563 0,0.00914173 -0.00740945,0.0165591 -0.0165591,0.0165591 -0.00914173,0 -0.0165591,-0.00741732 -0.0165591,-0.0165591 0,-0.00914567 0.00741339,-0.016563 0.0165591,-0.016563z"/>
   <path id="_296030312" class="fil8" d="M0.535823 0.523331l0.0475197 0 0 0.00335827 -0.0475197 0 0 -0.00335827zm0 0.0211142l0.0319213 0 0 0.0033622 -0.0319213 0 0 -0.0033622zm0 -0.0105591l0.0475197 0 0 0.00335827 -0.0475197 0 0 -0.00335827z"/>
   <path id="_296030624" class="fil7" d="M0.624217 0.483106c0.00914567,0 0.0165591,0.00741732 0.0165591,0.016563 0,0.00914173 -0.00741339,0.0165591 -0.0165591,0.0165591 -0.00914173,0 -0.0165591,-0.00741732 -0.0165591,-0.0165591 0,-0.00914567 0.00741732,-0.016563 0.0165591,-0.016563z"/>
   <path id="_296029424" class="fil8" d="M0.600457 0.523331l0.0475197 0 0 0.00335827 -0.0475197 0 0 -0.00335827zm0 0.0211142l0.0319213 0 0 0.0033622 -0.0319213 0 0 -0.0033622zm0 -0.0105591l0.0475197 0 0 0.00335827 -0.0475197 0 0 -0.00335827z"/>
   <path id="_296030072" class="fil5" d="M0.720067 0.349941l-0.20865 0 0 -0.0226969c0,-0.000779528 0.000629921,-0.00140945 0.00140551,-0.00140945l0.205831 0c0.000779528,0 0.00140551,0.000629921 0.00140551,0.00140945l0 0.0226969 7.87402e-006 0z"/>
   <g>
    <path id="_296030936" class="fil2" d="M0.526882 0.332693c0.00300394,0 0.00543307,0.00242913 0.00543307,0.0054252 0,0.00299606 -0.00242913,0.0054252 -0.00543307,0.0054252 -0.00299606,0 -0.0054252,-0.00242913 -0.0054252,-0.0054252 0,-0.00299606 0.00243307,-0.0054252 0.0054252,-0.0054252z"/>
    <path id="_296031128" class="fil2" d="M0.542161 0.332693c0.003,0 0.0054252,0.00242913 0.0054252,0.0054252 0,0.00299606 -0.0024252,0.0054252 -0.0054252,0.0054252 -0.00299606,0 -0.0054252,-0.00242913 -0.0054252,-0.0054252 0,-0.00299606 0.00242913,-0.0054252 0.0054252,-0.0054252z"/>
    <path id="_296030864" class="fil2" d="M0.557441 0.332693c0.00299606,0 0.0054252,0.00242913 0.0054252,0.0054252 0,0.00299606 -0.00242913,0.0054252 -0.0054252,0.0054252 -0.00299606,0 -0.0054252,-0.00242913 -0.0054252,-0.0054252 0,-0.00299606 0.00242913,-0.0054252 0.0054252,-0.0054252z"/>
   </g>
   <path id="_296031320" class="fil1" d="M0.587898 0.333906l0.124079 0c0.000913386,0 0.00165748,0.000984252 0.00165748,0.00218898l0 0.00405906c0,0.00120472 -0.000744094,0.00218898 -0.00165748,0.00218898l-0.124079 0c-0.000917323,0 -0.00166142,-0.000984252 -0.00166142,-0.00218898l0 -0.00405906c0,-0.00120472 0.000744094,-0.00218898 0.00166142,-0.00218898z"/>
   <path id="_296031560" class="fil5" d="M0.769606 0.441685l-0.0898346 0 0 -0.0099252c0,-0.000338583 0.000271654,-0.000606299 0.000606299,-0.000606299l0.088622 0c0.000334646,0 0.000606299,0.000267717 0.000606299,0.000606299l0 0.0099252 0 0z"/>
   <path id="_296017136" class="fil1" d="M0.686118 0.432937c0.00171654,0 0.00310236,0.00138583 0.00310236,0.00310236 0,0.0017126 -0.00138583,0.00310236 -0.00310236,0.00310236 -0.0017126,0 -0.00310236,-0.00138976 -0.00310236,-0.00310236 -3.93701e-006,-0.00171654 0.00138976,-0.00310236 0.00310236,-0.00310236z"/>
   <g>
    <path id="_296020424" class="fil2" d="M0.69485 0.432937c0.00171654,0 0.00310236,0.00138583 0.00310236,0.00310236 0,0.0017126 -0.00138583,0.00310236 -0.00310236,0.00310236 -0.00171654,0 -0.00310236,-0.00138976 -0.00310236,-0.00310236 0,-0.00171654 0.00138976,-0.00310236 0.00310236,-0.00310236z"/>
    <path id="_296023496" class="fil2" d="M0.703583 0.432937c0.00171654,0 0.00310236,0.00138583 0.00310236,0.00310236 0,0.0017126 -0.00138583,0.00310236 -0.00310236,0.00310236 -0.0017126,0 -0.00310236,-0.00138976 -0.00310236,-0.00310236 0,-0.00171654 0.00138976,-0.00310236 0.00310236,-0.00310236z"/>
   </g>
   <path id="_296018048" class="fil1" d="M0.716197 0.433339l0.0499488 0c0.000669291,0 0.0012126,0.000543307 0.0012126,0.00120866l0 0.00324803c0,0.000669291 -0.000543307,0.00120866 -0.0012126,0.00120866l-0.0499488 0c-0.000669291,0 -0.00120866,-0.00053937 -0.00120866,-0.00120866l0 -0.00324803c0,-0.000665354 0.00053937,-0.00120866 0.00120866,-0.00120866z"/>
   <polygon id="_361032208" class="fil2" points="0.68413,0.445087 0.765248,0.445087 0.765248,0.492898 0.68413,0.492898 "/>
   <path id="_361023280" class="fil9" d="M0.727071 0.502701c0.00831496,0 0.0150551,0.00674016 0.0150551,0.0150591 0,0.00831496 -0.00674016,0.0150591 -0.0150551,0.0150591 -0.00831496,0 -0.0150551,-0.00674016 -0.0150551,-0.0150591 0,-0.00831496 0.00674016,-0.0150591 0.0150551,-0.0150591z"/>
   <path id="_361051576" class="fil8" d="M0.700941 0.543783l0.0522598 0 0 0.00369291 -0.0522598 0 0 -0.00369291zm0 0.0232283l0.0351102 0 0 0.00368898 -0.0351102 0 0 -0.00368898zm0 -0.0116142l0.0522598 0 0 0.00368898 -0.0522598 0 0 -0.00368898z"/>
   <path id="_361023448" class="fil3" d="M0.589358 0.312992l0.0527756 0c0.000751969,0 0.0013622,0.000606299 0.0013622,0.00135827l0 3.93701e-006c0,0.000748031 -0.000610236,0.00135827 -0.0013622,0.00135827l-0.0527756 0c-0.000751969,0 -0.0013622,-0.000610236 -0.0013622,-0.00135827l0 -3.93701e-006c0,-0.000751969 0.000610236,-0.00135827 0.0013622,-0.00135827z"/>
  </g>
 </g>
</svg>
